M48
;Layer_Color=9474304
;FILE_FORMAT=2:5
INCH,LZ
;TYPE=PLATED
T1F00S00C0.00787
T2F00S00C0.00800
T3F00S00C0.01968
T4F00S00C0.02560
T5F00S00C0.03937
T6F00S00C0.04724
T7F00S00C0.10630
;TYPE=NON_PLATED
T8F00S00C0.07008
%
T01
X0041517Y0251805
Y0255349
Y0258892
X0045454
Y0255349
Y0251805
T02
X0106Y0025197
X0134547Y0029
X0138189Y0013
X0144122Y0047
X0145543Y0061613
X0165Y0048819
X0167717Y0040945
X018Y0054
X0197Y0045
X0194Y0034646
X0223Y0063
X0106Y0058
X0246Y0183
X027215Y0200679
X027165Y0205512
X0274721
Y0208699
X027165
X0278091
Y0205512
X0282283
Y0208699
Y0212598
Y0216123
Y0219291
X0278091
Y0216219
Y0212598
X0274721Y0219291
X0287Y018937
X0294Y0177
X0292126Y0174311
X0298819Y0147244
X0227559Y0140945
X0219783Y0156693
X0200787Y015
X019252Y015589
X0195276Y0173721
X018245Y0166593
X0175886Y0174803
X0161024Y0177677
X0158978Y0172742
X015315Y0170063
X014311Y0165354
X0143095Y0174787
X0142519Y0177677
X0140775Y0182677
X0136Y0184
X0140645Y0199
X0140157Y0204283
X0123228Y0208957
X0118012
X0111396Y0216142
X0106209Y021428
X0098353Y0207
X0119Y018
X0108Y0161
Y0143877
X0121829
X0132Y0139982
Y0136
X0136Y0122441
X0138189Y0106693
Y0103
X0142Y009555
X0149458Y0093209
X0148788Y0115071
X0148Y0134
X0147872Y0151165
X0161024Y0162677
X0168407Y0137795
X0178528Y0127696
X018Y0122441
X019252Y0134667
X0205512Y0122441
X0208Y0119291
X02107Y0116
X0167717Y0084744
X0106Y0103
X0110517Y0112205
X009712Y0098
X0177Y0198731
X0168407Y0211713
X0200787Y018937
X0226378Y0199521
X023121Y0199127
X0238Y0200476
X0239Y0193772
X0226378Y0204784
X0227059Y0208699
X0074585Y021063
X0077953Y0216142
X006986
X0065136Y0212205
X0032065Y0205689
X0032123Y0143877
X0048945Y0129945
X0066929Y0128
Y0115071
X0079528Y0117935
X0086614Y0107087
X0074585Y0094488
X0058268Y0103
X0041Y0102
X0044Y0083
X0057086Y0165354
X006986Y0160931
X0074585Y015589
X0084034Y0157
X0079528Y0164
X0063Y0243701
X0052105
X00494Y0246942
X0042488Y0246063
X004Y0248
X00379Y0245163
X0034931Y0246
X0031638Y0242
X0034931Y0232799
X0040612Y0235827
X00495Y0239
X0053383Y0254463
X0066929Y0256235
X0033071
X0034226Y0253232
X0008268Y0253937
X0010374Y026522
X0007881Y0267323
X0006693Y0231102
X00565Y0287992
X0066601Y0296126
X0117572Y0290441
X0123151Y0278291
X012235Y0262402
X0130709Y0254463
X0115748Y0249213
X0111396Y0237795
X0111417Y0224803
X0107656Y0226772
X0098207Y0223928
X0094882Y0220866
X0088583Y0226378
X0098353Y0254463
X0127502Y022874
X0129134Y0220866
X017Y0235
X01753Y0233268
X0187Y0225736
X0207087Y0248
X0212992
X021Y0281
X0207087Y0288739
X0209Y029072
X0220866Y029439
X0226772Y0277165
X0236055Y0265913
X0194628Y029745
X0186Y0295
X0181362Y029739
X0177Y0291616
X0172738Y0293926
X0168407Y0292616
X017Y0276007
X0141339Y0267323
X0135987Y029072
X0130709Y0301969
X0143Y0308
X0111396Y0309055
X0286306Y0294015
X0268787Y0238
Y0235
Y0232
X0264875Y0232
Y0235
Y0238
T03
X0301378Y017313
Y0178051
T04
X0166654Y0162677
Y0167677
Y0172677
X0171653
Y0177677
Y0182677
X0166654
Y0177677
X0171653Y0167677
Y0162677
T05
X0079527Y0262402
X0087402
X0087008Y0290002
X0079134
X0094882
X0102756
X010315Y0262402
X0095276
T06
X0092815Y0033071
Y0040945
Y0048819
X0066142Y0075
X0058268
X0050394
T07
X0009843Y0009843
X0305118
X0009252Y0303346
X030428Y0303
T08
X0300984Y0259055
M30
