G04*
G04 #@! TF.GenerationSoftware,Altium Limited,Altium Designer,21.1.1 (26)*
G04*
G04 Layer_Physical_Order=2*
G04 Layer_Color=36540*
%FSLAX25Y25*%
%MOIN*%
G70*
G04*
G04 #@! TF.SameCoordinates,BA33E46C-C8C0-473A-8748-ADA81A7699FD*
G04*
G04*
G04 #@! TF.FilePolarity,Positive*
G04*
G01*
G75*
%ADD118C,0.03960*%
%ADD120O,0.09843X0.05906*%
%ADD121O,0.05906X0.09843*%
%ADD122C,0.05906*%
%ADD125C,0.02000*%
G36*
X109932Y310557D02*
X110141Y310057D01*
X109889Y309679D01*
X109764Y309055D01*
X109889Y308431D01*
X110242Y307902D01*
X110771Y307548D01*
X111396Y307424D01*
X112020Y307548D01*
X112549Y307902D01*
X112903Y308431D01*
X113027Y309055D01*
X112903Y309679D01*
X112650Y310057D01*
X112859Y310557D01*
X150445Y310555D01*
X152000Y309000D01*
X287000D01*
Y308000D01*
X311000Y284000D01*
Y38000D01*
X301000Y28000D01*
X291000D01*
Y8000D01*
X292000Y7000D01*
X291000Y6000D01*
X27000D01*
X25000Y8000D01*
X26000Y9000D01*
Y25197D01*
X6000D01*
Y127000D01*
X27000D01*
X30000Y130000D01*
Y221000D01*
X26000Y225000D01*
X3000D01*
Y292000D01*
X4000Y293000D01*
X12000D01*
X25000Y306000D01*
Y309000D01*
X67686D01*
X67816Y308870D01*
X69505Y310559D01*
X109932Y310557D01*
D02*
G37*
%LPC*%
G36*
X130709Y303600D02*
X130084Y303476D01*
X129555Y303122D01*
X129201Y302593D01*
X129077Y301969D01*
X129201Y301344D01*
X129555Y300815D01*
X130084Y300461D01*
X130709Y300337D01*
X131333Y300461D01*
X131862Y300815D01*
X132216Y301344D01*
X132340Y301969D01*
X132216Y302593D01*
X131862Y303122D01*
X131333Y303476D01*
X130709Y303600D01*
D02*
G37*
G36*
X186000Y296631D02*
X185376Y296507D01*
X184846Y296153D01*
X184493Y295624D01*
X184369Y295000D01*
X184493Y294376D01*
X184846Y293847D01*
X185376Y293493D01*
X186000Y293369D01*
X186624Y293493D01*
X187153Y293847D01*
X187507Y294376D01*
X187631Y295000D01*
X187507Y295624D01*
X187153Y296153D01*
X186624Y296507D01*
X186000Y296631D01*
D02*
G37*
G36*
X172738Y295557D02*
X172114Y295433D01*
X171585Y295079D01*
X171231Y294550D01*
X171107Y293926D01*
X171231Y293302D01*
X171585Y292772D01*
X172114Y292419D01*
X172738Y292294D01*
X173363Y292419D01*
X173892Y292772D01*
X174245Y293302D01*
X174370Y293926D01*
X174245Y294550D01*
X173892Y295079D01*
X173363Y295433D01*
X172738Y295557D01*
D02*
G37*
G36*
X168407Y294248D02*
X167783Y294123D01*
X167254Y293770D01*
X166900Y293240D01*
X166776Y292616D01*
X166900Y291992D01*
X167254Y291463D01*
X167783Y291109D01*
X168407Y290985D01*
X169032Y291109D01*
X169561Y291463D01*
X169915Y291992D01*
X170039Y292616D01*
X169915Y293240D01*
X169561Y293770D01*
X169032Y294123D01*
X168407Y294248D01*
D02*
G37*
G36*
X103256Y293721D02*
Y290501D01*
X106475D01*
X106412Y290981D01*
X106034Y291894D01*
X105432Y292678D01*
X104648Y293280D01*
X103736Y293658D01*
X103256Y293721D01*
D02*
G37*
G36*
X102256D02*
X101776Y293658D01*
X100863Y293280D01*
X100079Y292678D01*
X99478Y291894D01*
X99100Y290981D01*
X99037Y290501D01*
X102256D01*
Y293721D01*
D02*
G37*
G36*
X177000Y293248D02*
X176376Y293123D01*
X175847Y292770D01*
X175493Y292240D01*
X175369Y291616D01*
X175493Y290992D01*
X175847Y290463D01*
X176376Y290109D01*
X177000Y289985D01*
X177624Y290109D01*
X178154Y290463D01*
X178507Y290992D01*
X178631Y291616D01*
X178507Y292240D01*
X178154Y292770D01*
X177624Y293123D01*
X177000Y293248D01*
D02*
G37*
G36*
X135987Y292351D02*
X135363Y292227D01*
X134833Y291874D01*
X134480Y291344D01*
X134356Y290720D01*
X134480Y290096D01*
X134833Y289566D01*
X135363Y289213D01*
X135987Y289089D01*
X136611Y289213D01*
X137141Y289566D01*
X137494Y290096D01*
X137618Y290720D01*
X137494Y291344D01*
X137141Y291874D01*
X136611Y292227D01*
X135987Y292351D01*
D02*
G37*
G36*
X209000D02*
X208376Y292227D01*
X207846Y291874D01*
X207493Y291344D01*
X207369Y290720D01*
X206934Y290340D01*
X206462Y290246D01*
X205933Y289893D01*
X205579Y289364D01*
X205455Y288739D01*
X205579Y288115D01*
X205933Y287586D01*
X206462Y287232D01*
X207087Y287108D01*
X207711Y287232D01*
X208240Y287586D01*
X208594Y288115D01*
X208718Y288739D01*
X209152Y289119D01*
X209624Y289213D01*
X210154Y289566D01*
X210507Y290096D01*
X210631Y290720D01*
X210507Y291344D01*
X210154Y291874D01*
X209624Y292227D01*
X209000Y292351D01*
D02*
G37*
G36*
X82687Y293554D02*
X75581D01*
Y286449D01*
X82687D01*
Y293554D01*
D02*
G37*
G36*
X94882Y293585D02*
X93954Y293463D01*
X93090Y293105D01*
X92348Y292535D01*
X91779Y291793D01*
X91421Y290929D01*
X91299Y290002D01*
X91421Y289074D01*
X91779Y288210D01*
X92348Y287468D01*
X93090Y286898D01*
X93954Y286540D01*
X94882Y286418D01*
X95809Y286540D01*
X96674Y286898D01*
X97416Y287468D01*
X97985Y288210D01*
X98343Y289074D01*
X98465Y290002D01*
X98343Y290929D01*
X97985Y291793D01*
X97416Y292535D01*
X96674Y293105D01*
X95809Y293463D01*
X94882Y293585D01*
D02*
G37*
G36*
X87008D02*
X86080Y293463D01*
X85216Y293105D01*
X84474Y292535D01*
X83904Y291793D01*
X83547Y290929D01*
X83425Y290002D01*
X83547Y289074D01*
X83904Y288210D01*
X84474Y287468D01*
X85216Y286898D01*
X86080Y286540D01*
X87008Y286418D01*
X87935Y286540D01*
X88800Y286898D01*
X89542Y287468D01*
X90111Y288210D01*
X90469Y289074D01*
X90591Y290002D01*
X90469Y290929D01*
X90111Y291793D01*
X89542Y292535D01*
X88800Y293105D01*
X87935Y293463D01*
X87008Y293585D01*
D02*
G37*
G36*
X106475Y289502D02*
X103256D01*
Y286282D01*
X103736Y286345D01*
X104648Y286723D01*
X105432Y287325D01*
X106034Y288109D01*
X106412Y289022D01*
X106475Y289502D01*
D02*
G37*
G36*
X102256D02*
X99037D01*
X99100Y289022D01*
X99478Y288109D01*
X100079Y287325D01*
X100863Y286723D01*
X101776Y286345D01*
X102256Y286282D01*
Y289502D01*
D02*
G37*
G36*
X210000Y282631D02*
X209376Y282507D01*
X208846Y282154D01*
X208493Y281624D01*
X208369Y281000D01*
X208493Y280376D01*
X208846Y279847D01*
X209376Y279493D01*
X210000Y279369D01*
X210624Y279493D01*
X211154Y279847D01*
X211507Y280376D01*
X211631Y281000D01*
X211507Y281624D01*
X211154Y282154D01*
X210624Y282507D01*
X210000Y282631D01*
D02*
G37*
G36*
X123151Y279922D02*
X122527Y279798D01*
X121998Y279444D01*
X121644Y278915D01*
X121520Y278291D01*
X121644Y277666D01*
X121998Y277137D01*
X122527Y276783D01*
X123151Y276659D01*
X123775Y276783D01*
X124305Y277137D01*
X124658Y277666D01*
X124783Y278291D01*
X124658Y278915D01*
X124305Y279444D01*
X123775Y279798D01*
X123151Y279922D01*
D02*
G37*
G36*
X226772Y278797D02*
X226147Y278673D01*
X225618Y278319D01*
X225265Y277790D01*
X225140Y277165D01*
X225265Y276541D01*
X225618Y276012D01*
X226147Y275658D01*
X226772Y275534D01*
X227396Y275658D01*
X227925Y276012D01*
X228279Y276541D01*
X228403Y277165D01*
X228279Y277790D01*
X227925Y278319D01*
X227396Y278673D01*
X226772Y278797D01*
D02*
G37*
G36*
X170000Y277639D02*
X169376Y277514D01*
X168846Y277161D01*
X168493Y276631D01*
X168369Y276007D01*
X168493Y275383D01*
X168846Y274854D01*
X169376Y274500D01*
X170000Y274376D01*
X170624Y274500D01*
X171153Y274854D01*
X171507Y275383D01*
X171631Y276007D01*
X171507Y276631D01*
X171153Y277161D01*
X170624Y277514D01*
X170000Y277639D01*
D02*
G37*
G36*
X10374Y266852D02*
X9750Y266727D01*
X9220Y266374D01*
X8867Y265845D01*
X8743Y265220D01*
X8867Y264596D01*
X9220Y264067D01*
X9750Y263713D01*
X10374Y263589D01*
X10998Y263713D01*
X11528Y264067D01*
X11881Y264596D01*
X12005Y265220D01*
X11881Y265845D01*
X11528Y266374D01*
X10998Y266727D01*
X10374Y266852D01*
D02*
G37*
G36*
X103650Y266121D02*
Y262901D01*
X106869D01*
X106806Y263381D01*
X106428Y264294D01*
X105826Y265078D01*
X105042Y265680D01*
X104129Y266058D01*
X103650Y266121D01*
D02*
G37*
G36*
X102650D02*
X102170Y266058D01*
X101257Y265680D01*
X100473Y265078D01*
X99872Y264294D01*
X99493Y263381D01*
X99430Y262901D01*
X102650D01*
Y266121D01*
D02*
G37*
G36*
X83080Y265954D02*
X75975D01*
Y258849D01*
X83080D01*
Y265954D01*
D02*
G37*
G36*
X95276Y265985D02*
X94348Y265863D01*
X93484Y265505D01*
X92742Y264935D01*
X92172Y264193D01*
X91814Y263329D01*
X91692Y262402D01*
X91814Y261474D01*
X92172Y260610D01*
X92742Y259868D01*
X93484Y259298D01*
X94348Y258940D01*
X95276Y258818D01*
X96203Y258940D01*
X97067Y259298D01*
X97809Y259868D01*
X98379Y260610D01*
X98737Y261474D01*
X98859Y262402D01*
X98737Y263329D01*
X98379Y264193D01*
X97809Y264935D01*
X97067Y265505D01*
X96203Y265863D01*
X95276Y265985D01*
D02*
G37*
G36*
X87402D02*
X86474Y265863D01*
X85610Y265505D01*
X84868Y264935D01*
X84298Y264193D01*
X83940Y263329D01*
X83818Y262402D01*
X83940Y261474D01*
X84298Y260610D01*
X84868Y259868D01*
X85610Y259298D01*
X86474Y258940D01*
X87402Y258818D01*
X88329Y258940D01*
X89193Y259298D01*
X89935Y259868D01*
X90505Y260610D01*
X90863Y261474D01*
X90985Y262402D01*
X90863Y263329D01*
X90505Y264193D01*
X89935Y264935D01*
X89193Y265505D01*
X88329Y265863D01*
X87402Y265985D01*
D02*
G37*
G36*
X102650Y261901D02*
X99430D01*
X99493Y261422D01*
X99872Y260509D01*
X100473Y259725D01*
X101257Y259123D01*
X102170Y258745D01*
X102650Y258682D01*
Y261901D01*
D02*
G37*
G36*
X106869D02*
X103650D01*
Y258682D01*
X104129Y258745D01*
X105042Y259123D01*
X105826Y259725D01*
X106428Y260509D01*
X106806Y261422D01*
X106869Y261901D01*
D02*
G37*
G36*
X300984Y263194D02*
X299913Y263053D01*
X298915Y262640D01*
X298057Y261982D01*
X297399Y261125D01*
X296986Y260126D01*
X296845Y259055D01*
X296986Y257984D01*
X297399Y256985D01*
X298057Y256128D01*
X298915Y255470D01*
X299913Y255057D01*
X300984Y254916D01*
X302056Y255057D01*
X303054Y255470D01*
X303911Y256128D01*
X304569Y256985D01*
X304982Y257984D01*
X305124Y259055D01*
X304982Y260126D01*
X304569Y261125D01*
X303911Y261982D01*
X303054Y262640D01*
X302056Y263053D01*
X300984Y263194D01*
D02*
G37*
G36*
X66929Y257866D02*
X66305Y257742D01*
X65776Y257388D01*
X65422Y256859D01*
X65298Y256235D01*
X65422Y255610D01*
X65776Y255081D01*
X66305Y254728D01*
X66929Y254603D01*
X67553Y254728D01*
X68083Y255081D01*
X68436Y255610D01*
X68560Y256235D01*
X68436Y256859D01*
X68083Y257388D01*
X67553Y257742D01*
X66929Y257866D01*
D02*
G37*
G36*
X130709Y256094D02*
X130084Y255970D01*
X129555Y255616D01*
X129201Y255087D01*
X129077Y254463D01*
X129201Y253839D01*
X129555Y253309D01*
X130084Y252956D01*
X130709Y252832D01*
X131333Y252956D01*
X131862Y253309D01*
X132216Y253839D01*
X132340Y254463D01*
X132216Y255087D01*
X131862Y255616D01*
X131333Y255970D01*
X130709Y256094D01*
D02*
G37*
G36*
X98353D02*
X97729Y255970D01*
X97200Y255616D01*
X96846Y255087D01*
X96722Y254463D01*
X96846Y253839D01*
X97200Y253309D01*
X97729Y252956D01*
X98353Y252832D01*
X98977Y252956D01*
X99507Y253309D01*
X99860Y253839D01*
X99985Y254463D01*
X99860Y255087D01*
X99507Y255616D01*
X98977Y255970D01*
X98353Y256094D01*
D02*
G37*
G36*
X53383D02*
X52759Y255970D01*
X52229Y255616D01*
X51876Y255087D01*
X51751Y254463D01*
X51876Y253839D01*
X52229Y253309D01*
X52759Y252956D01*
X53383Y252832D01*
X54007Y252956D01*
X54536Y253309D01*
X54890Y253839D01*
X55014Y254463D01*
X54890Y255087D01*
X54536Y255616D01*
X54007Y255970D01*
X53383Y256094D01*
D02*
G37*
G36*
X8268Y255568D02*
X7643Y255444D01*
X7114Y255090D01*
X6761Y254561D01*
X6636Y253937D01*
X6761Y253313D01*
X7114Y252783D01*
X7643Y252430D01*
X8268Y252306D01*
X8892Y252430D01*
X9421Y252783D01*
X9775Y253313D01*
X9899Y253937D01*
X9775Y254561D01*
X9421Y255090D01*
X8892Y255444D01*
X8268Y255568D01*
D02*
G37*
G36*
X33071Y257866D02*
X32447Y257742D01*
X31917Y257388D01*
X31564Y256859D01*
X31440Y256235D01*
X31564Y255610D01*
X31917Y255081D01*
X32447Y254728D01*
X32683Y254680D01*
X32900Y254127D01*
X32719Y253856D01*
X32595Y253232D01*
X32719Y252608D01*
X33073Y252078D01*
X33602Y251725D01*
X34226Y251601D01*
X34851Y251725D01*
X35380Y252078D01*
X35734Y252608D01*
X35858Y253232D01*
X35734Y253856D01*
X35380Y254385D01*
X34851Y254739D01*
X34614Y254786D01*
X34397Y255339D01*
X34578Y255610D01*
X34702Y256235D01*
X34578Y256859D01*
X34224Y257388D01*
X33695Y257742D01*
X33071Y257866D01*
D02*
G37*
G36*
X115748Y250844D02*
X115124Y250720D01*
X114594Y250366D01*
X114241Y249837D01*
X114117Y249213D01*
X114241Y248588D01*
X114594Y248059D01*
X115124Y247705D01*
X115748Y247581D01*
X116372Y247705D01*
X116902Y248059D01*
X117255Y248588D01*
X117379Y249213D01*
X117255Y249837D01*
X116902Y250366D01*
X116372Y250720D01*
X115748Y250844D01*
D02*
G37*
G36*
X207087Y249631D02*
X206462Y249507D01*
X205933Y249153D01*
X205579Y248624D01*
X205455Y248000D01*
X205579Y247376D01*
X205933Y246847D01*
X206462Y246493D01*
X207087Y246369D01*
X207711Y246493D01*
X208240Y246847D01*
X208594Y247376D01*
X208718Y248000D01*
X208594Y248624D01*
X208240Y249153D01*
X207711Y249507D01*
X207087Y249631D01*
D02*
G37*
G36*
X40000D02*
X39376Y249507D01*
X38846Y249153D01*
X38493Y248624D01*
X38369Y248000D01*
X38493Y247376D01*
X38846Y246847D01*
X39376Y246493D01*
X40000Y246369D01*
X40624Y246493D01*
X41153Y246847D01*
X41507Y247376D01*
X41631Y248000D01*
X41507Y248624D01*
X41153Y249153D01*
X40624Y249507D01*
X40000Y249631D01*
D02*
G37*
G36*
X49400Y248573D02*
X48776Y248449D01*
X48246Y248095D01*
X47893Y247566D01*
X47769Y246942D01*
X47893Y246317D01*
X48246Y245788D01*
X48776Y245434D01*
X49400Y245310D01*
X50024Y245434D01*
X50554Y245788D01*
X50907Y246317D01*
X51031Y246942D01*
X50907Y247566D01*
X50554Y248095D01*
X50024Y248449D01*
X49400Y248573D01*
D02*
G37*
G36*
X34931Y247631D02*
X34307Y247507D01*
X33778Y247153D01*
X33424Y246624D01*
X33300Y246000D01*
X33424Y245376D01*
X33778Y244847D01*
X34307Y244493D01*
X34931Y244369D01*
X35556Y244493D01*
X36085Y244847D01*
X36439Y245376D01*
X36563Y246000D01*
X36439Y246624D01*
X36085Y247153D01*
X35556Y247507D01*
X34931Y247631D01*
D02*
G37*
G36*
X52105Y245332D02*
X51481Y245208D01*
X50951Y244854D01*
X50598Y244325D01*
X50474Y243701D01*
X50598Y243076D01*
X50951Y242547D01*
X51481Y242194D01*
X52105Y242069D01*
X52729Y242194D01*
X53259Y242547D01*
X53612Y243076D01*
X53736Y243701D01*
X53612Y244325D01*
X53259Y244854D01*
X52729Y245208D01*
X52105Y245332D01*
D02*
G37*
G36*
X31638Y243631D02*
X31014Y243507D01*
X30484Y243154D01*
X30131Y242624D01*
X30007Y242000D01*
X30131Y241376D01*
X30484Y240846D01*
X31014Y240493D01*
X31638Y240369D01*
X32262Y240493D01*
X32792Y240846D01*
X33145Y241376D01*
X33269Y242000D01*
X33145Y242624D01*
X32792Y243154D01*
X32262Y243507D01*
X31638Y243631D01*
D02*
G37*
G36*
X49500Y240631D02*
X48876Y240507D01*
X48346Y240154D01*
X47993Y239624D01*
X47869Y239000D01*
X47993Y238376D01*
X48346Y237846D01*
X48876Y237493D01*
X49500Y237369D01*
X50124Y237493D01*
X50653Y237846D01*
X51007Y238376D01*
X51131Y239000D01*
X51007Y239624D01*
X50653Y240154D01*
X50124Y240507D01*
X49500Y240631D01*
D02*
G37*
G36*
X40612Y237458D02*
X39987Y237334D01*
X39458Y236980D01*
X39105Y236451D01*
X38980Y235827D01*
X39105Y235203D01*
X39458Y234673D01*
X39987Y234320D01*
X40612Y234195D01*
X41236Y234320D01*
X41765Y234673D01*
X42119Y235203D01*
X42243Y235827D01*
X42119Y236451D01*
X41765Y236980D01*
X41236Y237334D01*
X40612Y237458D01*
D02*
G37*
G36*
X170000Y236631D02*
X169376Y236507D01*
X168846Y236154D01*
X168493Y235624D01*
X168369Y235000D01*
X168493Y234376D01*
X168846Y233846D01*
X169376Y233493D01*
X170000Y233369D01*
X170624Y233493D01*
X171153Y233846D01*
X171507Y234376D01*
X171631Y235000D01*
X171507Y235624D01*
X171153Y236154D01*
X170624Y236507D01*
X170000Y236631D01*
D02*
G37*
G36*
X175300Y234899D02*
X174676Y234775D01*
X174146Y234421D01*
X173793Y233892D01*
X173669Y233268D01*
X173793Y232643D01*
X174146Y232114D01*
X174676Y231761D01*
X175300Y231636D01*
X175924Y231761D01*
X176454Y232114D01*
X176807Y232643D01*
X176931Y233268D01*
X176807Y233892D01*
X176454Y234421D01*
X175924Y234775D01*
X175300Y234899D01*
D02*
G37*
G36*
X34931Y234430D02*
X34307Y234306D01*
X33778Y233953D01*
X33424Y233423D01*
X33300Y232799D01*
X33424Y232175D01*
X33778Y231646D01*
X34307Y231292D01*
X34931Y231168D01*
X35556Y231292D01*
X36085Y231646D01*
X36439Y232175D01*
X36563Y232799D01*
X36439Y233423D01*
X36085Y233953D01*
X35556Y234306D01*
X34931Y234430D01*
D02*
G37*
G36*
X264875Y239631D02*
X264250Y239507D01*
X263721Y239154D01*
X263368Y238624D01*
X263243Y238000D01*
X263368Y237376D01*
X263721Y236846D01*
X263866Y236750D01*
Y236250D01*
X263721Y236154D01*
X263368Y235624D01*
X263243Y235000D01*
X263368Y234376D01*
X263721Y233846D01*
X263866Y233750D01*
Y233250D01*
X263721Y233154D01*
X263368Y232624D01*
X263243Y232000D01*
X263368Y231376D01*
X263721Y230847D01*
X264250Y230493D01*
X264875Y230369D01*
X265499Y230493D01*
X266028Y230847D01*
X266382Y231376D01*
X266506Y232000D01*
X266382Y232624D01*
X266028Y233154D01*
X265884Y233250D01*
Y233750D01*
X266028Y233846D01*
X266382Y234376D01*
X266506Y235000D01*
X266382Y235624D01*
X266028Y236154D01*
X265884Y236250D01*
Y236750D01*
X266028Y236846D01*
X266382Y237376D01*
X266506Y238000D01*
X266382Y238624D01*
X266028Y239154D01*
X265499Y239507D01*
X264875Y239631D01*
D02*
G37*
G36*
X268787D02*
X268162Y239507D01*
X267633Y239154D01*
X267279Y238624D01*
X267155Y238000D01*
X267279Y237376D01*
X267633Y236846D01*
X267777Y236750D01*
Y236250D01*
X267633Y236154D01*
X267279Y235624D01*
X267155Y235000D01*
X267279Y234376D01*
X267633Y233846D01*
X267777Y233750D01*
Y233250D01*
X267633Y233154D01*
X267279Y232624D01*
X267155Y232000D01*
X267279Y231376D01*
X267633Y230847D01*
X268162Y230493D01*
X268787Y230369D01*
X269411Y230493D01*
X269940Y230847D01*
X270294Y231376D01*
X270418Y232000D01*
X270294Y232624D01*
X269940Y233154D01*
X269796Y233250D01*
Y233750D01*
X269940Y233846D01*
X270294Y234376D01*
X270418Y235000D01*
X270294Y235624D01*
X269940Y236154D01*
X269796Y236250D01*
Y236750D01*
X269940Y236846D01*
X270294Y237376D01*
X270418Y238000D01*
X270294Y238624D01*
X269940Y239154D01*
X269411Y239507D01*
X268787Y239631D01*
D02*
G37*
G36*
X107656Y228403D02*
X107031Y228279D01*
X106502Y227925D01*
X106148Y227396D01*
X106024Y226772D01*
X106148Y226147D01*
X106502Y225618D01*
X107031Y225265D01*
X107656Y225140D01*
X108280Y225265D01*
X108809Y225618D01*
X109163Y226147D01*
X109287Y226772D01*
X109163Y227396D01*
X108809Y227925D01*
X108280Y228279D01*
X107656Y228403D01*
D02*
G37*
G36*
X88583Y228009D02*
X87958Y227885D01*
X87429Y227532D01*
X87076Y227002D01*
X86951Y226378D01*
X87076Y225754D01*
X87429Y225224D01*
X87958Y224871D01*
X88583Y224747D01*
X89207Y224871D01*
X89736Y225224D01*
X90090Y225754D01*
X90214Y226378D01*
X90090Y227002D01*
X89736Y227532D01*
X89207Y227885D01*
X88583Y228009D01*
D02*
G37*
G36*
X187000Y227368D02*
X186376Y227243D01*
X185846Y226890D01*
X185493Y226361D01*
X185369Y225736D01*
X185493Y225112D01*
X185846Y224583D01*
X186376Y224229D01*
X187000Y224105D01*
X187624Y224229D01*
X188154Y224583D01*
X188507Y225112D01*
X188631Y225736D01*
X188507Y226361D01*
X188154Y226890D01*
X187624Y227243D01*
X187000Y227368D01*
D02*
G37*
G36*
X111417Y226434D02*
X110793Y226310D01*
X110264Y225957D01*
X109910Y225427D01*
X109786Y224803D01*
X109910Y224179D01*
X110264Y223650D01*
X110793Y223296D01*
X111417Y223172D01*
X112042Y223296D01*
X112571Y223650D01*
X112925Y224179D01*
X113049Y224803D01*
X112925Y225427D01*
X112571Y225957D01*
X112042Y226310D01*
X111417Y226434D01*
D02*
G37*
G36*
X98207Y225559D02*
X97582Y225435D01*
X97053Y225081D01*
X96700Y224552D01*
X96575Y223928D01*
X96700Y223304D01*
X97053Y222774D01*
X97582Y222421D01*
X98207Y222297D01*
X98831Y222421D01*
X99360Y222774D01*
X99714Y223304D01*
X99838Y223928D01*
X99714Y224552D01*
X99360Y225081D01*
X98831Y225435D01*
X98207Y225559D01*
D02*
G37*
G36*
X278091Y220923D02*
X277466Y220798D01*
X276937Y220445D01*
X276684Y220066D01*
X276634Y220050D01*
X276178D01*
X276128Y220066D01*
X275875Y220445D01*
X275346Y220798D01*
X274721Y220923D01*
X274097Y220798D01*
X273568Y220445D01*
X273214Y219916D01*
X273090Y219291D01*
X273214Y218667D01*
X273568Y218138D01*
X274097Y217784D01*
X274721Y217660D01*
X275346Y217784D01*
X275875Y218138D01*
X276128Y218517D01*
X276178Y218533D01*
X276634D01*
X276684Y218517D01*
X276937Y218138D01*
X277060Y218056D01*
Y217454D01*
X276937Y217372D01*
X276583Y216843D01*
X276459Y216219D01*
X276583Y215595D01*
X276937Y215065D01*
X277466Y214712D01*
X277708Y214664D01*
Y214154D01*
X277466Y214106D01*
X276937Y213752D01*
X276583Y213223D01*
X276459Y212598D01*
X276583Y211974D01*
X276937Y211445D01*
X277466Y211091D01*
X278091Y210967D01*
X278715Y211091D01*
X279244Y211445D01*
X279598Y211974D01*
X279722Y212598D01*
X279598Y213223D01*
X279244Y213752D01*
X278715Y214106D01*
X278473Y214154D01*
Y214664D01*
X278715Y214712D01*
X279244Y215065D01*
X279598Y215595D01*
X279722Y216219D01*
X279598Y216843D01*
X279244Y217372D01*
X279121Y217454D01*
Y218056D01*
X279244Y218138D01*
X279598Y218667D01*
X279722Y219291D01*
X279598Y219916D01*
X279244Y220445D01*
X278715Y220798D01*
X278091Y220923D01*
D02*
G37*
G36*
X129134Y222498D02*
X128510Y222373D01*
X127980Y222020D01*
X127627Y221490D01*
X127503Y220866D01*
X127627Y220242D01*
X127980Y219713D01*
X128510Y219359D01*
X129134Y219235D01*
X129758Y219359D01*
X130287Y219713D01*
X130641Y220242D01*
X130765Y220866D01*
X130641Y221490D01*
X130287Y222020D01*
X129758Y222373D01*
X129134Y222498D01*
D02*
G37*
G36*
X94882D02*
X94258Y222373D01*
X93728Y222020D01*
X93375Y221490D01*
X93251Y220866D01*
X93375Y220242D01*
X93728Y219713D01*
X94258Y219359D01*
X94882Y219235D01*
X95506Y219359D01*
X96035Y219713D01*
X96389Y220242D01*
X96513Y220866D01*
X96389Y221490D01*
X96035Y222020D01*
X95506Y222373D01*
X94882Y222498D01*
D02*
G37*
G36*
X111396Y217773D02*
X110771Y217649D01*
X110242Y217295D01*
X109889Y216766D01*
X109764Y216142D01*
X109889Y215517D01*
X110242Y214988D01*
X110771Y214635D01*
X111396Y214510D01*
X112020Y214635D01*
X112549Y214988D01*
X112903Y215517D01*
X113027Y216142D01*
X112903Y216766D01*
X112549Y217295D01*
X112020Y217649D01*
X111396Y217773D01*
D02*
G37*
G36*
X77953D02*
X77328Y217649D01*
X76799Y217295D01*
X76446Y216766D01*
X76321Y216142D01*
X76446Y215517D01*
X76799Y214988D01*
X77328Y214635D01*
X77953Y214510D01*
X78577Y214635D01*
X79106Y214988D01*
X79460Y215517D01*
X79584Y216142D01*
X79460Y216766D01*
X79106Y217295D01*
X78577Y217649D01*
X77953Y217773D01*
D02*
G37*
G36*
X69860D02*
X69236Y217649D01*
X68707Y217295D01*
X68353Y216766D01*
X68229Y216142D01*
X68353Y215517D01*
X68707Y214988D01*
X69236Y214635D01*
X69860Y214510D01*
X70485Y214635D01*
X71014Y214988D01*
X71367Y215517D01*
X71492Y216142D01*
X71367Y216766D01*
X71014Y217295D01*
X70485Y217649D01*
X69860Y217773D01*
D02*
G37*
G36*
X106209Y215912D02*
X105585Y215787D01*
X105056Y215434D01*
X104702Y214904D01*
X104578Y214280D01*
X104702Y213656D01*
X105056Y213127D01*
X105585Y212773D01*
X106209Y212649D01*
X106834Y212773D01*
X107363Y213127D01*
X107717Y213656D01*
X107841Y214280D01*
X107717Y214904D01*
X107363Y215434D01*
X106834Y215787D01*
X106209Y215912D01*
D02*
G37*
G36*
X282283Y220923D02*
X281659Y220798D01*
X281130Y220445D01*
X280776Y219916D01*
X280652Y219291D01*
X280776Y218667D01*
X281130Y218138D01*
X281324Y218008D01*
Y217407D01*
X281130Y217277D01*
X280776Y216747D01*
X280652Y216123D01*
X280776Y215499D01*
X281130Y214969D01*
X281659Y214616D01*
X281660Y214616D01*
Y214106D01*
X281659Y214106D01*
X281130Y213752D01*
X280776Y213223D01*
X280652Y212598D01*
X280776Y211974D01*
X281130Y211445D01*
X281659Y211091D01*
X282283Y210967D01*
X282908Y211091D01*
X283437Y211445D01*
X283791Y211974D01*
X283915Y212598D01*
X283791Y213223D01*
X283437Y213752D01*
X282908Y214106D01*
X282907Y214106D01*
Y214616D01*
X282908Y214616D01*
X283437Y214969D01*
X283791Y215499D01*
X283915Y216123D01*
X283791Y216747D01*
X283437Y217277D01*
X283243Y217407D01*
Y218008D01*
X283437Y218138D01*
X283791Y218667D01*
X283915Y219291D01*
X283791Y219916D01*
X283437Y220445D01*
X282908Y220798D01*
X282283Y220923D01*
D02*
G37*
G36*
X65136Y213836D02*
X64512Y213712D01*
X63982Y213358D01*
X63629Y212829D01*
X63504Y212205D01*
X63629Y211580D01*
X63982Y211051D01*
X64512Y210698D01*
X65136Y210573D01*
X65760Y210698D01*
X66289Y211051D01*
X66643Y211580D01*
X66767Y212205D01*
X66643Y212829D01*
X66289Y213358D01*
X65760Y213712D01*
X65136Y213836D01*
D02*
G37*
G36*
X168407Y213344D02*
X167783Y213220D01*
X167254Y212866D01*
X166900Y212337D01*
X166776Y211713D01*
X166900Y211088D01*
X167254Y210559D01*
X167783Y210205D01*
X168407Y210081D01*
X169032Y210205D01*
X169561Y210559D01*
X169915Y211088D01*
X170039Y211713D01*
X169915Y212337D01*
X169561Y212866D01*
X169032Y213220D01*
X168407Y213344D01*
D02*
G37*
G36*
X278091Y210330D02*
X277466Y210206D01*
X276937Y209853D01*
X276684Y209473D01*
X276634Y209457D01*
X276178D01*
X276128Y209473D01*
X275875Y209853D01*
X275346Y210206D01*
X274721Y210330D01*
X274097Y210206D01*
X273568Y209853D01*
X273486Y209730D01*
X272885D01*
X272803Y209853D01*
X272274Y210206D01*
X271650Y210330D01*
X271025Y210206D01*
X270496Y209853D01*
X270142Y209323D01*
X270018Y208699D01*
X270142Y208075D01*
X270496Y207545D01*
X270705Y207406D01*
Y206805D01*
X270496Y206665D01*
X270142Y206136D01*
X270018Y205512D01*
X270142Y204888D01*
X270496Y204358D01*
X271025Y204005D01*
X271650Y203880D01*
X272274Y204005D01*
X272803Y204358D01*
X272885Y204480D01*
X273486D01*
X273568Y204358D01*
X274097Y204005D01*
X274721Y203880D01*
X275346Y204005D01*
X275875Y204358D01*
X276128Y204737D01*
X276178Y204754D01*
X276634D01*
X276684Y204737D01*
X276937Y204358D01*
X277466Y204005D01*
X278091Y203880D01*
X278715Y204005D01*
X279244Y204358D01*
X279598Y204888D01*
X279722Y205512D01*
X279598Y206136D01*
X279244Y206665D01*
X279035Y206805D01*
Y207406D01*
X279244Y207545D01*
X279598Y208075D01*
X279722Y208699D01*
X279598Y209323D01*
X279244Y209853D01*
X278715Y210206D01*
X278091Y210330D01*
D02*
G37*
G36*
X118012Y210588D02*
X117387Y210464D01*
X116858Y210110D01*
X116505Y209581D01*
X116381Y208957D01*
X116505Y208332D01*
X116858Y207803D01*
X117387Y207450D01*
X118012Y207325D01*
X118636Y207450D01*
X119165Y207803D01*
X119519Y208332D01*
X119643Y208957D01*
X119519Y209581D01*
X119165Y210110D01*
X118636Y210464D01*
X118012Y210588D01*
D02*
G37*
G36*
X227059Y210330D02*
X226435Y210206D01*
X225905Y209853D01*
X225552Y209323D01*
X225428Y208699D01*
X225552Y208075D01*
X225905Y207545D01*
X226435Y207192D01*
X227059Y207068D01*
X227683Y207192D01*
X228213Y207545D01*
X228566Y208075D01*
X228690Y208699D01*
X228566Y209323D01*
X228213Y209853D01*
X227683Y210206D01*
X227059Y210330D01*
D02*
G37*
G36*
X98353Y208631D02*
X97729Y208507D01*
X97200Y208154D01*
X96846Y207624D01*
X96722Y207000D01*
X96846Y206376D01*
X97200Y205847D01*
X97729Y205493D01*
X98353Y205369D01*
X98977Y205493D01*
X99507Y205847D01*
X99860Y206376D01*
X99985Y207000D01*
X99860Y207624D01*
X99507Y208154D01*
X98977Y208507D01*
X98353Y208631D01*
D02*
G37*
G36*
X282283Y210330D02*
X281659Y210206D01*
X281130Y209853D01*
X280776Y209323D01*
X280652Y208699D01*
X280776Y208075D01*
X281130Y207545D01*
X281339Y207406D01*
Y206805D01*
X281130Y206665D01*
X280776Y206136D01*
X280652Y205512D01*
X280776Y204888D01*
X281130Y204358D01*
X281659Y204005D01*
X282283Y203880D01*
X282908Y204005D01*
X283437Y204358D01*
X283791Y204888D01*
X283915Y205512D01*
X283791Y206136D01*
X283437Y206665D01*
X283228Y206805D01*
Y207406D01*
X283437Y207545D01*
X283791Y208075D01*
X283915Y208699D01*
X283791Y209323D01*
X283437Y209853D01*
X282908Y210206D01*
X282283Y210330D01*
D02*
G37*
G36*
X226378Y206415D02*
X225754Y206291D01*
X225224Y205937D01*
X224871Y205408D01*
X224747Y204784D01*
X224871Y204159D01*
X225224Y203630D01*
X225754Y203276D01*
X226378Y203152D01*
X227002Y203276D01*
X227532Y203630D01*
X227885Y204159D01*
X228009Y204784D01*
X227885Y205408D01*
X227532Y205937D01*
X227002Y206291D01*
X226378Y206415D01*
D02*
G37*
G36*
Y201152D02*
X225754Y201028D01*
X225224Y200674D01*
X224871Y200145D01*
X224747Y199521D01*
X224871Y198896D01*
X225224Y198367D01*
X225754Y198013D01*
X226378Y197889D01*
X227002Y198013D01*
X227532Y198367D01*
X227885Y198896D01*
X228009Y199521D01*
X227885Y200145D01*
X227532Y200674D01*
X227002Y201028D01*
X226378Y201152D01*
D02*
G37*
G36*
X231210Y200758D02*
X230586Y200634D01*
X230057Y200280D01*
X229703Y199751D01*
X229579Y199127D01*
X229703Y198503D01*
X230057Y197973D01*
X230586Y197620D01*
X231210Y197495D01*
X231835Y197620D01*
X232364Y197973D01*
X232717Y198503D01*
X232842Y199127D01*
X232717Y199751D01*
X232364Y200280D01*
X231835Y200634D01*
X231210Y200758D01*
D02*
G37*
G36*
X140645Y200631D02*
X140020Y200507D01*
X139491Y200153D01*
X139137Y199624D01*
X139013Y199000D01*
X139137Y198376D01*
X139491Y197846D01*
X140020Y197493D01*
X140645Y197369D01*
X141269Y197493D01*
X141798Y197846D01*
X142152Y198376D01*
X142276Y199000D01*
X142152Y199624D01*
X141798Y200153D01*
X141269Y200507D01*
X140645Y200631D01*
D02*
G37*
G36*
X177000Y200362D02*
X176376Y200238D01*
X175847Y199885D01*
X175493Y199355D01*
X175369Y198731D01*
X175493Y198107D01*
X175847Y197578D01*
X176376Y197224D01*
X177000Y197100D01*
X177624Y197224D01*
X178154Y197578D01*
X178507Y198107D01*
X178631Y198731D01*
X178507Y199355D01*
X178154Y199885D01*
X177624Y200238D01*
X177000Y200362D01*
D02*
G37*
G36*
X287000Y191001D02*
X286376Y190877D01*
X285846Y190524D01*
X285493Y189994D01*
X285369Y189370D01*
X285493Y188746D01*
X285846Y188217D01*
X286376Y187863D01*
X287000Y187739D01*
X287624Y187863D01*
X288154Y188217D01*
X288507Y188746D01*
X288631Y189370D01*
X288507Y189994D01*
X288154Y190524D01*
X287624Y190877D01*
X287000Y191001D01*
D02*
G37*
G36*
X200787Y191001D02*
X200163Y190877D01*
X199634Y190524D01*
X199280Y189994D01*
X199156Y189370D01*
X199280Y188746D01*
X199634Y188216D01*
X200163Y187863D01*
X200787Y187739D01*
X201412Y187863D01*
X201941Y188216D01*
X202295Y188746D01*
X202419Y189370D01*
X202295Y189994D01*
X201941Y190524D01*
X201412Y190877D01*
X200787Y191001D01*
D02*
G37*
G36*
X171153Y185415D02*
X170928Y185386D01*
X170252Y185106D01*
X169671Y184660D01*
X169327Y184212D01*
X169319Y184207D01*
X168872Y184168D01*
X168735Y184203D01*
X168494Y184517D01*
X167955Y184931D01*
X167327Y185191D01*
X166654Y185279D01*
X165980Y185191D01*
X165352Y184931D01*
X164813Y184517D01*
X164400Y183978D01*
X164140Y183351D01*
X164051Y182677D01*
X164140Y182004D01*
X164400Y181376D01*
X164813Y180837D01*
X165311Y180455D01*
X165345Y180177D01*
X165311Y179899D01*
X164813Y179517D01*
X164400Y178978D01*
X164140Y178351D01*
X164051Y177677D01*
X164140Y177004D01*
X164400Y176376D01*
X164813Y175837D01*
X165311Y175455D01*
X165345Y175177D01*
X165311Y174899D01*
X164813Y174517D01*
X164400Y173978D01*
X164140Y173351D01*
X164051Y172677D01*
X164140Y172004D01*
X164400Y171376D01*
X164813Y170837D01*
X165311Y170455D01*
X165345Y170177D01*
X165311Y169899D01*
X164813Y169517D01*
X164400Y168978D01*
X164140Y168351D01*
X164051Y167677D01*
X164140Y167004D01*
X164400Y166376D01*
X164813Y165837D01*
X165311Y165455D01*
X165345Y165177D01*
X165311Y164899D01*
X164813Y164517D01*
X164400Y163978D01*
X164140Y163351D01*
X164051Y162677D01*
X164140Y162004D01*
X164400Y161376D01*
X164813Y160837D01*
X165352Y160424D01*
X165980Y160164D01*
X166654Y160075D01*
X167327Y160164D01*
X167955Y160424D01*
X168494Y160837D01*
X168574Y160941D01*
X169074Y160772D01*
Y160097D01*
X174233D01*
Y165257D01*
X173803D01*
X173684Y165757D01*
X174082Y166275D01*
X174362Y166951D01*
X174392Y167177D01*
X171653D01*
Y168177D01*
X174392D01*
X174362Y168403D01*
X174082Y169079D01*
X173636Y169660D01*
X173373Y169862D01*
Y170492D01*
X173636Y170694D01*
X174082Y171275D01*
X174362Y171951D01*
X174392Y172177D01*
X171653D01*
Y173177D01*
X174392D01*
X174362Y173403D01*
X174082Y174079D01*
X173636Y174660D01*
X173188Y175004D01*
X173184Y175012D01*
X173145Y175459D01*
X173179Y175596D01*
X173494Y175837D01*
X173907Y176376D01*
X174167Y177004D01*
X174256Y177677D01*
X174167Y178351D01*
X173907Y178978D01*
X173494Y179517D01*
X173179Y179759D01*
X173145Y179895D01*
X173184Y180343D01*
X173188Y180351D01*
X173636Y180694D01*
X174082Y181275D01*
X174362Y181951D01*
X174392Y182177D01*
X171653D01*
Y182677D01*
X171153D01*
Y185415D01*
D02*
G37*
G36*
X172153D02*
Y183177D01*
X174392D01*
X174362Y183403D01*
X174082Y184079D01*
X173636Y184660D01*
X173056Y185106D01*
X172379Y185386D01*
X172153Y185415D01*
D02*
G37*
G36*
X136000Y185631D02*
X135376Y185507D01*
X134846Y185153D01*
X134493Y184624D01*
X134369Y184000D01*
X134493Y183376D01*
X134846Y182846D01*
X135376Y182493D01*
X136000Y182369D01*
X136624Y182493D01*
X137153Y182846D01*
X137507Y183376D01*
X137631Y184000D01*
X137507Y184624D01*
X137153Y185153D01*
X136624Y185507D01*
X136000Y185631D01*
D02*
G37*
G36*
X119000Y181631D02*
X118376Y181507D01*
X117847Y181154D01*
X117493Y180624D01*
X117369Y180000D01*
X117493Y179376D01*
X117847Y178847D01*
X118376Y178493D01*
X119000Y178369D01*
X119624Y178493D01*
X120153Y178847D01*
X120507Y179376D01*
X120631Y180000D01*
X120507Y180624D01*
X120153Y181154D01*
X119624Y181507D01*
X119000Y181631D01*
D02*
G37*
G36*
X161024Y179308D02*
X160399Y179184D01*
X159870Y178831D01*
X159517Y178302D01*
X159392Y177677D01*
X159517Y177053D01*
X159870Y176524D01*
X160399Y176170D01*
X161024Y176046D01*
X161648Y176170D01*
X162177Y176524D01*
X162531Y177053D01*
X162655Y177677D01*
X162531Y178302D01*
X162177Y178831D01*
X161648Y179184D01*
X161024Y179308D01*
D02*
G37*
G36*
X142519D02*
X141895Y179184D01*
X141366Y178831D01*
X141012Y178302D01*
X140888Y177677D01*
X141012Y177053D01*
X141366Y176524D01*
X141648Y176335D01*
X141864Y176045D01*
X141776Y175694D01*
X141587Y175412D01*
X141463Y174787D01*
X141587Y174163D01*
X141941Y173634D01*
X142470Y173280D01*
X143095Y173156D01*
X143719Y173280D01*
X144248Y173634D01*
X144602Y174163D01*
X144726Y174787D01*
X144602Y175412D01*
X144248Y175941D01*
X143965Y176130D01*
X143750Y176420D01*
X143838Y176770D01*
X144027Y177053D01*
X144151Y177677D01*
X144027Y178302D01*
X143673Y178831D01*
X143144Y179184D01*
X142519Y179308D01*
D02*
G37*
G36*
X292126Y175942D02*
X291502Y175818D01*
X290972Y175465D01*
X290619Y174935D01*
X290495Y174311D01*
X290619Y173687D01*
X290972Y173158D01*
X291502Y172804D01*
X292126Y172680D01*
X292750Y172804D01*
X293280Y173158D01*
X293633Y173687D01*
X293757Y174311D01*
X293633Y174935D01*
X293280Y175465D01*
X292750Y175818D01*
X292126Y175942D01*
D02*
G37*
G36*
X195276Y175352D02*
X194651Y175228D01*
X194122Y174874D01*
X193768Y174345D01*
X193644Y173721D01*
X193768Y173096D01*
X194122Y172567D01*
X194651Y172213D01*
X195276Y172089D01*
X195900Y172213D01*
X196429Y172567D01*
X196783Y173096D01*
X196907Y173721D01*
X196783Y174345D01*
X196429Y174874D01*
X195900Y175228D01*
X195276Y175352D01*
D02*
G37*
G36*
X158978Y174373D02*
X158354Y174249D01*
X157825Y173896D01*
X157471Y173366D01*
X157347Y172742D01*
X157471Y172118D01*
X157825Y171589D01*
X158354Y171235D01*
X158978Y171111D01*
X159603Y171235D01*
X160132Y171589D01*
X160485Y172118D01*
X160610Y172742D01*
X160485Y173366D01*
X160132Y173896D01*
X159603Y174249D01*
X158978Y174373D01*
D02*
G37*
G36*
X303946Y180620D02*
X298810D01*
Y175483D01*
X299404D01*
X299573Y174983D01*
X299546Y174962D01*
X299134Y174425D01*
X298876Y173800D01*
X298787Y173130D01*
X298876Y172459D01*
X299134Y171835D01*
X299546Y171298D01*
X300083Y170886D01*
X300708Y170627D01*
X301378Y170539D01*
X302048Y170627D01*
X302673Y170886D01*
X303210Y171298D01*
X303622Y171835D01*
X303880Y172459D01*
X303969Y173130D01*
X303880Y173800D01*
X303622Y174425D01*
X303210Y174962D01*
X303183Y174983D01*
X303352Y175483D01*
X303946D01*
Y180620D01*
D02*
G37*
G36*
X153150Y171694D02*
X152525Y171570D01*
X151996Y171216D01*
X151642Y170687D01*
X151518Y170063D01*
X151642Y169439D01*
X151996Y168909D01*
X152525Y168556D01*
X153150Y168432D01*
X153774Y168556D01*
X154303Y168909D01*
X154657Y169439D01*
X154781Y170063D01*
X154657Y170687D01*
X154303Y171216D01*
X153774Y171570D01*
X153150Y171694D01*
D02*
G37*
G36*
X182450Y168224D02*
X181826Y168100D01*
X181297Y167746D01*
X180943Y167217D01*
X180819Y166593D01*
X180943Y165969D01*
X181297Y165439D01*
X181826Y165086D01*
X182450Y164962D01*
X183074Y165086D01*
X183604Y165439D01*
X183957Y165969D01*
X184081Y166593D01*
X183957Y167217D01*
X183604Y167746D01*
X183074Y168100D01*
X182450Y168224D01*
D02*
G37*
G36*
X143110Y166986D02*
X142486Y166861D01*
X141957Y166508D01*
X141603Y165979D01*
X141479Y165354D01*
X141603Y164730D01*
X141957Y164201D01*
X142486Y163847D01*
X143110Y163723D01*
X143735Y163847D01*
X144264Y164201D01*
X144617Y164730D01*
X144742Y165354D01*
X144617Y165979D01*
X144264Y166508D01*
X143735Y166861D01*
X143110Y166986D01*
D02*
G37*
G36*
X79528Y165631D02*
X78903Y165507D01*
X78374Y165154D01*
X78020Y164624D01*
X77896Y164000D01*
X78020Y163376D01*
X78374Y162847D01*
X78903Y162493D01*
X79528Y162369D01*
X80152Y162493D01*
X80681Y162847D01*
X81035Y163376D01*
X81159Y164000D01*
X81035Y164624D01*
X80681Y165154D01*
X80152Y165507D01*
X79528Y165631D01*
D02*
G37*
G36*
X161024Y164309D02*
X160399Y164184D01*
X159870Y163831D01*
X159517Y163302D01*
X159392Y162677D01*
X159517Y162053D01*
X159870Y161524D01*
X160399Y161170D01*
X161024Y161046D01*
X161648Y161170D01*
X162177Y161524D01*
X162531Y162053D01*
X162655Y162677D01*
X162531Y163302D01*
X162177Y163831D01*
X161648Y164184D01*
X161024Y164309D01*
D02*
G37*
G36*
X69860Y162562D02*
X69236Y162438D01*
X68707Y162085D01*
X68353Y161555D01*
X68229Y160931D01*
X68353Y160307D01*
X68707Y159778D01*
X69236Y159424D01*
X69860Y159300D01*
X70485Y159424D01*
X71014Y159778D01*
X71367Y160307D01*
X71492Y160931D01*
X71367Y161555D01*
X71014Y162085D01*
X70485Y162438D01*
X69860Y162562D01*
D02*
G37*
G36*
X84034Y158631D02*
X83409Y158507D01*
X82880Y158153D01*
X82526Y157624D01*
X82402Y157000D01*
X82526Y156376D01*
X82880Y155847D01*
X83409Y155493D01*
X84034Y155369D01*
X84658Y155493D01*
X85187Y155847D01*
X85541Y156376D01*
X85665Y157000D01*
X85541Y157624D01*
X85187Y158153D01*
X84658Y158507D01*
X84034Y158631D01*
D02*
G37*
G36*
X192520Y157521D02*
X191895Y157397D01*
X191366Y157043D01*
X191013Y156514D01*
X190888Y155890D01*
X191013Y155265D01*
X191366Y154736D01*
X191895Y154383D01*
X192520Y154258D01*
X193144Y154383D01*
X193673Y154736D01*
X194027Y155265D01*
X194151Y155890D01*
X194027Y156514D01*
X193673Y157043D01*
X193144Y157397D01*
X192520Y157521D01*
D02*
G37*
G36*
X200787Y151631D02*
X200163Y151507D01*
X199634Y151154D01*
X199280Y150624D01*
X199156Y150000D01*
X199280Y149376D01*
X199634Y148846D01*
X200163Y148493D01*
X200787Y148369D01*
X201412Y148493D01*
X201941Y148846D01*
X202295Y149376D01*
X202419Y150000D01*
X202295Y150624D01*
X201941Y151154D01*
X201412Y151507D01*
X200787Y151631D01*
D02*
G37*
G36*
X227559Y142576D02*
X226935Y142452D01*
X226406Y142098D01*
X226052Y141569D01*
X225928Y140945D01*
X226052Y140321D01*
X226406Y139791D01*
X226935Y139438D01*
X227559Y139313D01*
X228183Y139438D01*
X228713Y139791D01*
X229066Y140321D01*
X229190Y140945D01*
X229066Y141569D01*
X228713Y142098D01*
X228183Y142452D01*
X227559Y142576D01*
D02*
G37*
G36*
X132000Y141614D02*
X131376Y141490D01*
X130847Y141136D01*
X130493Y140607D01*
X130369Y139982D01*
X130493Y139358D01*
X130847Y138829D01*
X131376Y138475D01*
X132000Y138351D01*
X132624Y138475D01*
X133153Y138829D01*
X133507Y139358D01*
X133631Y139982D01*
X133507Y140607D01*
X133153Y141136D01*
X132624Y141490D01*
X132000Y141614D01*
D02*
G37*
G36*
X168407Y139427D02*
X167783Y139302D01*
X167254Y138949D01*
X166900Y138420D01*
X166776Y137795D01*
X166900Y137171D01*
X167254Y136642D01*
X167783Y136288D01*
X168407Y136164D01*
X169032Y136288D01*
X169561Y136642D01*
X169915Y137171D01*
X170039Y137795D01*
X169915Y138420D01*
X169561Y138949D01*
X169032Y139302D01*
X168407Y139427D01*
D02*
G37*
G36*
X132000Y137631D02*
X131376Y137507D01*
X130847Y137153D01*
X130493Y136624D01*
X130369Y136000D01*
X130493Y135376D01*
X130847Y134846D01*
X131376Y134493D01*
X132000Y134369D01*
X132624Y134493D01*
X133153Y134846D01*
X133507Y135376D01*
X133631Y136000D01*
X133507Y136624D01*
X133153Y137153D01*
X132624Y137507D01*
X132000Y137631D01*
D02*
G37*
G36*
X192520Y136299D02*
X191895Y136174D01*
X191366Y135821D01*
X191013Y135292D01*
X190888Y134667D01*
X191013Y134043D01*
X191366Y133514D01*
X191895Y133160D01*
X192520Y133036D01*
X193144Y133160D01*
X193673Y133514D01*
X194027Y134043D01*
X194151Y134667D01*
X194027Y135292D01*
X193673Y135821D01*
X193144Y136174D01*
X192520Y136299D01*
D02*
G37*
G36*
X148000Y135631D02*
X147376Y135507D01*
X146846Y135153D01*
X146493Y134624D01*
X146369Y134000D01*
X146493Y133376D01*
X146846Y132846D01*
X147376Y132493D01*
X148000Y132369D01*
X148624Y132493D01*
X149153Y132846D01*
X149507Y133376D01*
X149631Y134000D01*
X149507Y134624D01*
X149153Y135153D01*
X148624Y135507D01*
X148000Y135631D01*
D02*
G37*
G36*
X48945Y131576D02*
X48321Y131452D01*
X47791Y131098D01*
X47438Y130569D01*
X47313Y129945D01*
X47438Y129321D01*
X47791Y128791D01*
X48321Y128438D01*
X48945Y128314D01*
X49569Y128438D01*
X50098Y128791D01*
X50452Y129321D01*
X50576Y129945D01*
X50452Y130569D01*
X50098Y131098D01*
X49569Y131452D01*
X48945Y131576D01*
D02*
G37*
G36*
X66929Y129631D02*
X66305Y129507D01*
X65776Y129154D01*
X65422Y128624D01*
X65298Y128000D01*
X65422Y127376D01*
X65776Y126847D01*
X66305Y126493D01*
X66929Y126369D01*
X67553Y126493D01*
X68083Y126847D01*
X68436Y127376D01*
X68560Y128000D01*
X68436Y128624D01*
X68083Y129154D01*
X67553Y129507D01*
X66929Y129631D01*
D02*
G37*
G36*
X205512Y124072D02*
X204888Y123948D01*
X204358Y123594D01*
X204005Y123065D01*
X203881Y122441D01*
X204005Y121817D01*
X204358Y121287D01*
X204888Y120934D01*
X205512Y120810D01*
X206136Y120934D01*
X206665Y121287D01*
X207019Y121817D01*
X207143Y122441D01*
X207019Y123065D01*
X206665Y123594D01*
X206136Y123948D01*
X205512Y124072D01*
D02*
G37*
G36*
X180000D02*
X179376Y123948D01*
X178847Y123594D01*
X178493Y123065D01*
X178369Y122441D01*
X178493Y121817D01*
X178847Y121287D01*
X179376Y120934D01*
X180000Y120810D01*
X180624Y120934D01*
X181154Y121287D01*
X181507Y121817D01*
X181631Y122441D01*
X181507Y123065D01*
X181154Y123594D01*
X180624Y123948D01*
X180000Y124072D01*
D02*
G37*
G36*
X136000D02*
X135376Y123948D01*
X134846Y123594D01*
X134493Y123065D01*
X134369Y122441D01*
X134493Y121817D01*
X134846Y121287D01*
X135376Y120934D01*
X136000Y120810D01*
X136624Y120934D01*
X137153Y121287D01*
X137507Y121817D01*
X137631Y122441D01*
X137507Y123065D01*
X137153Y123594D01*
X136624Y123948D01*
X136000Y124072D01*
D02*
G37*
G36*
X208000Y120923D02*
X207376Y120799D01*
X206846Y120445D01*
X206493Y119916D01*
X206369Y119291D01*
X206493Y118667D01*
X206846Y118138D01*
X207376Y117784D01*
X208000Y117660D01*
X208624Y117784D01*
X209154Y118138D01*
X209507Y118667D01*
X209631Y119291D01*
X209507Y119916D01*
X209154Y120445D01*
X208624Y120799D01*
X208000Y120923D01*
D02*
G37*
G36*
X79528Y119566D02*
X78903Y119442D01*
X78374Y119089D01*
X78020Y118559D01*
X77896Y117935D01*
X78020Y117311D01*
X78374Y116781D01*
X78903Y116428D01*
X79528Y116304D01*
X80152Y116428D01*
X80681Y116781D01*
X81035Y117311D01*
X81159Y117935D01*
X81035Y118559D01*
X80681Y119089D01*
X80152Y119442D01*
X79528Y119566D01*
D02*
G37*
G36*
X210700Y117631D02*
X210076Y117507D01*
X209546Y117154D01*
X209193Y116624D01*
X209069Y116000D01*
X209193Y115376D01*
X209546Y114847D01*
X210076Y114493D01*
X210700Y114369D01*
X211324Y114493D01*
X211854Y114847D01*
X212207Y115376D01*
X212331Y116000D01*
X212207Y116624D01*
X211854Y117154D01*
X211324Y117507D01*
X210700Y117631D01*
D02*
G37*
G36*
X148788Y116702D02*
X148164Y116578D01*
X147635Y116224D01*
X147281Y115695D01*
X147157Y115071D01*
X147281Y114447D01*
X147635Y113917D01*
X148164Y113564D01*
X148788Y113440D01*
X149412Y113564D01*
X149942Y113917D01*
X150295Y114447D01*
X150419Y115071D01*
X150295Y115695D01*
X149942Y116224D01*
X149412Y116578D01*
X148788Y116702D01*
D02*
G37*
G36*
X66929D02*
X66305Y116578D01*
X65776Y116224D01*
X65422Y115695D01*
X65298Y115071D01*
X65422Y114447D01*
X65776Y113917D01*
X66305Y113564D01*
X66929Y113440D01*
X67553Y113564D01*
X68083Y113917D01*
X68436Y114447D01*
X68560Y115071D01*
X68436Y115695D01*
X68083Y116224D01*
X67553Y116578D01*
X66929Y116702D01*
D02*
G37*
G36*
X110517Y113836D02*
X109893Y113712D01*
X109363Y113358D01*
X109010Y112829D01*
X108886Y112205D01*
X109010Y111580D01*
X109363Y111051D01*
X109893Y110698D01*
X110517Y110573D01*
X111141Y110698D01*
X111670Y111051D01*
X112024Y111580D01*
X112148Y112205D01*
X112024Y112829D01*
X111670Y113358D01*
X111141Y113712D01*
X110517Y113836D01*
D02*
G37*
G36*
X86614Y108718D02*
X85990Y108594D01*
X85461Y108240D01*
X85107Y107711D01*
X84983Y107087D01*
X85107Y106462D01*
X85461Y105933D01*
X85990Y105579D01*
X86614Y105455D01*
X87239Y105579D01*
X87768Y105933D01*
X88121Y106462D01*
X88245Y107087D01*
X88121Y107711D01*
X87768Y108240D01*
X87239Y108594D01*
X86614Y108718D01*
D02*
G37*
G36*
X138189Y108324D02*
X137565Y108200D01*
X137035Y107846D01*
X136682Y107317D01*
X136558Y106693D01*
X136682Y106069D01*
X137035Y105539D01*
X137565Y105186D01*
X137897Y105120D01*
X137989Y105101D01*
Y104592D01*
X137897Y104573D01*
X137565Y104507D01*
X137035Y104154D01*
X136682Y103624D01*
X136558Y103000D01*
X136682Y102376D01*
X137035Y101847D01*
X137565Y101493D01*
X138189Y101369D01*
X138813Y101493D01*
X139342Y101847D01*
X139696Y102376D01*
X139820Y103000D01*
X139696Y103624D01*
X139342Y104154D01*
X138813Y104507D01*
X138481Y104573D01*
X138389Y104592D01*
Y105101D01*
X138481Y105120D01*
X138813Y105186D01*
X139342Y105539D01*
X139696Y106069D01*
X139820Y106693D01*
X139696Y107317D01*
X139342Y107846D01*
X138813Y108200D01*
X138189Y108324D01*
D02*
G37*
G36*
X106000Y104631D02*
X105376Y104507D01*
X104847Y104154D01*
X104493Y103624D01*
X104369Y103000D01*
X104493Y102376D01*
X104847Y101847D01*
X105376Y101493D01*
X106000Y101369D01*
X106624Y101493D01*
X107153Y101847D01*
X107507Y102376D01*
X107631Y103000D01*
X107507Y103624D01*
X107153Y104154D01*
X106624Y104507D01*
X106000Y104631D01*
D02*
G37*
G36*
X58268D02*
X57643Y104507D01*
X57114Y104154D01*
X56761Y103624D01*
X56636Y103000D01*
X56761Y102376D01*
X57114Y101847D01*
X57643Y101493D01*
X58268Y101369D01*
X58892Y101493D01*
X59421Y101847D01*
X59775Y102376D01*
X59899Y103000D01*
X59775Y103624D01*
X59421Y104154D01*
X58892Y104507D01*
X58268Y104631D01*
D02*
G37*
G36*
X97120Y99631D02*
X96495Y99507D01*
X95966Y99154D01*
X95613Y98624D01*
X95488Y98000D01*
X95613Y97376D01*
X95966Y96846D01*
X96495Y96493D01*
X97120Y96369D01*
X97744Y96493D01*
X98273Y96846D01*
X98627Y97376D01*
X98751Y98000D01*
X98627Y98624D01*
X98273Y99154D01*
X97744Y99507D01*
X97120Y99631D01*
D02*
G37*
G36*
X74585Y96119D02*
X73960Y95995D01*
X73431Y95642D01*
X73077Y95113D01*
X72953Y94488D01*
X73077Y93864D01*
X73431Y93335D01*
X73960Y92981D01*
X74585Y92857D01*
X75209Y92981D01*
X75738Y93335D01*
X76092Y93864D01*
X76216Y94488D01*
X76092Y95113D01*
X75738Y95642D01*
X75209Y95995D01*
X74585Y96119D01*
D02*
G37*
G36*
X149458Y94840D02*
X148834Y94716D01*
X148305Y94362D01*
X147951Y93833D01*
X147827Y93209D01*
X147951Y92584D01*
X148305Y92055D01*
X148834Y91702D01*
X149458Y91577D01*
X150083Y91702D01*
X150612Y92055D01*
X150965Y92584D01*
X151090Y93209D01*
X150965Y93833D01*
X150612Y94362D01*
X150083Y94716D01*
X149458Y94840D01*
D02*
G37*
G36*
X50894Y80688D02*
Y75500D01*
X54179D01*
Y76968D01*
X54050Y77948D01*
X53672Y78861D01*
X53070Y79645D01*
X52286Y80247D01*
X51373Y80625D01*
X50894Y80688D01*
D02*
G37*
G36*
X49894D02*
X49414Y80625D01*
X48501Y80247D01*
X47717Y79645D01*
X47116Y78861D01*
X46738Y77948D01*
X46609Y76968D01*
Y75500D01*
X49894D01*
Y80688D01*
D02*
G37*
G36*
X66142Y80552D02*
X65214Y80430D01*
X64350Y80072D01*
X63608Y79502D01*
X63038Y78760D01*
X62680Y77896D01*
X62558Y76968D01*
Y73032D01*
X62680Y72104D01*
X63038Y71240D01*
X63608Y70498D01*
X64350Y69928D01*
X65214Y69570D01*
X66142Y69448D01*
X67069Y69570D01*
X67933Y69928D01*
X68676Y70498D01*
X69245Y71240D01*
X69603Y72104D01*
X69725Y73032D01*
Y76968D01*
X69603Y77896D01*
X69245Y78760D01*
X68676Y79502D01*
X67933Y80072D01*
X67069Y80430D01*
X66142Y80552D01*
D02*
G37*
G36*
X58268D02*
X57340Y80430D01*
X56476Y80072D01*
X55734Y79502D01*
X55164Y78760D01*
X54806Y77896D01*
X54684Y76968D01*
Y73032D01*
X54806Y72104D01*
X55164Y71240D01*
X55734Y70498D01*
X56476Y69928D01*
X57340Y69570D01*
X58268Y69448D01*
X59195Y69570D01*
X60059Y69928D01*
X60802Y70498D01*
X61371Y71240D01*
X61729Y72104D01*
X61851Y73032D01*
Y76968D01*
X61729Y77896D01*
X61371Y78760D01*
X60802Y79502D01*
X60059Y80072D01*
X59195Y80430D01*
X58268Y80552D01*
D02*
G37*
G36*
X49894Y74500D02*
X46609D01*
Y73032D01*
X46738Y72052D01*
X47116Y71139D01*
X47717Y70355D01*
X48501Y69753D01*
X49414Y69375D01*
X49894Y69312D01*
Y74500D01*
D02*
G37*
G36*
X54179D02*
X50894D01*
Y69312D01*
X51373Y69375D01*
X52286Y69753D01*
X53070Y70355D01*
X53672Y71139D01*
X54050Y72052D01*
X54179Y73032D01*
Y74500D01*
D02*
G37*
G36*
X223000Y64631D02*
X222376Y64507D01*
X221847Y64153D01*
X221493Y63624D01*
X221369Y63000D01*
X221493Y62376D01*
X221847Y61847D01*
X222376Y61493D01*
X223000Y61369D01*
X223624Y61493D01*
X224153Y61847D01*
X224507Y62376D01*
X224631Y63000D01*
X224507Y63624D01*
X224153Y64153D01*
X223624Y64507D01*
X223000Y64631D01*
D02*
G37*
G36*
X145543Y63245D02*
X144919Y63121D01*
X144390Y62767D01*
X144036Y62238D01*
X143912Y61613D01*
X144036Y60989D01*
X144390Y60460D01*
X144919Y60106D01*
X145543Y59982D01*
X146168Y60106D01*
X146697Y60460D01*
X147050Y60989D01*
X147175Y61613D01*
X147050Y62238D01*
X146697Y62767D01*
X146168Y63121D01*
X145543Y63245D01*
D02*
G37*
G36*
X180000Y55631D02*
X179376Y55507D01*
X178847Y55154D01*
X178493Y54624D01*
X178369Y54000D01*
X178493Y53376D01*
X178847Y52846D01*
X179376Y52493D01*
X180000Y52369D01*
X180624Y52493D01*
X181154Y52846D01*
X181507Y53376D01*
X181631Y54000D01*
X181507Y54624D01*
X181154Y55154D01*
X180624Y55507D01*
X180000Y55631D01*
D02*
G37*
G36*
X165000Y50450D02*
X164376Y50326D01*
X163847Y49972D01*
X163493Y49443D01*
X163369Y48819D01*
X163493Y48195D01*
X163847Y47665D01*
X164376Y47312D01*
X165000Y47188D01*
X165624Y47312D01*
X166154Y47665D01*
X166507Y48195D01*
X166631Y48819D01*
X166507Y49443D01*
X166154Y49972D01*
X165624Y50326D01*
X165000Y50450D01*
D02*
G37*
G36*
X94784Y52402D02*
X90847D01*
X89919Y52280D01*
X89055Y51922D01*
X88313Y51353D01*
X87743Y50611D01*
X87385Y49746D01*
X87263Y48819D01*
X87385Y47891D01*
X87743Y47027D01*
X88313Y46285D01*
X89055Y45716D01*
X89919Y45358D01*
X90847Y45235D01*
X94784D01*
X95711Y45358D01*
X96575Y45716D01*
X97317Y46285D01*
X97887Y47027D01*
X98245Y47891D01*
X98367Y48819D01*
X98245Y49746D01*
X97887Y50611D01*
X97317Y51353D01*
X96575Y51922D01*
X95711Y52280D01*
X94784Y52402D01*
D02*
G37*
G36*
X197000Y46631D02*
X196376Y46507D01*
X195846Y46154D01*
X195493Y45624D01*
X195369Y45000D01*
X195493Y44376D01*
X195846Y43846D01*
X196376Y43493D01*
X197000Y43369D01*
X197624Y43493D01*
X198153Y43846D01*
X198507Y44376D01*
X198631Y45000D01*
X198507Y45624D01*
X198153Y46154D01*
X197624Y46507D01*
X197000Y46631D01*
D02*
G37*
G36*
X167717Y42576D02*
X167092Y42452D01*
X166563Y42098D01*
X166209Y41569D01*
X166085Y40945D01*
X166209Y40321D01*
X166563Y39791D01*
X167092Y39438D01*
X167717Y39314D01*
X168341Y39438D01*
X168870Y39791D01*
X169224Y40321D01*
X169348Y40945D01*
X169224Y41569D01*
X168870Y42098D01*
X168341Y42452D01*
X167717Y42576D01*
D02*
G37*
G36*
X94784Y44528D02*
X90847D01*
X89919Y44406D01*
X89055Y44048D01*
X88313Y43479D01*
X87743Y42737D01*
X87385Y41872D01*
X87263Y40945D01*
X87385Y40017D01*
X87743Y39153D01*
X88313Y38411D01*
X89055Y37842D01*
X89919Y37484D01*
X90847Y37361D01*
X94784D01*
X95711Y37484D01*
X96575Y37842D01*
X97317Y38411D01*
X97887Y39153D01*
X98245Y40017D01*
X98367Y40945D01*
X98245Y41872D01*
X97887Y42737D01*
X97317Y43479D01*
X96575Y44048D01*
X95711Y44406D01*
X94784Y44528D01*
D02*
G37*
G36*
Y36856D02*
X93315D01*
Y33571D01*
X98503D01*
X98440Y34051D01*
X98062Y34963D01*
X97460Y35747D01*
X96676Y36349D01*
X95763Y36727D01*
X94784Y36856D01*
D02*
G37*
G36*
X92315D02*
X90847D01*
X89867Y36727D01*
X88954Y36349D01*
X88170Y35747D01*
X87568Y34963D01*
X87190Y34051D01*
X87127Y33571D01*
X92315D01*
Y36856D01*
D02*
G37*
G36*
X194000Y36277D02*
X193376Y36153D01*
X192847Y35799D01*
X192493Y35270D01*
X192369Y34646D01*
X192493Y34021D01*
X192847Y33492D01*
X193376Y33138D01*
X194000Y33014D01*
X194624Y33138D01*
X195153Y33492D01*
X195507Y34021D01*
X195631Y34646D01*
X195507Y35270D01*
X195153Y35799D01*
X194624Y36153D01*
X194000Y36277D01*
D02*
G37*
G36*
X98503Y32571D02*
X93315D01*
Y29286D01*
X94784D01*
X95763Y29415D01*
X96676Y29793D01*
X97460Y30394D01*
X98062Y31178D01*
X98440Y32091D01*
X98503Y32571D01*
D02*
G37*
G36*
X92315D02*
X87127D01*
X87190Y32091D01*
X87568Y31178D01*
X88170Y30394D01*
X88954Y29793D01*
X89867Y29415D01*
X90847Y29286D01*
X92315D01*
Y32571D01*
D02*
G37*
G36*
X134547Y30631D02*
X133923Y30507D01*
X133394Y30154D01*
X133040Y29624D01*
X132916Y29000D01*
X133040Y28376D01*
X133394Y27847D01*
X133923Y27493D01*
X134547Y27369D01*
X135171Y27493D01*
X135701Y27847D01*
X136054Y28376D01*
X136179Y29000D01*
X136054Y29624D01*
X135701Y30154D01*
X135171Y30507D01*
X134547Y30631D01*
D02*
G37*
%LPD*%
D118*
X171653Y182677D02*
D03*
Y172677D02*
D03*
Y167677D02*
D03*
D120*
X92815Y33071D02*
D03*
D121*
X50394Y75000D02*
D03*
D122*
X103150Y262402D02*
D03*
X102756Y290002D02*
D03*
D125*
X238000Y200476D02*
D03*
X239000Y193772D02*
D03*
X121829Y143877D02*
D03*
X108000D02*
D03*
X32123D02*
D03*
X32065Y205689D02*
D03*
X127502Y228740D02*
D03*
X108000Y161000D02*
D03*
X57086Y165354D02*
D03*
X272150Y200679D02*
D03*
X286306Y294015D02*
D03*
X246000Y183000D02*
D03*
X212992Y248000D02*
D03*
X111396Y237795D02*
D03*
X37900Y245163D02*
D03*
X140775Y182677D02*
D03*
X140157Y204283D02*
D03*
X42488Y246063D02*
D03*
X63000Y243701D02*
D03*
X294000Y177000D02*
D03*
X178528Y127696D02*
D03*
X194628Y297450D02*
D03*
X167717Y84744D02*
D03*
X144122Y47000D02*
D03*
X138189Y13000D02*
D03*
X74585Y210630D02*
D03*
X106000Y58000D02*
D03*
Y25197D02*
D03*
X123228Y208957D02*
D03*
X142000Y95550D02*
D03*
X44000Y83000D02*
D03*
X41000Y102000D02*
D03*
X147872Y151165D02*
D03*
X74585Y155890D02*
D03*
X175886Y174803D02*
D03*
X236055Y265913D02*
D03*
X220866Y294390D02*
D03*
X141339Y267323D02*
D03*
X143000Y308000D02*
D03*
X181362Y297390D02*
D03*
X219783Y156693D02*
D03*
X122350Y262402D02*
D03*
X117572Y290441D02*
D03*
X56500Y287992D02*
D03*
X66601Y296126D02*
D03*
X7881Y267323D02*
D03*
X6693Y231102D02*
D03*
X298819Y147244D02*
D03*
X41517Y258892D02*
D03*
Y255349D02*
D03*
Y251805D02*
D03*
X45454D02*
D03*
Y255349D02*
D03*
Y258892D02*
D03*
M02*
