G04*
G04 #@! TF.GenerationSoftware,Altium Limited,Altium Designer,21.1.1 (26)*
G04*
G04 Layer_Physical_Order=3*
G04 Layer_Color=16440176*
%FSLAX25Y25*%
%MOIN*%
G70*
G04*
G04 #@! TF.SameCoordinates,BA33E46C-C8C0-473A-8748-ADA81A7699FD*
G04*
G04*
G04 #@! TF.FilePolarity,Positive*
G04*
G01*
G75*
%ADD119R,0.03960X0.03960*%
%ADD125C,0.02000*%
G36*
X270650Y243000D02*
X271000Y242855D01*
Y228000D01*
X242264D01*
X239000Y224736D01*
Y202288D01*
X238500Y202008D01*
X238000Y202108D01*
X237376Y201983D01*
X236846Y201630D01*
X236493Y201101D01*
X236369Y200476D01*
X236493Y199852D01*
X236846Y199323D01*
X236984Y199231D01*
X236832Y198731D01*
X221500D01*
Y215000D01*
X231000Y224500D01*
Y243000D01*
X270650D01*
D02*
G37*
G36*
X115771Y310557D02*
X117273Y309055D01*
X141262D01*
X141358Y308876D01*
X141479Y308555D01*
X141369Y308000D01*
X141493Y307376D01*
X141847Y306846D01*
X142376Y306493D01*
X143000Y306369D01*
X143624Y306493D01*
X144153Y306846D01*
X144507Y307376D01*
X144631Y308000D01*
X144521Y308555D01*
X144642Y308876D01*
X144738Y309055D01*
X202000D01*
Y302000D01*
X237000D01*
Y269899D01*
X236055Y268954D01*
X218911D01*
X218087Y208950D01*
X218880Y208955D01*
X219235Y208602D01*
Y185631D01*
X239631D01*
X253355Y199355D01*
X267000D01*
Y223003D01*
X267462Y223194D01*
X269656Y221000D01*
X291000D01*
Y196000D01*
X296000Y191000D01*
Y177710D01*
X295507Y177624D01*
X295153Y178154D01*
X294624Y178507D01*
X294000Y178631D01*
X293376Y178507D01*
X292846Y178154D01*
X292493Y177624D01*
X292369Y177000D01*
X292493Y176376D01*
X292190Y175930D01*
X292126Y175942D01*
X291502Y175818D01*
X290972Y175465D01*
X290619Y174935D01*
X290495Y174311D01*
X290619Y173687D01*
X290972Y173158D01*
X291502Y172804D01*
X292126Y172680D01*
X292750Y172804D01*
X293280Y173158D01*
X293633Y173687D01*
X293757Y174311D01*
X293633Y174935D01*
X293936Y175381D01*
X294000Y175369D01*
X294624Y175493D01*
X295153Y175847D01*
X295507Y176376D01*
X296000Y176290D01*
Y110000D01*
X197000D01*
Y46631D01*
X196376Y46507D01*
X195846Y46154D01*
X195493Y45624D01*
X195369Y45000D01*
X195493Y44376D01*
X195846Y43846D01*
X196376Y43493D01*
X197000Y43369D01*
Y8653D01*
X196538Y8462D01*
X195000Y10000D01*
X34000D01*
Y41000D01*
X25000Y50000D01*
X14000D01*
Y115071D01*
X22929Y124000D01*
X32000D01*
Y142144D01*
X32123Y142245D01*
X32748Y142369D01*
X33277Y142723D01*
X33631Y143252D01*
X33755Y143877D01*
X33631Y144501D01*
X33277Y145030D01*
X32748Y145384D01*
X32123Y145508D01*
X32000Y145609D01*
Y204004D01*
X32065Y204057D01*
X32689Y204181D01*
X33219Y204535D01*
X33572Y205064D01*
X33696Y205689D01*
X33572Y206313D01*
X33219Y206842D01*
X32689Y207196D01*
X32065Y207320D01*
X32000Y207373D01*
Y208699D01*
X29000D01*
Y223928D01*
X4928D01*
X3000Y222000D01*
X2039Y222961D01*
X2039Y295000D01*
X17000D01*
X30000Y308000D01*
X97298D01*
X99856Y310558D01*
X115771Y310557D01*
D02*
G37*
%LPC*%
G36*
X130709Y303600D02*
X130084Y303476D01*
X129555Y303122D01*
X129201Y302593D01*
X129077Y301969D01*
X129201Y301344D01*
X129555Y300815D01*
X130084Y300461D01*
X130709Y300337D01*
X131333Y300461D01*
X131862Y300815D01*
X132216Y301344D01*
X132340Y301969D01*
X132216Y302593D01*
X131862Y303122D01*
X131333Y303476D01*
X130709Y303600D01*
D02*
G37*
G36*
X194628Y299081D02*
X194004Y298957D01*
X193474Y298604D01*
X193121Y298074D01*
X192997Y297450D01*
X193121Y296826D01*
X193474Y296297D01*
X194004Y295943D01*
X194628Y295819D01*
X195252Y295943D01*
X195782Y296297D01*
X196135Y296826D01*
X196259Y297450D01*
X196135Y298074D01*
X195782Y298604D01*
X195252Y298957D01*
X194628Y299081D01*
D02*
G37*
G36*
X181362Y299022D02*
X180737Y298898D01*
X180208Y298544D01*
X179855Y298015D01*
X179730Y297390D01*
X179855Y296766D01*
X180208Y296237D01*
X180737Y295883D01*
X181362Y295759D01*
X181986Y295883D01*
X182515Y296237D01*
X182869Y296766D01*
X182993Y297390D01*
X182869Y298015D01*
X182515Y298544D01*
X181986Y298898D01*
X181362Y299022D01*
D02*
G37*
G36*
X66601Y297757D02*
X65977Y297633D01*
X65447Y297280D01*
X65094Y296750D01*
X64969Y296126D01*
X65094Y295502D01*
X65447Y294972D01*
X65977Y294619D01*
X66601Y294495D01*
X67225Y294619D01*
X67754Y294972D01*
X68108Y295502D01*
X68232Y296126D01*
X68108Y296750D01*
X67754Y297280D01*
X67225Y297633D01*
X66601Y297757D01*
D02*
G37*
G36*
X186000Y296631D02*
X185376Y296507D01*
X184846Y296153D01*
X184493Y295624D01*
X184369Y295000D01*
X184493Y294376D01*
X184846Y293847D01*
X185376Y293493D01*
X186000Y293369D01*
X186624Y293493D01*
X187153Y293847D01*
X187507Y294376D01*
X187631Y295000D01*
X187507Y295624D01*
X187153Y296153D01*
X186624Y296507D01*
X186000Y296631D01*
D02*
G37*
G36*
X220866Y296021D02*
X220242Y295897D01*
X219713Y295543D01*
X219359Y295014D01*
X219235Y294390D01*
X219359Y293765D01*
X219713Y293236D01*
X220242Y292883D01*
X220866Y292758D01*
X221490Y292883D01*
X222020Y293236D01*
X222373Y293765D01*
X222498Y294390D01*
X222373Y295014D01*
X222020Y295543D01*
X221490Y295897D01*
X220866Y296021D01*
D02*
G37*
G36*
X168407Y294248D02*
X167783Y294123D01*
X167254Y293770D01*
X166900Y293240D01*
X166776Y292616D01*
X166900Y291992D01*
X167254Y291463D01*
X167783Y291109D01*
X168407Y290985D01*
X169032Y291109D01*
X169561Y291463D01*
X169915Y291992D01*
X170039Y292616D01*
X169915Y293240D01*
X169561Y293770D01*
X169032Y294123D01*
X168407Y294248D01*
D02*
G37*
G36*
X177000Y293248D02*
X176376Y293123D01*
X175847Y292770D01*
X175493Y292240D01*
X175369Y291616D01*
X175493Y290992D01*
X175847Y290463D01*
X176376Y290109D01*
X177000Y289985D01*
X177624Y290109D01*
X178154Y290463D01*
X178507Y290992D01*
X178631Y291616D01*
X178507Y292240D01*
X178154Y292770D01*
X177624Y293123D01*
X177000Y293248D01*
D02*
G37*
G36*
X117572Y292072D02*
X116948Y291948D01*
X116419Y291595D01*
X116065Y291065D01*
X115941Y290441D01*
X116065Y289817D01*
X116419Y289287D01*
X116948Y288934D01*
X117572Y288810D01*
X118197Y288934D01*
X118726Y289287D01*
X119080Y289817D01*
X119204Y290441D01*
X119080Y291065D01*
X118726Y291595D01*
X118197Y291948D01*
X117572Y292072D01*
D02*
G37*
G36*
X209000Y292351D02*
X208376Y292227D01*
X207846Y291874D01*
X207493Y291344D01*
X207369Y290720D01*
X206934Y290340D01*
X206462Y290246D01*
X205933Y289893D01*
X205579Y289364D01*
X205455Y288739D01*
X205579Y288115D01*
X205933Y287586D01*
X206462Y287232D01*
X207087Y287108D01*
X207711Y287232D01*
X208240Y287586D01*
X208594Y288115D01*
X208718Y288739D01*
X209152Y289119D01*
X209624Y289213D01*
X210154Y289566D01*
X210507Y290096D01*
X210631Y290720D01*
X210507Y291344D01*
X210154Y291874D01*
X209624Y292227D01*
X209000Y292351D01*
D02*
G37*
G36*
X82687Y293554D02*
X75581D01*
Y286449D01*
X82687D01*
Y293554D01*
D02*
G37*
G36*
X102756Y293585D02*
X101829Y293463D01*
X100964Y293105D01*
X100222Y292535D01*
X99653Y291793D01*
X99295Y290929D01*
X99173Y290002D01*
X99295Y289074D01*
X99653Y288210D01*
X100222Y287468D01*
X100964Y286898D01*
X101829Y286540D01*
X102756Y286418D01*
X103683Y286540D01*
X104548Y286898D01*
X105290Y287468D01*
X105859Y288210D01*
X106217Y289074D01*
X106339Y290002D01*
X106217Y290929D01*
X105859Y291793D01*
X105290Y292535D01*
X104548Y293105D01*
X103683Y293463D01*
X102756Y293585D01*
D02*
G37*
G36*
X94882D02*
X93954Y293463D01*
X93090Y293105D01*
X92348Y292535D01*
X91779Y291793D01*
X91421Y290929D01*
X91299Y290002D01*
X91421Y289074D01*
X91779Y288210D01*
X92348Y287468D01*
X93090Y286898D01*
X93954Y286540D01*
X94882Y286418D01*
X95809Y286540D01*
X96674Y286898D01*
X97416Y287468D01*
X97985Y288210D01*
X98343Y289074D01*
X98465Y290002D01*
X98343Y290929D01*
X97985Y291793D01*
X97416Y292535D01*
X96674Y293105D01*
X95809Y293463D01*
X94882Y293585D01*
D02*
G37*
G36*
X87008D02*
X86080Y293463D01*
X85216Y293105D01*
X84474Y292535D01*
X83904Y291793D01*
X83547Y290929D01*
X83425Y290002D01*
X83547Y289074D01*
X83904Y288210D01*
X84474Y287468D01*
X85216Y286898D01*
X86080Y286540D01*
X87008Y286418D01*
X87935Y286540D01*
X88800Y286898D01*
X89542Y287468D01*
X90111Y288210D01*
X90469Y289074D01*
X90591Y290002D01*
X90469Y290929D01*
X90111Y291793D01*
X89542Y292535D01*
X88800Y293105D01*
X87935Y293463D01*
X87008Y293585D01*
D02*
G37*
G36*
X56500Y289623D02*
X55876Y289499D01*
X55347Y289146D01*
X54993Y288616D01*
X54869Y287992D01*
X54993Y287368D01*
X55347Y286839D01*
X55876Y286485D01*
X56500Y286361D01*
X57124Y286485D01*
X57653Y286839D01*
X58007Y287368D01*
X58131Y287992D01*
X58007Y288616D01*
X57653Y289146D01*
X57124Y289499D01*
X56500Y289623D01*
D02*
G37*
G36*
X210000Y282631D02*
X209376Y282507D01*
X208846Y282154D01*
X208493Y281624D01*
X208369Y281000D01*
X208493Y280376D01*
X208846Y279847D01*
X209376Y279493D01*
X210000Y279369D01*
X210624Y279493D01*
X211154Y279847D01*
X211507Y280376D01*
X211631Y281000D01*
X211507Y281624D01*
X211154Y282154D01*
X210624Y282507D01*
X210000Y282631D01*
D02*
G37*
G36*
X170000Y277639D02*
X169376Y277514D01*
X168846Y277161D01*
X168493Y276631D01*
X168369Y276007D01*
X168493Y275383D01*
X168846Y274854D01*
X169376Y274500D01*
X170000Y274376D01*
X170624Y274500D01*
X171153Y274854D01*
X171507Y275383D01*
X171631Y276007D01*
X171507Y276631D01*
X171153Y277161D01*
X170624Y277514D01*
X170000Y277639D01*
D02*
G37*
G36*
X141339Y268954D02*
X140714Y268830D01*
X140185Y268476D01*
X139831Y267947D01*
X139707Y267323D01*
X139831Y266699D01*
X140185Y266169D01*
X140714Y265816D01*
X141339Y265691D01*
X141963Y265816D01*
X142492Y266169D01*
X142846Y266699D01*
X142970Y267323D01*
X142846Y267947D01*
X142492Y268476D01*
X141963Y268830D01*
X141339Y268954D01*
D02*
G37*
G36*
X7881D02*
X7256Y268830D01*
X6727Y268476D01*
X6374Y267947D01*
X6249Y267323D01*
X6374Y266699D01*
X6727Y266169D01*
X7256Y265816D01*
X7881Y265691D01*
X8345Y265784D01*
X8703Y265514D01*
X8778Y265399D01*
X8743Y265220D01*
X8867Y264596D01*
X9220Y264067D01*
X9750Y263713D01*
X10374Y263589D01*
X10998Y263713D01*
X11528Y264067D01*
X11881Y264596D01*
X12005Y265220D01*
X11881Y265845D01*
X11528Y266374D01*
X10998Y266727D01*
X10374Y266852D01*
X9910Y266759D01*
X9552Y267030D01*
X9476Y267144D01*
X9512Y267323D01*
X9388Y267947D01*
X9034Y268476D01*
X8505Y268830D01*
X7881Y268954D01*
D02*
G37*
G36*
X122350Y264033D02*
X121725Y263909D01*
X121196Y263555D01*
X120843Y263026D01*
X120718Y262402D01*
X120843Y261777D01*
X121196Y261248D01*
X121725Y260894D01*
X122350Y260770D01*
X122974Y260894D01*
X123503Y261248D01*
X123857Y261777D01*
X123981Y262402D01*
X123857Y263026D01*
X123503Y263555D01*
X122974Y263909D01*
X122350Y264033D01*
D02*
G37*
G36*
X83080Y265954D02*
X75975D01*
Y258849D01*
X83080D01*
Y265954D01*
D02*
G37*
G36*
X103150Y265985D02*
X102222Y265863D01*
X101358Y265505D01*
X100616Y264935D01*
X100046Y264193D01*
X99688Y263329D01*
X99566Y262402D01*
X99688Y261474D01*
X100046Y260610D01*
X100616Y259868D01*
X101358Y259298D01*
X102222Y258940D01*
X103150Y258818D01*
X104077Y258940D01*
X104941Y259298D01*
X105684Y259868D01*
X106253Y260610D01*
X106611Y261474D01*
X106733Y262402D01*
X106611Y263329D01*
X106253Y264193D01*
X105684Y264935D01*
X104941Y265505D01*
X104077Y265863D01*
X103150Y265985D01*
D02*
G37*
G36*
X95276D02*
X94348Y265863D01*
X93484Y265505D01*
X92742Y264935D01*
X92172Y264193D01*
X91814Y263329D01*
X91692Y262402D01*
X91814Y261474D01*
X92172Y260610D01*
X92742Y259868D01*
X93484Y259298D01*
X94348Y258940D01*
X95276Y258818D01*
X96203Y258940D01*
X97067Y259298D01*
X97809Y259868D01*
X98379Y260610D01*
X98737Y261474D01*
X98859Y262402D01*
X98737Y263329D01*
X98379Y264193D01*
X97809Y264935D01*
X97067Y265505D01*
X96203Y265863D01*
X95276Y265985D01*
D02*
G37*
G36*
X87402D02*
X86474Y265863D01*
X85610Y265505D01*
X84868Y264935D01*
X84298Y264193D01*
X83940Y263329D01*
X83818Y262402D01*
X83940Y261474D01*
X84298Y260610D01*
X84868Y259868D01*
X85610Y259298D01*
X86474Y258940D01*
X87402Y258818D01*
X88329Y258940D01*
X89193Y259298D01*
X89935Y259868D01*
X90505Y260610D01*
X90863Y261474D01*
X90985Y262402D01*
X90863Y263329D01*
X90505Y264193D01*
X89935Y264935D01*
X89193Y265505D01*
X88329Y265863D01*
X87402Y265985D01*
D02*
G37*
G36*
X66929Y257866D02*
X66305Y257742D01*
X65776Y257388D01*
X65422Y256859D01*
X65298Y256235D01*
X65422Y255610D01*
X65776Y255081D01*
X66305Y254728D01*
X66929Y254603D01*
X67553Y254728D01*
X68083Y255081D01*
X68436Y255610D01*
X68560Y256235D01*
X68436Y256859D01*
X68083Y257388D01*
X67553Y257742D01*
X66929Y257866D01*
D02*
G37*
G36*
X130709Y256094D02*
X130084Y255970D01*
X129555Y255616D01*
X129201Y255087D01*
X129077Y254463D01*
X129201Y253839D01*
X129555Y253309D01*
X130084Y252956D01*
X130709Y252832D01*
X131333Y252956D01*
X131862Y253309D01*
X132216Y253839D01*
X132340Y254463D01*
X132216Y255087D01*
X131862Y255616D01*
X131333Y255970D01*
X130709Y256094D01*
D02*
G37*
G36*
X98353D02*
X97729Y255970D01*
X97200Y255616D01*
X96846Y255087D01*
X96722Y254463D01*
X96846Y253839D01*
X97200Y253309D01*
X97729Y252956D01*
X98353Y252832D01*
X98977Y252956D01*
X99507Y253309D01*
X99860Y253839D01*
X99985Y254463D01*
X99860Y255087D01*
X99507Y255616D01*
X98977Y255970D01*
X98353Y256094D01*
D02*
G37*
G36*
X53383D02*
X52759Y255970D01*
X52229Y255616D01*
X51876Y255087D01*
X51751Y254463D01*
X51876Y253839D01*
X52229Y253309D01*
X52759Y252956D01*
X53383Y252832D01*
X54007Y252956D01*
X54536Y253309D01*
X54890Y253839D01*
X55014Y254463D01*
X54890Y255087D01*
X54536Y255616D01*
X54007Y255970D01*
X53383Y256094D01*
D02*
G37*
G36*
X8268Y255568D02*
X7643Y255444D01*
X7114Y255090D01*
X6761Y254561D01*
X6636Y253937D01*
X6761Y253313D01*
X7114Y252783D01*
X7643Y252430D01*
X8268Y252306D01*
X8892Y252430D01*
X9421Y252783D01*
X9775Y253313D01*
X9899Y253937D01*
X9775Y254561D01*
X9421Y255090D01*
X8892Y255444D01*
X8268Y255568D01*
D02*
G37*
G36*
X33071Y257866D02*
X32447Y257742D01*
X31917Y257388D01*
X31564Y256859D01*
X31440Y256235D01*
X31564Y255610D01*
X31917Y255081D01*
X32447Y254728D01*
X32683Y254680D01*
X32900Y254127D01*
X32719Y253856D01*
X32595Y253232D01*
X32719Y252608D01*
X33073Y252078D01*
X33602Y251725D01*
X34226Y251601D01*
X34851Y251725D01*
X35380Y252078D01*
X35734Y252608D01*
X35858Y253232D01*
X35734Y253856D01*
X35380Y254385D01*
X34851Y254739D01*
X34614Y254786D01*
X34397Y255339D01*
X34578Y255610D01*
X34702Y256235D01*
X34578Y256859D01*
X34224Y257388D01*
X33695Y257742D01*
X33071Y257866D01*
D02*
G37*
G36*
X45454Y260524D02*
X44829Y260399D01*
X44300Y260046D01*
X43946Y259516D01*
X43822Y258892D01*
X43946Y258268D01*
X44300Y257739D01*
X44829Y257385D01*
X44877Y257375D01*
Y256866D01*
X44829Y256856D01*
X44300Y256502D01*
X43946Y255973D01*
X43822Y255349D01*
X43946Y254725D01*
X44300Y254195D01*
X44829Y253842D01*
X44877Y253832D01*
Y253322D01*
X44829Y253313D01*
X44300Y252959D01*
X43946Y252430D01*
X43822Y251805D01*
X43946Y251181D01*
X44300Y250652D01*
X44829Y250298D01*
X45454Y250174D01*
X46078Y250298D01*
X46607Y250652D01*
X46961Y251181D01*
X47085Y251805D01*
X46961Y252430D01*
X46607Y252959D01*
X46078Y253313D01*
X46030Y253322D01*
Y253832D01*
X46078Y253842D01*
X46607Y254195D01*
X46961Y254725D01*
X47085Y255349D01*
X46961Y255973D01*
X46607Y256502D01*
X46078Y256856D01*
X46030Y256866D01*
Y257375D01*
X46078Y257385D01*
X46607Y257739D01*
X46961Y258268D01*
X47085Y258892D01*
X46961Y259516D01*
X46607Y260046D01*
X46078Y260399D01*
X45454Y260524D01*
D02*
G37*
G36*
X41517D02*
X40892Y260399D01*
X40363Y260046D01*
X40009Y259516D01*
X39885Y258892D01*
X40009Y258268D01*
X40363Y257739D01*
X40892Y257385D01*
X40940Y257375D01*
Y256866D01*
X40892Y256856D01*
X40363Y256502D01*
X40009Y255973D01*
X39885Y255349D01*
X40009Y254725D01*
X40363Y254195D01*
X40892Y253842D01*
X40940Y253832D01*
Y253322D01*
X40892Y253313D01*
X40363Y252959D01*
X40009Y252430D01*
X39885Y251805D01*
X40009Y251181D01*
X40363Y250652D01*
X40892Y250298D01*
X41517Y250174D01*
X42141Y250298D01*
X42670Y250652D01*
X43024Y251181D01*
X43148Y251805D01*
X43024Y252430D01*
X42670Y252959D01*
X42141Y253313D01*
X42093Y253322D01*
Y253832D01*
X42141Y253842D01*
X42670Y254195D01*
X43024Y254725D01*
X43148Y255349D01*
X43024Y255973D01*
X42670Y256502D01*
X42141Y256856D01*
X42093Y256866D01*
Y257375D01*
X42141Y257385D01*
X42670Y257739D01*
X43024Y258268D01*
X43148Y258892D01*
X43024Y259516D01*
X42670Y260046D01*
X42141Y260399D01*
X41517Y260524D01*
D02*
G37*
G36*
X40000Y249631D02*
X39376Y249507D01*
X38846Y249153D01*
X38493Y248624D01*
X38369Y248000D01*
X38493Y247376D01*
X38649Y247143D01*
X38338Y246707D01*
X37900Y246794D01*
X37276Y246670D01*
X36979Y246472D01*
X36451Y246621D01*
X36419Y246653D01*
X36085Y247153D01*
X35556Y247507D01*
X34931Y247631D01*
X34307Y247507D01*
X33778Y247153D01*
X33424Y246624D01*
X33300Y246000D01*
X33424Y245376D01*
X33778Y244847D01*
X34307Y244493D01*
X34931Y244369D01*
X35556Y244493D01*
X35853Y244691D01*
X36381Y244542D01*
X36412Y244510D01*
X36746Y244009D01*
X37276Y243656D01*
X37900Y243532D01*
X38524Y243656D01*
X39054Y244009D01*
X39407Y244539D01*
X39531Y245163D01*
X39407Y245787D01*
X39252Y246020D01*
X39562Y246456D01*
X40000Y246369D01*
X40424Y246453D01*
X40824Y246128D01*
X40857Y246068D01*
X40856Y246063D01*
X40981Y245439D01*
X41334Y244910D01*
X41864Y244556D01*
X42488Y244432D01*
X43112Y244556D01*
X43641Y244910D01*
X43995Y245439D01*
X44119Y246063D01*
X43995Y246687D01*
X43641Y247217D01*
X43112Y247570D01*
X42488Y247694D01*
X42064Y247610D01*
X41663Y247935D01*
X41630Y247995D01*
X41631Y248000D01*
X41507Y248624D01*
X41153Y249153D01*
X40624Y249507D01*
X40000Y249631D01*
D02*
G37*
G36*
X212992D02*
X212368Y249507D01*
X211839Y249153D01*
X211485Y248624D01*
X211361Y248000D01*
X211485Y247376D01*
X211839Y246847D01*
X212368Y246493D01*
X212992Y246369D01*
X213616Y246493D01*
X214146Y246847D01*
X214499Y247376D01*
X214623Y248000D01*
X214499Y248624D01*
X214146Y249153D01*
X213616Y249507D01*
X212992Y249631D01*
D02*
G37*
G36*
X207087D02*
X206462Y249507D01*
X205933Y249153D01*
X205579Y248624D01*
X205455Y248000D01*
X205579Y247376D01*
X205933Y246847D01*
X206462Y246493D01*
X207087Y246369D01*
X207711Y246493D01*
X208240Y246847D01*
X208594Y247376D01*
X208718Y248000D01*
X208594Y248624D01*
X208240Y249153D01*
X207711Y249507D01*
X207087Y249631D01*
D02*
G37*
G36*
X49400Y248573D02*
X48776Y248449D01*
X48246Y248095D01*
X47893Y247566D01*
X47769Y246942D01*
X47893Y246317D01*
X48246Y245788D01*
X48776Y245434D01*
X49400Y245310D01*
X50024Y245434D01*
X50554Y245788D01*
X50907Y246317D01*
X51031Y246942D01*
X50907Y247566D01*
X50554Y248095D01*
X50024Y248449D01*
X49400Y248573D01*
D02*
G37*
G36*
X63000Y245332D02*
X62376Y245208D01*
X61847Y244854D01*
X61493Y244325D01*
X61369Y243701D01*
X61493Y243076D01*
X61847Y242547D01*
X62376Y242194D01*
X63000Y242069D01*
X63624Y242194D01*
X64153Y242547D01*
X64507Y243076D01*
X64631Y243701D01*
X64507Y244325D01*
X64153Y244854D01*
X63624Y245208D01*
X63000Y245332D01*
D02*
G37*
G36*
X52105D02*
X51481Y245208D01*
X50951Y244854D01*
X50598Y244325D01*
X50474Y243701D01*
X50598Y243076D01*
X50951Y242547D01*
X51481Y242194D01*
X52105Y242069D01*
X52729Y242194D01*
X53259Y242547D01*
X53612Y243076D01*
X53736Y243701D01*
X53612Y244325D01*
X53259Y244854D01*
X52729Y245208D01*
X52105Y245332D01*
D02*
G37*
G36*
X31638Y243631D02*
X31014Y243507D01*
X30484Y243154D01*
X30131Y242624D01*
X30007Y242000D01*
X30131Y241376D01*
X30484Y240846D01*
X31014Y240493D01*
X31638Y240369D01*
X32262Y240493D01*
X32792Y240846D01*
X33145Y241376D01*
X33269Y242000D01*
X33145Y242624D01*
X32792Y243154D01*
X32262Y243507D01*
X31638Y243631D01*
D02*
G37*
G36*
X49500Y240631D02*
X48876Y240507D01*
X48346Y240154D01*
X47993Y239624D01*
X47869Y239000D01*
Y239000D01*
D01*
X47993Y238376D01*
X48346Y237846D01*
X48876Y237493D01*
X49500Y237369D01*
X50124Y237493D01*
X50653Y237846D01*
X51007Y238376D01*
X51039Y238536D01*
X51131Y239000D01*
D01*
Y239000D01*
X51007Y239624D01*
X50653Y240154D01*
X50124Y240507D01*
X49500Y240631D01*
D02*
G37*
G36*
X111396Y239427D02*
X110771Y239302D01*
X110242Y238949D01*
X109966Y238536D01*
X109889Y238420D01*
X109764Y237795D01*
X109889Y237171D01*
X110242Y236642D01*
X110771Y236288D01*
X111396Y236164D01*
X112020Y236288D01*
X112549Y236642D01*
X112903Y237171D01*
X113027Y237795D01*
X112903Y238420D01*
X112549Y238949D01*
X112020Y239302D01*
X111396Y239427D01*
D02*
G37*
G36*
X40612Y237458D02*
X39987Y237334D01*
X39458Y236980D01*
X39105Y236451D01*
X38980Y235827D01*
X39105Y235203D01*
X39458Y234673D01*
X39987Y234320D01*
X40612Y234195D01*
X41236Y234320D01*
X41765Y234673D01*
X42119Y235203D01*
X42243Y235827D01*
X42119Y236451D01*
X41765Y236980D01*
X41236Y237334D01*
X40612Y237458D01*
D02*
G37*
G36*
X170000Y236631D02*
X169376Y236507D01*
X168846Y236154D01*
X168493Y235624D01*
X168369Y235000D01*
X168493Y234376D01*
X168846Y233846D01*
X169376Y233493D01*
X170000Y233369D01*
X170624Y233493D01*
X171153Y233846D01*
X171507Y234376D01*
X171631Y235000D01*
X171507Y235624D01*
X171153Y236154D01*
X170624Y236507D01*
X170000Y236631D01*
D02*
G37*
G36*
X34931Y234430D02*
X34307Y234306D01*
X33778Y233953D01*
X33424Y233423D01*
X33300Y232799D01*
X33424Y232175D01*
X33778Y231646D01*
X34307Y231292D01*
X34931Y231168D01*
X35556Y231292D01*
X36085Y231646D01*
X36439Y232175D01*
X36563Y232799D01*
X36439Y233423D01*
X36085Y233953D01*
X35556Y234306D01*
X34931Y234430D01*
D02*
G37*
G36*
X6693Y232734D02*
X6069Y232610D01*
X5539Y232256D01*
X5186Y231727D01*
X5062Y231102D01*
X5186Y230478D01*
X5539Y229949D01*
X6069Y229595D01*
X6693Y229471D01*
X7317Y229595D01*
X7846Y229949D01*
X8200Y230478D01*
X8324Y231102D01*
X8200Y231727D01*
X7846Y232256D01*
X7317Y232610D01*
X6693Y232734D01*
D02*
G37*
G36*
X127502Y230371D02*
X126878Y230247D01*
X126348Y229894D01*
X125995Y229364D01*
X125871Y228740D01*
X125995Y228116D01*
X126348Y227587D01*
X126878Y227233D01*
X127502Y227109D01*
X128126Y227233D01*
X128656Y227587D01*
X129009Y228116D01*
X129133Y228740D01*
X129009Y229364D01*
X128656Y229894D01*
X128126Y230247D01*
X127502Y230371D01*
D02*
G37*
G36*
X107656Y228403D02*
X107031Y228279D01*
X106502Y227925D01*
X106148Y227396D01*
X106024Y226772D01*
X106148Y226147D01*
X106502Y225618D01*
X107031Y225265D01*
X107656Y225140D01*
X108280Y225265D01*
X108809Y225618D01*
X109163Y226147D01*
X109287Y226772D01*
X109163Y227396D01*
X108809Y227925D01*
X108280Y228279D01*
X107656Y228403D01*
D02*
G37*
G36*
X88583Y228009D02*
X87958Y227885D01*
X87429Y227532D01*
X87076Y227002D01*
X86951Y226378D01*
X87076Y225754D01*
X87429Y225224D01*
X87958Y224871D01*
X88583Y224747D01*
X89207Y224871D01*
X89736Y225224D01*
X90090Y225754D01*
X90214Y226378D01*
X90090Y227002D01*
X89736Y227532D01*
X89207Y227885D01*
X88583Y228009D01*
D02*
G37*
G36*
X111417Y226434D02*
X110793Y226310D01*
X110264Y225957D01*
X109910Y225427D01*
X109786Y224803D01*
X109910Y224179D01*
X110264Y223650D01*
X110793Y223296D01*
X111417Y223172D01*
X112042Y223296D01*
X112571Y223650D01*
X112925Y224179D01*
X113049Y224803D01*
X112925Y225427D01*
X112571Y225957D01*
X112042Y226310D01*
X111417Y226434D01*
D02*
G37*
G36*
X98207Y225559D02*
X97582Y225435D01*
X97053Y225081D01*
X96700Y224552D01*
X96575Y223928D01*
X96700Y223304D01*
X97053Y222774D01*
X97582Y222421D01*
X98207Y222297D01*
X98831Y222421D01*
X99360Y222774D01*
X99714Y223304D01*
X99838Y223928D01*
X99714Y224552D01*
X99360Y225081D01*
X98831Y225435D01*
X98207Y225559D01*
D02*
G37*
G36*
X129134Y222498D02*
X128510Y222373D01*
X127980Y222020D01*
X127627Y221490D01*
X127503Y220866D01*
X127627Y220242D01*
X127980Y219713D01*
X128510Y219359D01*
X129134Y219235D01*
X129758Y219359D01*
X130287Y219713D01*
X130641Y220242D01*
X130765Y220866D01*
X130641Y221490D01*
X130287Y222020D01*
X129758Y222373D01*
X129134Y222498D01*
D02*
G37*
G36*
X94882D02*
X94258Y222373D01*
X93728Y222020D01*
X93375Y221490D01*
X93251Y220866D01*
X93375Y220242D01*
X93728Y219713D01*
X94258Y219359D01*
X94882Y219235D01*
X95506Y219359D01*
X96035Y219713D01*
X96389Y220242D01*
X96513Y220866D01*
X96389Y221490D01*
X96035Y222020D01*
X95506Y222373D01*
X94882Y222498D01*
D02*
G37*
G36*
X111396Y217773D02*
X110771Y217649D01*
X110242Y217295D01*
X109889Y216766D01*
X109764Y216142D01*
X109889Y215517D01*
X110242Y214988D01*
X110771Y214635D01*
X111396Y214510D01*
X112020Y214635D01*
X112549Y214988D01*
X112903Y215517D01*
X113027Y216142D01*
X112903Y216766D01*
X112549Y217295D01*
X112020Y217649D01*
X111396Y217773D01*
D02*
G37*
G36*
X69860D02*
X69236Y217649D01*
X68707Y217295D01*
X68353Y216766D01*
X68229Y216142D01*
X68353Y215517D01*
X68707Y214988D01*
X69236Y214635D01*
X69860Y214510D01*
X70485Y214635D01*
X71014Y214988D01*
X71367Y215517D01*
X71492Y216142D01*
X71367Y216766D01*
X71014Y217295D01*
X70485Y217649D01*
X69860Y217773D01*
D02*
G37*
G36*
X65136Y213836D02*
X64512Y213712D01*
X63982Y213358D01*
X63629Y212829D01*
X63504Y212205D01*
X63629Y211580D01*
X63982Y211051D01*
X64512Y210698D01*
X65136Y210573D01*
X65760Y210698D01*
X66289Y211051D01*
X66643Y211580D01*
X66767Y212205D01*
X66643Y212829D01*
X66289Y213358D01*
X65760Y213712D01*
X65136Y213836D01*
D02*
G37*
G36*
X168407Y213344D02*
X167783Y213220D01*
X167254Y212866D01*
X167035Y212539D01*
D01*
X166900Y212337D01*
X166776Y211713D01*
X166900Y211088D01*
X167035Y210887D01*
X167254Y210559D01*
X167783Y210205D01*
X168407Y210081D01*
X169032Y210205D01*
X169561Y210559D01*
X169915Y211088D01*
X170039Y211713D01*
X169915Y212337D01*
X169561Y212866D01*
X169032Y213220D01*
X168407Y213344D01*
D02*
G37*
G36*
X74585Y212261D02*
X73960Y212137D01*
X73431Y211784D01*
X73077Y211254D01*
X72953Y210630D01*
X73077Y210006D01*
X73431Y209476D01*
X73960Y209123D01*
X74585Y208999D01*
X75209Y209123D01*
X75323Y209199D01*
D01*
X75738Y209476D01*
X76092Y210006D01*
X76216Y210630D01*
X76092Y211254D01*
X75738Y211784D01*
X75209Y212137D01*
X74585Y212261D01*
D02*
G37*
G36*
X123228Y210588D02*
X122604Y210464D01*
X122075Y210110D01*
X121721Y209581D01*
X121597Y208957D01*
Y208957D01*
X121721Y208332D01*
X122075Y207803D01*
X122604Y207450D01*
X123228Y207325D01*
X123853Y207450D01*
X124382Y207803D01*
X124735Y208332D01*
X124860Y208957D01*
X124735Y209581D01*
X124382Y210110D01*
X123853Y210464D01*
X123228Y210588D01*
D02*
G37*
G36*
X99069Y208699D02*
X97638D01*
X97653Y208457D01*
X97200Y208154D01*
X96846Y207624D01*
X96722Y207000D01*
X96846Y206376D01*
X97200Y205847D01*
X97729Y205493D01*
X98353Y205369D01*
X98977Y205493D01*
X99507Y205847D01*
X99860Y206376D01*
X99985Y207000D01*
X99860Y207624D01*
X99507Y208154D01*
X99053Y208457D01*
X99069Y208699D01*
D02*
G37*
G36*
X140157Y205915D02*
X139533Y205791D01*
X139004Y205437D01*
X138650Y204908D01*
X138526Y204283D01*
X138650Y203659D01*
X139004Y203130D01*
X139533Y202776D01*
X140157Y202652D01*
X140782Y202776D01*
X141311Y203130D01*
X141665Y203659D01*
X141789Y204283D01*
X141665Y204908D01*
X141311Y205437D01*
X140782Y205791D01*
X140157Y205915D01*
D02*
G37*
G36*
X272150Y202311D02*
X271525Y202187D01*
X270996Y201833D01*
X270642Y201304D01*
X270518Y200679D01*
X270642Y200055D01*
X270996Y199526D01*
X271525Y199172D01*
X272150Y199048D01*
X272774Y199172D01*
X273303Y199526D01*
X273657Y200055D01*
X273781Y200679D01*
X273657Y201304D01*
X273303Y201833D01*
X272774Y202187D01*
X272150Y202311D01*
D02*
G37*
G36*
X140645Y200631D02*
X140020Y200507D01*
X139491Y200153D01*
X139137Y199624D01*
X139013Y199000D01*
X139137Y198376D01*
X139491Y197846D01*
X140020Y197493D01*
X140645Y197369D01*
X141269Y197493D01*
X141798Y197846D01*
X142152Y198376D01*
X142276Y199000D01*
X142152Y199624D01*
X141798Y200153D01*
X141269Y200507D01*
X140645Y200631D01*
D02*
G37*
G36*
X177000Y200362D02*
X176376Y200238D01*
X176060Y200027D01*
D01*
X175847Y199885D01*
X175493Y199355D01*
X175369Y198731D01*
X175493Y198107D01*
X175847Y197578D01*
X176376Y197224D01*
X177000Y197100D01*
X177624Y197224D01*
X178154Y197578D01*
X178507Y198107D01*
X178631Y198731D01*
X178507Y199355D01*
X178154Y199885D01*
X177624Y200238D01*
X177000Y200362D01*
D02*
G37*
G36*
X287000Y191001D02*
X286376Y190877D01*
X285846Y190524D01*
X285493Y189994D01*
X285369Y189370D01*
X285493Y188746D01*
X285846Y188217D01*
X286376Y187863D01*
X287000Y187739D01*
X287624Y187863D01*
X288154Y188217D01*
X288507Y188746D01*
X288631Y189370D01*
X288507Y189994D01*
X288154Y190524D01*
X287624Y190877D01*
X287000Y191001D01*
D02*
G37*
G36*
X200787Y191001D02*
X200163Y190877D01*
X199634Y190524D01*
X199280Y189994D01*
X199156Y189370D01*
X199280Y188746D01*
X199634Y188216D01*
X200163Y187863D01*
X200787Y187739D01*
X201412Y187863D01*
X201941Y188216D01*
X202295Y188746D01*
X202419Y189370D01*
X202295Y189994D01*
X201941Y190524D01*
X201412Y190877D01*
X200787Y191001D01*
D02*
G37*
G36*
X171653Y185279D02*
X170980Y185191D01*
X170352Y184931D01*
X169814Y184517D01*
X169431Y184019D01*
X169153Y183986D01*
X168876Y184019D01*
X168494Y184517D01*
X167955Y184931D01*
X167327Y185191D01*
X166654Y185279D01*
X165980Y185191D01*
X165352Y184931D01*
X164813Y184517D01*
X164400Y183978D01*
X164140Y183351D01*
X164051Y182677D01*
X164140Y182004D01*
X164400Y181376D01*
X164813Y180837D01*
X165311Y180455D01*
X165345Y180177D01*
X165311Y179899D01*
X164813Y179517D01*
X164400Y178978D01*
X164140Y178351D01*
X164051Y177677D01*
X164140Y177004D01*
X164400Y176376D01*
X164813Y175837D01*
X165311Y175455D01*
X165345Y175177D01*
X165311Y174899D01*
X164813Y174517D01*
X164400Y173978D01*
X164140Y173351D01*
X164051Y172677D01*
X164140Y172004D01*
X164400Y171376D01*
X164813Y170837D01*
X165311Y170455D01*
X165345Y170177D01*
X165311Y169899D01*
X164813Y169517D01*
X164400Y168978D01*
X164140Y168351D01*
X164051Y167677D01*
X164140Y167004D01*
X164400Y166376D01*
X164813Y165837D01*
X165311Y165455D01*
X165345Y165177D01*
X165311Y164899D01*
X164813Y164517D01*
X164400Y163978D01*
X164140Y163351D01*
X164051Y162677D01*
X164140Y162004D01*
X164400Y161376D01*
X164813Y160837D01*
X165352Y160424D01*
X165980Y160164D01*
X166654Y160075D01*
X167327Y160164D01*
X167955Y160424D01*
X168374Y160745D01*
X168874Y160571D01*
Y159897D01*
X171153D01*
Y162677D01*
X171653D01*
Y163177D01*
X174434D01*
Y165457D01*
X173759D01*
X173586Y165957D01*
X173907Y166376D01*
X174167Y167004D01*
X174256Y167677D01*
X174167Y168351D01*
X173907Y168978D01*
X173494Y169517D01*
X172996Y169899D01*
X172962Y170177D01*
X172996Y170455D01*
X173494Y170837D01*
X173907Y171376D01*
X174167Y172004D01*
X174256Y172677D01*
X174167Y173351D01*
X173907Y173978D01*
X173494Y174517D01*
X172996Y174899D01*
X172962Y175177D01*
X172996Y175455D01*
X173494Y175837D01*
X173907Y176376D01*
X174167Y177004D01*
X174256Y177677D01*
X174167Y178351D01*
X173907Y178978D01*
X173494Y179517D01*
X172996Y179899D01*
X172962Y180177D01*
X172996Y180455D01*
X173494Y180837D01*
X173907Y181376D01*
X174167Y182004D01*
X174256Y182677D01*
X174167Y183351D01*
X173907Y183978D01*
X173494Y184517D01*
X172955Y184931D01*
X172327Y185191D01*
X171653Y185279D01*
D02*
G37*
G36*
X136000Y185631D02*
X135376Y185507D01*
X134846Y185153D01*
X134493Y184624D01*
X134369Y184000D01*
X134493Y183376D01*
X134846Y182846D01*
X135376Y182493D01*
X136000Y182369D01*
X136624Y182493D01*
X137153Y182846D01*
X137507Y183376D01*
X137631Y184000D01*
X137507Y184624D01*
X137153Y185153D01*
X136624Y185507D01*
X136000Y185631D01*
D02*
G37*
G36*
X246000Y184631D02*
X245376Y184507D01*
X244847Y184153D01*
X244493Y183624D01*
X244369Y183000D01*
X244493Y182376D01*
X244847Y181846D01*
X245376Y181493D01*
X246000Y181369D01*
X246624Y181493D01*
X247153Y181846D01*
X247507Y182376D01*
X247631Y183000D01*
X247507Y183624D01*
X247153Y184153D01*
X246624Y184507D01*
X246000Y184631D01*
D02*
G37*
G36*
X140775Y184309D02*
X140151Y184184D01*
X139621Y183831D01*
X139268Y183301D01*
X139144Y182677D01*
X139268Y182053D01*
X139621Y181524D01*
X140151Y181170D01*
X140775Y181046D01*
X141399Y181170D01*
X141929Y181524D01*
X142282Y182053D01*
X142406Y182677D01*
X142282Y183301D01*
X141929Y183831D01*
X141399Y184184D01*
X140775Y184309D01*
D02*
G37*
G36*
X119000Y181631D02*
X118376Y181507D01*
X117847Y181154D01*
X117493Y180624D01*
X117369Y180000D01*
X117493Y179376D01*
X117847Y178847D01*
X118376Y178493D01*
X119000Y178369D01*
X119624Y178493D01*
X120153Y178847D01*
X120507Y179376D01*
X120631Y180000D01*
X120507Y180624D01*
X120153Y181154D01*
X119624Y181507D01*
X119000Y181631D01*
D02*
G37*
G36*
X161024Y179308D02*
X160399Y179184D01*
X159870Y178831D01*
X159517Y178302D01*
X159392Y177677D01*
X159517Y177053D01*
X159870Y176524D01*
X160399Y176170D01*
X161024Y176046D01*
X161648Y176170D01*
X162177Y176524D01*
X162531Y177053D01*
X162655Y177677D01*
X162531Y178302D01*
X162177Y178831D01*
X161648Y179184D01*
X161024Y179308D01*
D02*
G37*
G36*
X175886Y176435D02*
X175262Y176310D01*
X174732Y175957D01*
X174379Y175427D01*
X174255Y174803D01*
X174379Y174179D01*
X174732Y173650D01*
X175262Y173296D01*
X175886Y173172D01*
X176510Y173296D01*
X177039Y173650D01*
X177393Y174179D01*
X177517Y174803D01*
X177393Y175427D01*
X177039Y175957D01*
X176510Y176310D01*
X176387Y176335D01*
X175886Y176435D01*
X175886D01*
D02*
G37*
G36*
X142519Y179308D02*
X141895Y179184D01*
X141366Y178831D01*
X141012Y178302D01*
X140888Y177677D01*
X141012Y177053D01*
X141366Y176524D01*
X141648Y176335D01*
X141864Y176045D01*
X141776Y175694D01*
X141587Y175412D01*
X141463Y174787D01*
X141587Y174163D01*
X141941Y173634D01*
X142470Y173280D01*
X143095Y173156D01*
X143719Y173280D01*
X144248Y173634D01*
X144602Y174163D01*
X144726Y174787D01*
X144602Y175412D01*
X144248Y175941D01*
X143965Y176130D01*
X143750Y176420D01*
X143838Y176770D01*
X144027Y177053D01*
X144151Y177677D01*
X144027Y178302D01*
X143673Y178831D01*
X143144Y179184D01*
X142519Y179308D01*
D02*
G37*
G36*
X195276Y175352D02*
X194651Y175228D01*
X194122Y174874D01*
X193768Y174345D01*
X193644Y173721D01*
X193768Y173096D01*
X194122Y172567D01*
X194651Y172213D01*
X195276Y172089D01*
X195900Y172213D01*
X196429Y172567D01*
X196783Y173096D01*
X196907Y173721D01*
X196783Y174345D01*
X196429Y174874D01*
X195900Y175228D01*
X195276Y175352D01*
D02*
G37*
G36*
X158978Y174373D02*
X158354Y174249D01*
X157825Y173896D01*
X157471Y173366D01*
X157347Y172742D01*
X157471Y172118D01*
X157825Y171589D01*
X158354Y171235D01*
X158978Y171111D01*
X159603Y171235D01*
X160132Y171589D01*
X160485Y172118D01*
X160610Y172742D01*
X160485Y173366D01*
X160132Y173896D01*
X159603Y174249D01*
X158978Y174373D01*
D02*
G37*
G36*
X153150Y171694D02*
X152525Y171570D01*
X151996Y171216D01*
X151642Y170687D01*
X151518Y170063D01*
X151642Y169439D01*
X151996Y168909D01*
X152525Y168556D01*
X153150Y168432D01*
X153774Y168556D01*
X154303Y168909D01*
X154657Y169439D01*
X154781Y170063D01*
X154657Y170687D01*
X154303Y171216D01*
X153774Y171570D01*
X153150Y171694D01*
D02*
G37*
G36*
X143110Y166986D02*
X142486Y166861D01*
X141957Y166508D01*
X141603Y165979D01*
X141479Y165354D01*
X141603Y164730D01*
X141957Y164201D01*
X142486Y163847D01*
X143110Y163723D01*
X143735Y163847D01*
X144264Y164201D01*
X144617Y164730D01*
X144742Y165354D01*
X144617Y165979D01*
X144264Y166508D01*
X143735Y166861D01*
X143110Y166986D01*
D02*
G37*
G36*
X57086D02*
X56462Y166861D01*
X55933Y166508D01*
X55579Y165979D01*
X55455Y165354D01*
X55579Y164730D01*
X55933Y164201D01*
X56462Y163847D01*
X57086Y163723D01*
X57711Y163847D01*
X58240Y164201D01*
X58593Y164730D01*
X58718Y165354D01*
X58593Y165979D01*
X58240Y166508D01*
X57711Y166861D01*
X57086Y166986D01*
D02*
G37*
G36*
X79528Y165631D02*
X78903Y165507D01*
X78374Y165154D01*
X78020Y164624D01*
X77896Y164000D01*
X78020Y163376D01*
X78374Y162847D01*
X78903Y162493D01*
X79528Y162369D01*
X80152Y162493D01*
X80681Y162847D01*
X81035Y163376D01*
X81159Y164000D01*
X81035Y164624D01*
X80681Y165154D01*
X80152Y165507D01*
X79528Y165631D01*
D02*
G37*
G36*
X161024Y164309D02*
X160399Y164184D01*
X159870Y163831D01*
X159517Y163302D01*
X159392Y162677D01*
X159517Y162053D01*
X159870Y161524D01*
X160399Y161170D01*
X161024Y161046D01*
X161648Y161170D01*
X162177Y161524D01*
X162531Y162053D01*
X162655Y162677D01*
X162531Y163302D01*
X162177Y163831D01*
X161648Y164184D01*
X161024Y164309D01*
D02*
G37*
G36*
X174434Y162177D02*
X172153D01*
Y159897D01*
X174434D01*
Y162177D01*
D02*
G37*
G36*
X108000Y162631D02*
X107376Y162507D01*
X106846Y162153D01*
X106493Y161624D01*
X106369Y161000D01*
X106493Y160376D01*
X106846Y159846D01*
X107376Y159493D01*
X108000Y159369D01*
X108624Y159493D01*
X109153Y159846D01*
X109507Y160376D01*
X109631Y161000D01*
X109507Y161624D01*
X109153Y162153D01*
X108624Y162507D01*
X108000Y162631D01*
D02*
G37*
G36*
X69860Y162562D02*
X69236Y162438D01*
X68707Y162085D01*
X68353Y161555D01*
X68229Y160931D01*
X68353Y160307D01*
X68707Y159778D01*
X69236Y159424D01*
X69860Y159300D01*
X70485Y159424D01*
X71014Y159778D01*
X71367Y160307D01*
X71492Y160931D01*
X71367Y161555D01*
X71014Y162085D01*
X70485Y162438D01*
X69860Y162562D01*
D02*
G37*
G36*
X84034Y158631D02*
X83409Y158507D01*
X82880Y158153D01*
X82526Y157624D01*
X82402Y157000D01*
X82526Y156376D01*
X82880Y155847D01*
X83409Y155493D01*
X84034Y155369D01*
X84658Y155493D01*
X85187Y155847D01*
X85541Y156376D01*
X85665Y157000D01*
X85541Y157624D01*
X85187Y158153D01*
X84658Y158507D01*
X84034Y158631D01*
D02*
G37*
G36*
X219783Y158324D02*
X219159Y158200D01*
X218630Y157846D01*
X218276Y157317D01*
X218152Y156693D01*
X218276Y156069D01*
X218630Y155539D01*
X219159Y155186D01*
X219783Y155062D01*
X220408Y155186D01*
X220937Y155539D01*
X221291Y156069D01*
X221415Y156693D01*
X221291Y157317D01*
X220937Y157846D01*
X220408Y158200D01*
X219783Y158324D01*
D02*
G37*
G36*
X192520Y157521D02*
X191895Y157397D01*
X191366Y157043D01*
X191013Y156514D01*
X190888Y155890D01*
X191013Y155265D01*
X191366Y154736D01*
X191895Y154383D01*
X192520Y154258D01*
X193144Y154383D01*
X193673Y154736D01*
X194027Y155265D01*
X194151Y155890D01*
X194027Y156514D01*
X193673Y157043D01*
X193144Y157397D01*
X192520Y157521D01*
D02*
G37*
G36*
X74585D02*
X73960Y157397D01*
X73431Y157043D01*
X73077Y156514D01*
X72953Y155890D01*
X73077Y155265D01*
X73431Y154736D01*
X73960Y154383D01*
X74585Y154258D01*
X75209Y154383D01*
X75738Y154736D01*
X76092Y155265D01*
X76216Y155890D01*
X76092Y156514D01*
X75738Y157043D01*
X75209Y157397D01*
X74585Y157521D01*
D02*
G37*
G36*
X147872Y152797D02*
X147248Y152673D01*
X146719Y152319D01*
X146365Y151790D01*
X146241Y151165D01*
X146365Y150541D01*
X146719Y150012D01*
X147248Y149658D01*
X147872Y149534D01*
X148496Y149658D01*
X149026Y150012D01*
X149379Y150541D01*
X149503Y151165D01*
X149379Y151790D01*
X149026Y152319D01*
X148496Y152673D01*
X147872Y152797D01*
D02*
G37*
G36*
X200787Y151631D02*
X200163Y151507D01*
X199634Y151154D01*
X199280Y150624D01*
X199156Y150000D01*
X199280Y149376D01*
X199634Y148846D01*
X200163Y148493D01*
X200787Y148369D01*
X201412Y148493D01*
X201941Y148846D01*
X202295Y149376D01*
X202419Y150000D01*
X202295Y150624D01*
X201941Y151154D01*
X201412Y151507D01*
X200787Y151631D01*
D02*
G37*
G36*
X121829Y145508D02*
X121204Y145384D01*
X120675Y145030D01*
X120322Y144501D01*
X120197Y143877D01*
X120322Y143252D01*
X120675Y142723D01*
X121204Y142369D01*
X121829Y142245D01*
X122453Y142369D01*
X122982Y142723D01*
X123336Y143252D01*
X123460Y143877D01*
X123336Y144501D01*
X122982Y145030D01*
X122453Y145384D01*
X121829Y145508D01*
D02*
G37*
G36*
X108000D02*
X107376Y145384D01*
X106846Y145030D01*
X106493Y144501D01*
X106369Y143877D01*
X106493Y143252D01*
X106846Y142723D01*
X107376Y142369D01*
X108000Y142245D01*
X108624Y142369D01*
X109153Y142723D01*
X109507Y143252D01*
X109631Y143877D01*
X109507Y144501D01*
X109153Y145030D01*
X108624Y145384D01*
X108000Y145508D01*
D02*
G37*
G36*
X227559Y142576D02*
X226935Y142452D01*
X226406Y142098D01*
X226052Y141569D01*
X225928Y140945D01*
X226052Y140321D01*
X226406Y139791D01*
X226935Y139438D01*
X227559Y139313D01*
X228183Y139438D01*
X228713Y139791D01*
X229066Y140321D01*
X229190Y140945D01*
X229066Y141569D01*
X228713Y142098D01*
X228183Y142452D01*
X227559Y142576D01*
D02*
G37*
G36*
X168407Y139427D02*
X167783Y139302D01*
X167254Y138949D01*
X166900Y138420D01*
X166776Y137795D01*
X166900Y137171D01*
X167254Y136642D01*
X167783Y136288D01*
X168407Y136164D01*
X169032Y136288D01*
X169561Y136642D01*
X169915Y137171D01*
X170039Y137795D01*
X169915Y138420D01*
X169561Y138949D01*
X169032Y139302D01*
X168407Y139427D01*
D02*
G37*
G36*
X148000Y135631D02*
X147376Y135507D01*
X146846Y135153D01*
X146493Y134624D01*
X146369Y134000D01*
X146493Y133376D01*
X146846Y132846D01*
X147376Y132493D01*
X148000Y132369D01*
X148624Y132493D01*
X149153Y132846D01*
X149507Y133376D01*
X149631Y134000D01*
X149507Y134624D01*
X149153Y135153D01*
X148624Y135507D01*
X148000Y135631D01*
D02*
G37*
G36*
X66929Y129631D02*
X66305Y129507D01*
X65776Y129154D01*
X65422Y128624D01*
X65298Y128000D01*
X65422Y127376D01*
X65776Y126847D01*
X66305Y126493D01*
X66929Y126369D01*
X67553Y126493D01*
X68083Y126847D01*
X68436Y127376D01*
X68560Y128000D01*
X68436Y128624D01*
X68083Y129154D01*
X67553Y129507D01*
X66929Y129631D01*
D02*
G37*
G36*
X178528Y129327D02*
X177903Y129203D01*
X177374Y128849D01*
X177020Y128320D01*
X176896Y127696D01*
X177020Y127071D01*
X177374Y126542D01*
X177903Y126189D01*
X178528Y126064D01*
X179152Y126189D01*
X179681Y126542D01*
X180035Y127071D01*
X180159Y127696D01*
X180035Y128320D01*
X179681Y128849D01*
X179152Y129203D01*
X178528Y129327D01*
D02*
G37*
G36*
X205512Y124072D02*
X204888Y123948D01*
X204358Y123594D01*
X204005Y123065D01*
X203881Y122441D01*
X204005Y121817D01*
X204358Y121287D01*
X204888Y120934D01*
X205512Y120810D01*
X206136Y120934D01*
X206665Y121287D01*
X207019Y121817D01*
X207143Y122441D01*
X207019Y123065D01*
X206665Y123594D01*
X206136Y123948D01*
X205512Y124072D01*
D02*
G37*
G36*
X180000D02*
X179376Y123948D01*
X178847Y123594D01*
X178493Y123065D01*
X178369Y122441D01*
X178493Y121817D01*
X178847Y121287D01*
X179376Y120934D01*
X180000Y120810D01*
X180624Y120934D01*
X181154Y121287D01*
X181507Y121817D01*
X181631Y122441D01*
X181507Y123065D01*
X181154Y123594D01*
X180624Y123948D01*
X180000Y124072D01*
D02*
G37*
G36*
X208000Y120923D02*
X207376Y120799D01*
X206846Y120445D01*
X206493Y119916D01*
X206369Y119291D01*
X206493Y118667D01*
X206846Y118138D01*
X207376Y117784D01*
X208000Y117660D01*
X208624Y117784D01*
X209154Y118138D01*
X209507Y118667D01*
X209631Y119291D01*
X209507Y119916D01*
X209154Y120445D01*
X208624Y120799D01*
X208000Y120923D01*
D02*
G37*
G36*
X79528Y119566D02*
X78903Y119442D01*
X78374Y119089D01*
X78020Y118559D01*
X77896Y117935D01*
X78020Y117311D01*
X78374Y116781D01*
X78903Y116428D01*
X79528Y116304D01*
X80152Y116428D01*
X80681Y116781D01*
X81035Y117311D01*
X81159Y117935D01*
X81035Y118559D01*
X80681Y119089D01*
X80152Y119442D01*
X79528Y119566D01*
D02*
G37*
G36*
X210700Y117631D02*
X210076Y117507D01*
X209546Y117154D01*
X209193Y116624D01*
X209069Y116000D01*
X209193Y115376D01*
X209546Y114847D01*
X210076Y114493D01*
X210700Y114369D01*
X211324Y114493D01*
X211854Y114847D01*
X212207Y115376D01*
X212331Y116000D01*
X212207Y116624D01*
X211854Y117154D01*
X211324Y117507D01*
X210700Y117631D01*
D02*
G37*
G36*
X148788Y116702D02*
X148164Y116578D01*
X147635Y116224D01*
X147281Y115695D01*
X147157Y115071D01*
X147281Y114447D01*
X147635Y113917D01*
X148164Y113564D01*
X148788Y113440D01*
X149412Y113564D01*
X149942Y113917D01*
X150295Y114447D01*
X150419Y115071D01*
X150295Y115695D01*
X149942Y116224D01*
X149412Y116578D01*
X148788Y116702D01*
D02*
G37*
G36*
X66929D02*
X66305Y116578D01*
X65776Y116224D01*
X65422Y115695D01*
X65298Y115071D01*
X65422Y114447D01*
X65776Y113917D01*
X66305Y113564D01*
X66929Y113440D01*
X67553Y113564D01*
X68083Y113917D01*
X68436Y114447D01*
X68560Y115071D01*
X68436Y115695D01*
X68083Y116224D01*
X67553Y116578D01*
X66929Y116702D01*
D02*
G37*
G36*
X110517Y113836D02*
X109893Y113712D01*
X109363Y113358D01*
X109010Y112829D01*
X108886Y112205D01*
X109010Y111580D01*
X109363Y111051D01*
X109893Y110698D01*
X110517Y110573D01*
X111141Y110698D01*
X111670Y111051D01*
X112024Y111580D01*
X112148Y112205D01*
X112024Y112829D01*
X111670Y113358D01*
X111141Y113712D01*
X110517Y113836D01*
D02*
G37*
G36*
X86614Y108718D02*
X85990Y108594D01*
X85461Y108240D01*
X85107Y107711D01*
X84983Y107087D01*
X85107Y106462D01*
X85461Y105933D01*
X85990Y105579D01*
X86614Y105455D01*
X87239Y105579D01*
X87768Y105933D01*
X88121Y106462D01*
X88245Y107087D01*
X88121Y107711D01*
X87768Y108240D01*
X87239Y108594D01*
X86614Y108718D01*
D02*
G37*
G36*
X138189Y108324D02*
X137565Y108200D01*
X137035Y107846D01*
X136682Y107317D01*
X136558Y106693D01*
X136682Y106069D01*
X137035Y105539D01*
X137565Y105186D01*
X137897Y105120D01*
X137989Y105101D01*
Y104592D01*
X137897Y104573D01*
X137565Y104507D01*
X137035Y104154D01*
X136682Y103624D01*
X136558Y103000D01*
X136682Y102376D01*
X137035Y101847D01*
X137565Y101493D01*
X138189Y101369D01*
X138813Y101493D01*
X139342Y101847D01*
X139696Y102376D01*
X139820Y103000D01*
X139696Y103624D01*
X139342Y104154D01*
X138813Y104507D01*
X138481Y104573D01*
X138389Y104592D01*
Y105101D01*
X138481Y105120D01*
X138813Y105186D01*
X139342Y105539D01*
X139696Y106069D01*
X139820Y106693D01*
X139696Y107317D01*
X139342Y107846D01*
X138813Y108200D01*
X138189Y108324D01*
D02*
G37*
G36*
X106000Y104631D02*
X105376Y104507D01*
X104847Y104154D01*
X104493Y103624D01*
X104369Y103000D01*
X104493Y102376D01*
X104847Y101847D01*
X105376Y101493D01*
X106000Y101369D01*
X106624Y101493D01*
X107153Y101847D01*
X107507Y102376D01*
X107631Y103000D01*
X107507Y103624D01*
X107153Y104154D01*
X106624Y104507D01*
X106000Y104631D01*
D02*
G37*
G36*
X58268D02*
X57643Y104507D01*
X57114Y104154D01*
X56761Y103624D01*
X56636Y103000D01*
X56761Y102376D01*
X57114Y101847D01*
X57643Y101493D01*
X58268Y101369D01*
X58892Y101493D01*
X59421Y101847D01*
X59775Y102376D01*
X59899Y103000D01*
X59775Y103624D01*
X59421Y104154D01*
X58892Y104507D01*
X58268Y104631D01*
D02*
G37*
G36*
X41000Y103631D02*
X40376Y103507D01*
X39847Y103154D01*
X39493Y102624D01*
X39369Y102000D01*
X39493Y101376D01*
X39847Y100847D01*
X40376Y100493D01*
X41000Y100369D01*
X41624Y100493D01*
X42153Y100847D01*
X42507Y101376D01*
X42631Y102000D01*
X42507Y102624D01*
X42153Y103154D01*
X41624Y103507D01*
X41000Y103631D01*
D02*
G37*
G36*
X97120Y99631D02*
X96495Y99507D01*
X95966Y99154D01*
X95613Y98624D01*
X95488Y98000D01*
X95613Y97376D01*
X95966Y96846D01*
X96495Y96493D01*
X97120Y96369D01*
X97744Y96493D01*
X98273Y96846D01*
X98627Y97376D01*
X98751Y98000D01*
X98627Y98624D01*
X98273Y99154D01*
X97744Y99507D01*
X97120Y99631D01*
D02*
G37*
G36*
X142000Y97181D02*
X141376Y97057D01*
X140847Y96703D01*
X140493Y96174D01*
X140369Y95550D01*
X140493Y94926D01*
X140847Y94397D01*
X141376Y94043D01*
X142000Y93919D01*
X142624Y94043D01*
X143154Y94397D01*
X143507Y94926D01*
X143631Y95550D01*
X143507Y96174D01*
X143154Y96703D01*
X142624Y97057D01*
X142000Y97181D01*
D02*
G37*
G36*
X149458Y94840D02*
X148834Y94716D01*
X148305Y94362D01*
X147951Y93833D01*
X147827Y93209D01*
X147951Y92584D01*
X148305Y92055D01*
X148834Y91702D01*
X149458Y91577D01*
X150083Y91702D01*
X150612Y92055D01*
X150965Y92584D01*
X151090Y93209D01*
X150965Y93833D01*
X150612Y94362D01*
X150083Y94716D01*
X149458Y94840D01*
D02*
G37*
G36*
X167717Y86375D02*
X167092Y86251D01*
X166563Y85898D01*
X166209Y85368D01*
X166085Y84744D01*
X166209Y84120D01*
X166563Y83591D01*
X167092Y83237D01*
X167717Y83113D01*
X168341Y83237D01*
X168870Y83591D01*
X169224Y84120D01*
X169348Y84744D01*
X169224Y85368D01*
X168870Y85898D01*
X168341Y86251D01*
X167717Y86375D01*
D02*
G37*
G36*
X44000Y84631D02*
X43376Y84507D01*
X42847Y84153D01*
X42493Y83624D01*
X42369Y83000D01*
X42493Y82376D01*
X42847Y81846D01*
X43376Y81493D01*
X44000Y81369D01*
X44624Y81493D01*
X45153Y81846D01*
X45507Y82376D01*
X45631Y83000D01*
X45507Y83624D01*
X45153Y84153D01*
X44624Y84507D01*
X44000Y84631D01*
D02*
G37*
G36*
X66142Y80552D02*
X65214Y80430D01*
X64350Y80072D01*
X63608Y79502D01*
X63038Y78760D01*
X62680Y77896D01*
X62558Y76968D01*
Y73032D01*
X62680Y72104D01*
X63038Y71240D01*
X63608Y70498D01*
X64350Y69928D01*
X65214Y69570D01*
X66142Y69448D01*
X67069Y69570D01*
X67933Y69928D01*
X68676Y70498D01*
X69245Y71240D01*
X69603Y72104D01*
X69725Y73032D01*
Y76968D01*
X69603Y77896D01*
X69245Y78760D01*
X68676Y79502D01*
X67933Y80072D01*
X67069Y80430D01*
X66142Y80552D01*
D02*
G37*
G36*
X58268D02*
X57340Y80430D01*
X56476Y80072D01*
X55734Y79502D01*
X55164Y78760D01*
X54806Y77896D01*
X54684Y76968D01*
Y73032D01*
X54806Y72104D01*
X55164Y71240D01*
X55734Y70498D01*
X56476Y69928D01*
X57340Y69570D01*
X58268Y69448D01*
X59195Y69570D01*
X60059Y69928D01*
X60802Y70498D01*
X61371Y71240D01*
X61729Y72104D01*
X61851Y73032D01*
Y76968D01*
X61729Y77896D01*
X61371Y78760D01*
X60802Y79502D01*
X60059Y80072D01*
X59195Y80430D01*
X58268Y80552D01*
D02*
G37*
G36*
X50394D02*
X49466Y80430D01*
X48602Y80072D01*
X47860Y79502D01*
X47290Y78760D01*
X46932Y77896D01*
X46810Y76968D01*
Y73032D01*
X46932Y72104D01*
X47290Y71240D01*
X47860Y70498D01*
X48602Y69928D01*
X49466Y69570D01*
X50394Y69448D01*
X51321Y69570D01*
X52185Y69928D01*
X52928Y70498D01*
X53497Y71240D01*
X53855Y72104D01*
X53977Y73032D01*
Y76968D01*
X53855Y77896D01*
X53497Y78760D01*
X52928Y79502D01*
X52185Y80072D01*
X51321Y80430D01*
X50394Y80552D01*
D02*
G37*
G36*
X145543Y63245D02*
X144919Y63121D01*
X144390Y62767D01*
X144036Y62238D01*
X143912Y61613D01*
X144036Y60989D01*
X144390Y60460D01*
X144919Y60106D01*
X145543Y59982D01*
X146168Y60106D01*
X146697Y60460D01*
X147050Y60989D01*
X147175Y61613D01*
X147050Y62238D01*
X146697Y62767D01*
X146168Y63121D01*
X145543Y63245D01*
D02*
G37*
G36*
X106000Y59631D02*
X105376Y59507D01*
X104847Y59153D01*
X104493Y58624D01*
X104369Y58000D01*
X104493Y57376D01*
X104847Y56846D01*
X105376Y56493D01*
X106000Y56369D01*
X106624Y56493D01*
X107153Y56846D01*
X107507Y57376D01*
X107631Y58000D01*
X107507Y58624D01*
X107153Y59153D01*
X106624Y59507D01*
X106000Y59631D01*
D02*
G37*
G36*
X180000Y55631D02*
X179376Y55507D01*
X178847Y55154D01*
X178493Y54624D01*
X178369Y54000D01*
X178493Y53376D01*
X178847Y52846D01*
X179376Y52493D01*
X180000Y52369D01*
X180624Y52493D01*
X181154Y52846D01*
X181507Y53376D01*
X181631Y54000D01*
X181507Y54624D01*
X181154Y55154D01*
X180624Y55507D01*
X180000Y55631D01*
D02*
G37*
G36*
X165000Y50450D02*
X164376Y50326D01*
X163847Y49972D01*
X163493Y49443D01*
X163369Y48819D01*
X163493Y48195D01*
X163847Y47665D01*
X164376Y47312D01*
X165000Y47188D01*
X165624Y47312D01*
X166154Y47665D01*
X166507Y48195D01*
X166631Y48819D01*
X166507Y49443D01*
X166154Y49972D01*
X165624Y50326D01*
X165000Y50450D01*
D02*
G37*
G36*
X144122Y48631D02*
X143498Y48507D01*
X142968Y48153D01*
X142615Y47624D01*
X142491Y47000D01*
X142615Y46376D01*
X142968Y45847D01*
X143498Y45493D01*
X144122Y45369D01*
X144746Y45493D01*
X145276Y45847D01*
X145629Y46376D01*
X145753Y47000D01*
X145629Y47624D01*
X145276Y48153D01*
X144746Y48507D01*
X144122Y48631D01*
D02*
G37*
G36*
X94784Y52402D02*
X90847D01*
X89919Y52280D01*
X89055Y51922D01*
X88313Y51353D01*
X87743Y50611D01*
X87385Y49746D01*
X87263Y48819D01*
X87385Y47891D01*
X87743Y47027D01*
X88313Y46285D01*
X89055Y45716D01*
X89919Y45358D01*
X90847Y45235D01*
X94784D01*
X95711Y45358D01*
X96575Y45716D01*
X97317Y46285D01*
X97887Y47027D01*
X98245Y47891D01*
X98367Y48819D01*
X98245Y49746D01*
X97887Y50611D01*
X97317Y51353D01*
X96575Y51922D01*
X95711Y52280D01*
X94784Y52402D01*
D02*
G37*
G36*
X167717Y42576D02*
X167092Y42452D01*
X166563Y42098D01*
X166209Y41569D01*
X166085Y40945D01*
X166209Y40321D01*
X166563Y39791D01*
X167092Y39438D01*
X167717Y39314D01*
X168341Y39438D01*
X168870Y39791D01*
X169224Y40321D01*
X169348Y40945D01*
X169224Y41569D01*
X168870Y42098D01*
X168341Y42452D01*
X167717Y42576D01*
D02*
G37*
G36*
X94784Y44528D02*
X90847D01*
X89919Y44406D01*
X89055Y44048D01*
X88313Y43479D01*
X87743Y42737D01*
X87385Y41872D01*
X87263Y40945D01*
X87385Y40017D01*
X87743Y39153D01*
X88313Y38411D01*
X89055Y37842D01*
X89919Y37484D01*
X90847Y37361D01*
X94784D01*
X95711Y37484D01*
X96575Y37842D01*
X97317Y38411D01*
X97887Y39153D01*
X98245Y40017D01*
X98367Y40945D01*
X98245Y41872D01*
X97887Y42737D01*
X97317Y43479D01*
X96575Y44048D01*
X95711Y44406D01*
X94784Y44528D01*
D02*
G37*
G36*
X194000Y36277D02*
X193376Y36153D01*
X192847Y35799D01*
X192493Y35270D01*
X192369Y34646D01*
X192493Y34021D01*
X192847Y33492D01*
X193376Y33138D01*
X194000Y33014D01*
X194624Y33138D01*
X195153Y33492D01*
X195507Y34021D01*
X195631Y34646D01*
X195507Y35270D01*
X195153Y35799D01*
X194624Y36153D01*
X194000Y36277D01*
D02*
G37*
G36*
X94784Y36654D02*
X90847D01*
X89919Y36532D01*
X89055Y36174D01*
X88313Y35605D01*
X87743Y34863D01*
X87385Y33998D01*
X87263Y33071D01*
X87385Y32143D01*
X87743Y31279D01*
X88313Y30537D01*
X89055Y29967D01*
X89919Y29610D01*
X90847Y29487D01*
X94784D01*
X95711Y29610D01*
X96575Y29967D01*
X97317Y30537D01*
X97887Y31279D01*
X98245Y32143D01*
X98367Y33071D01*
X98245Y33998D01*
X97887Y34863D01*
X97317Y35605D01*
X96575Y36174D01*
X95711Y36532D01*
X94784Y36654D01*
D02*
G37*
G36*
X134547Y30631D02*
X133923Y30507D01*
X133394Y30154D01*
X133040Y29624D01*
X132916Y29000D01*
X133040Y28376D01*
X133394Y27847D01*
X133923Y27493D01*
X134547Y27369D01*
X135171Y27493D01*
X135701Y27847D01*
X136054Y28376D01*
X136179Y29000D01*
X136054Y29624D01*
X135701Y30154D01*
X135171Y30507D01*
X134547Y30631D01*
D02*
G37*
G36*
X106000Y26828D02*
X105376Y26704D01*
X104847Y26350D01*
X104493Y25821D01*
X104369Y25197D01*
X104493Y24573D01*
X104847Y24043D01*
X105376Y23690D01*
X106000Y23565D01*
X106624Y23690D01*
X107153Y24043D01*
X107507Y24573D01*
X107631Y25197D01*
X107507Y25821D01*
X107153Y26350D01*
X106624Y26704D01*
X106000Y26828D01*
D02*
G37*
G36*
X138189Y14631D02*
X137565Y14507D01*
X137035Y14153D01*
X136682Y13624D01*
X136558Y13000D01*
X136682Y12376D01*
X137035Y11846D01*
X137565Y11493D01*
X138189Y11369D01*
X138813Y11493D01*
X139342Y11846D01*
X139696Y12376D01*
X139820Y13000D01*
X139696Y13624D01*
X139342Y14153D01*
X138813Y14507D01*
X138189Y14631D01*
D02*
G37*
%LPD*%
D119*
X171653Y162677D02*
D03*
D125*
X132000Y139982D02*
D03*
X231210Y199127D02*
D03*
X226378Y204784D02*
D03*
Y199521D02*
D03*
X227059Y208699D02*
D03*
X264875Y232000D02*
D03*
X268787Y232000D02*
D03*
X264875Y235000D02*
D03*
X268787D02*
D03*
Y238000D02*
D03*
X264875D02*
D03*
X282283Y205512D02*
D03*
X278091D02*
D03*
X274721D02*
D03*
X271650D02*
D03*
Y208699D02*
D03*
X274721D02*
D03*
X282283D02*
D03*
X278091D02*
D03*
X282283Y212598D02*
D03*
X278091D02*
D03*
Y216219D02*
D03*
X282283Y216123D02*
D03*
Y219291D02*
D03*
X278091D02*
D03*
X274721D02*
D03*
X187000Y225736D02*
D03*
X123151Y278291D02*
D03*
X182450Y166593D02*
D03*
X175300Y233268D02*
D03*
X172738Y293926D02*
D03*
X118012Y208957D02*
D03*
X48945Y129945D02*
D03*
X74585Y94488D02*
D03*
X192520Y134667D02*
D03*
X136000Y122441D02*
D03*
X132000Y136000D02*
D03*
X106209Y214280D02*
D03*
X226772Y277165D02*
D03*
X135987Y290720D02*
D03*
X77953Y216142D02*
D03*
X115748Y249213D02*
D03*
X111396Y309055D02*
D03*
M02*
