G04*
G04 #@! TF.GenerationSoftware,Altium Limited,Altium Designer,21.1.1 (26)*
G04*
G04 Layer_Physical_Order=4*
G04 Layer_Color=16711680*
%FSLAX25Y25*%
%MOIN*%
G70*
G04*
G04 #@! TF.SameCoordinates,BA33E46C-C8C0-473A-8748-ADA81A7699FD*
G04*
G04*
G04 #@! TF.FilePolarity,Positive*
G04*
G01*
G75*
%ADD16C,0.00800*%
%ADD105R,0.03937X0.03937*%
%ADD106C,0.03937*%
%ADD107C,0.07008*%
%ADD117C,0.01500*%
%ADD118C,0.03960*%
%ADD119R,0.03960X0.03960*%
%ADD120O,0.09843X0.05906*%
%ADD121O,0.05906X0.09843*%
%ADD122C,0.05906*%
%ADD123R,0.05906X0.05906*%
%ADD124C,0.14173*%
%ADD125C,0.02000*%
D16*
X287000Y189370D02*
X287000Y189370D01*
X283465Y189370D02*
X287000D01*
X40000Y236439D02*
Y248000D01*
Y236439D02*
X40612Y235827D01*
X49450Y239050D02*
Y246892D01*
Y239050D02*
X49500Y239000D01*
X49400Y246942D02*
X49450Y246892D01*
X111407Y224792D02*
X111417Y224803D01*
X111407Y216153D02*
Y224792D01*
X111396Y216142D02*
X111407Y216153D01*
X79134Y262795D02*
X79527Y262402D01*
X107181Y226378D02*
X107574Y226772D01*
X283146Y174409D02*
X292028D01*
X282677Y174878D02*
X283146Y174409D01*
X282677Y174878D02*
Y188583D01*
X283465Y189370D01*
X292028Y174409D02*
X292126Y174311D01*
D105*
X301378Y178051D02*
D03*
D106*
Y173130D02*
D03*
D107*
X300984Y259055D02*
D03*
D117*
X218896Y290720D02*
X222441Y287175D01*
X210700Y159700D02*
X222441Y171441D01*
Y287175D01*
X208000Y161409D02*
X220341Y173750D01*
X207087Y288739D02*
X220341Y275485D01*
Y173750D02*
Y275485D01*
X191000Y211713D02*
X207087Y227799D01*
X168407Y211713D02*
X191000D01*
X207087Y227799D02*
Y248000D01*
X168407Y137795D02*
Y143593D01*
X156299Y155701D02*
Y158000D01*
Y155701D02*
X168407Y143593D01*
X151795Y137795D02*
X168407D01*
X34226Y246705D02*
X34931Y246000D01*
X34226Y246705D02*
Y253232D01*
X8268Y263114D02*
X10374Y265220D01*
X209000Y290720D02*
X218896D01*
X31638Y254108D02*
X33071Y255541D01*
X31638Y242000D02*
Y254108D01*
X33071Y255541D02*
Y256235D01*
X34931Y232799D02*
Y246000D01*
X92432Y121329D02*
X95761Y118000D01*
X88700Y164000D02*
X92937Y159763D01*
Y158520D02*
Y159763D01*
X95761Y118000D02*
X141989D01*
X92432Y158015D02*
X92937Y158520D01*
X92432Y121329D02*
Y158015D01*
X164164Y207962D02*
X182377D01*
X186000Y130441D02*
Y204338D01*
X182377Y207962D02*
X186000Y204338D01*
X143989Y228137D02*
X164164Y207962D01*
X143989Y228137D02*
Y253584D01*
X119879Y192068D02*
X178528D01*
X119000Y191189D02*
X119879Y192068D01*
X119000Y180000D02*
Y191189D01*
X180000Y131971D02*
Y190595D01*
X178528Y192068D02*
X180000Y190595D01*
X194000Y34646D02*
Y117971D01*
X180000Y131971D02*
X194000Y117971D01*
X130709Y254463D02*
X143110D01*
X143989Y253584D01*
X180000Y54000D02*
Y122441D01*
X197000Y45000D02*
Y119441D01*
X186000Y130441D02*
X197000Y119441D01*
X170000Y235000D02*
Y276007D01*
X172738Y235830D02*
Y293926D01*
Y235830D02*
X175300Y233268D01*
X205512Y162205D02*
X210000Y166693D01*
Y281000D01*
X130709Y254463D02*
Y301969D01*
X49500Y239000D02*
X64257D01*
X65136Y212205D02*
Y238121D01*
X64257Y239000D02*
X65136Y238121D01*
X52105Y243701D02*
Y245698D01*
X53383Y246976D01*
X98207Y207228D02*
X98353Y207081D01*
X98207Y207228D02*
Y223928D01*
X98353Y207000D02*
Y207081D01*
X98207Y223928D02*
Y254235D01*
X98353Y254382D01*
Y254463D01*
X94882Y220866D02*
Y240118D01*
X87402Y247598D02*
X94882Y240118D01*
X87402Y247598D02*
Y262402D01*
X79527Y246000D02*
Y262402D01*
X88583Y226378D02*
Y236945D01*
X79527Y246000D02*
X88583Y236945D01*
X87205Y262598D02*
X87402Y262402D01*
X87205Y262598D02*
Y289805D01*
X87008Y290002D02*
X87205Y289805D01*
X79134Y262795D02*
Y290002D01*
X158978Y172742D02*
X161024Y170697D01*
Y162677D02*
Y170697D01*
X200787Y150000D02*
Y189370D01*
X148788Y93960D02*
Y115071D01*
Y93960D02*
X149458Y93290D01*
Y93209D02*
Y93290D01*
X142000Y99879D02*
Y105814D01*
X138189Y106693D02*
X141121D01*
X142000Y105814D01*
X141121Y99000D02*
X142000Y99879D01*
X134547Y95432D02*
X138115Y99000D01*
X141121D01*
X134547Y29000D02*
Y95432D01*
X146694Y127147D02*
X155905Y117935D01*
X147943Y133943D02*
X148000Y134000D01*
X147943Y130861D02*
Y133943D01*
X146694Y129613D02*
X147943Y130861D01*
X146694Y127147D02*
Y129613D01*
X155905Y80811D02*
Y117935D01*
Y80811D02*
X167717Y69000D01*
Y40945D02*
Y69000D01*
X165000Y48819D02*
Y65755D01*
X136000Y133696D02*
X152755Y116940D01*
Y78000D02*
X165000Y65755D01*
X152755Y78000D02*
Y116940D01*
X136000Y133696D02*
Y184000D01*
X58833Y149904D02*
X69860Y160931D01*
X58268Y149904D02*
X58833D01*
X54000Y99000D02*
Y145636D01*
X58268Y149904D01*
X54000Y99000D02*
X55000Y98000D01*
X97120D01*
X58268Y103000D02*
Y132268D01*
X63795Y137795D01*
X145543Y61613D02*
Y114446D01*
X141989Y118000D02*
X145543Y114446D01*
X79528Y164000D02*
X88700D01*
X63795Y137795D02*
X83155D01*
X84034Y138674D02*
Y157000D01*
X83155Y137795D02*
X84034Y138674D01*
X140645Y199000D02*
X140913Y198731D01*
X177000D01*
X143989Y159700D02*
X154599D01*
X143110Y160579D02*
Y165354D01*
Y160579D02*
X143989Y159700D01*
X154599D02*
X156299Y158000D01*
X148000Y134000D02*
X151795Y137795D01*
X192520Y155890D02*
Y170965D01*
X195276Y173721D01*
X79528Y114173D02*
Y117935D01*
X227559Y67559D02*
Y140945D01*
X223000Y63000D02*
X227559Y67559D01*
X227264Y164173D02*
X281890D01*
X219783Y156693D02*
X227264Y164173D01*
X210700Y116000D02*
Y159700D01*
X106000Y103000D02*
X138189D01*
X66929Y115071D02*
Y128000D01*
X208000Y119291D02*
Y161409D01*
X86614Y107087D02*
X87008Y106693D01*
X138189D01*
X81496Y112205D02*
X110517D01*
X79528Y114173D02*
X81496Y112205D01*
X205512Y122441D02*
Y162205D01*
X107574Y226772D02*
X107656D01*
X8268Y253937D02*
Y263114D01*
X140645Y175802D02*
X142519Y177677D01*
X140645Y171852D02*
Y175802D01*
Y171852D02*
X143110Y169386D01*
Y165354D02*
Y169386D01*
X281890Y164173D02*
X298819Y147244D01*
X66929Y256235D02*
X69860Y253304D01*
Y216142D02*
Y253304D01*
X53383Y246976D02*
Y254463D01*
D118*
X166654Y182677D02*
D03*
X171653D02*
D03*
Y172677D02*
D03*
Y177677D02*
D03*
X166654Y172677D02*
D03*
Y177677D02*
D03*
Y167677D02*
D03*
Y162677D02*
D03*
X171653Y167677D02*
D03*
D119*
Y162677D02*
D03*
D120*
X92815Y33071D02*
D03*
Y40945D02*
D03*
Y48819D02*
D03*
D121*
X66142Y75000D02*
D03*
X58268D02*
D03*
X50394D02*
D03*
D122*
X95276Y262402D02*
D03*
X87402D02*
D03*
X103150D02*
D03*
X94882Y290002D02*
D03*
X87008D02*
D03*
X102756D02*
D03*
D123*
X79527Y262402D02*
D03*
X79134Y290002D02*
D03*
D124*
X9843Y9843D02*
D03*
X305118D02*
D03*
X9252Y303346D02*
D03*
X304280Y303000D02*
D03*
D125*
X238000Y200476D02*
D03*
X239000Y193772D02*
D03*
X132000Y139982D02*
D03*
X121829Y143877D02*
D03*
X108000D02*
D03*
X32123D02*
D03*
X32065Y205689D02*
D03*
X127502Y228740D02*
D03*
X108000Y161000D02*
D03*
X57086Y165354D02*
D03*
X231210Y199127D02*
D03*
X226378Y204784D02*
D03*
Y199521D02*
D03*
X227059Y208699D02*
D03*
X264875Y232000D02*
D03*
X268787Y232000D02*
D03*
X264875Y235000D02*
D03*
X268787D02*
D03*
Y238000D02*
D03*
X264875D02*
D03*
X272150Y200679D02*
D03*
X282283Y205512D02*
D03*
X278091D02*
D03*
X274721D02*
D03*
X271650D02*
D03*
Y208699D02*
D03*
X274721D02*
D03*
X282283D02*
D03*
X278091D02*
D03*
X282283Y212598D02*
D03*
X278091D02*
D03*
Y216219D02*
D03*
X282283Y216123D02*
D03*
Y219291D02*
D03*
X278091D02*
D03*
X274721D02*
D03*
X286306Y294015D02*
D03*
X187000Y225736D02*
D03*
X246000Y183000D02*
D03*
X212992Y248000D02*
D03*
X111396Y237795D02*
D03*
X287000Y189370D02*
D03*
X37900Y245163D02*
D03*
X40000Y248000D02*
D03*
X34931Y246000D02*
D03*
X10374Y265220D02*
D03*
X123151Y278291D02*
D03*
X209000Y290720D02*
D03*
X34226Y253232D02*
D03*
X33071Y256235D02*
D03*
X140775Y182677D02*
D03*
X140157Y204283D02*
D03*
X42488Y246063D02*
D03*
X63000Y243701D02*
D03*
X294000Y177000D02*
D03*
X119000Y180000D02*
D03*
X182450Y166593D02*
D03*
X194000Y34646D02*
D03*
X180000Y122441D02*
D03*
X178528Y127696D02*
D03*
X197000Y45000D02*
D03*
X170000Y235000D02*
D03*
Y276007D02*
D03*
X194628Y297450D02*
D03*
X207087Y288739D02*
D03*
X175300Y233268D02*
D03*
X210000Y281000D02*
D03*
X172738Y293926D02*
D03*
X177000Y291616D02*
D03*
X186000Y295000D02*
D03*
X130709Y254463D02*
D03*
Y301969D02*
D03*
X52105Y243701D02*
D03*
X49500Y239000D02*
D03*
X40612Y235827D02*
D03*
X31638Y242000D02*
D03*
X49400Y246942D02*
D03*
X34931Y232799D02*
D03*
X111396Y216142D02*
D03*
X111417Y224803D02*
D03*
X98353Y207000D02*
D03*
X98207Y223928D02*
D03*
X98353Y254463D02*
D03*
X153150Y170063D02*
D03*
X142519Y177677D02*
D03*
X158978Y172742D02*
D03*
X200787Y150000D02*
D03*
X195276Y173721D02*
D03*
X180000Y54000D02*
D03*
X148788Y115071D02*
D03*
X149458Y93209D02*
D03*
X134547Y29000D02*
D03*
X167717Y84744D02*
D03*
Y40945D02*
D03*
X165000Y48819D02*
D03*
X136000Y184000D02*
D03*
X144122Y47000D02*
D03*
X138189Y13000D02*
D03*
X58268Y103000D02*
D03*
X97120Y98000D02*
D03*
X69860Y160931D02*
D03*
X145543Y61613D02*
D03*
X79528Y164000D02*
D03*
X74585Y210630D02*
D03*
X106000Y58000D02*
D03*
Y25197D02*
D03*
X84034Y157000D02*
D03*
X118012Y208957D02*
D03*
X123228D02*
D03*
X48945Y129945D02*
D03*
X74585Y94488D02*
D03*
X142000Y95550D02*
D03*
X140645Y199000D02*
D03*
X177000Y198731D02*
D03*
X44000Y83000D02*
D03*
X41000Y102000D02*
D03*
X147872Y151165D02*
D03*
X192520Y134667D02*
D03*
X148000Y134000D02*
D03*
X168407Y137795D02*
D03*
X136000Y122441D02*
D03*
X132000Y136000D02*
D03*
X168407Y211713D02*
D03*
X74585Y155890D02*
D03*
X79528Y117935D02*
D03*
X175886Y174803D02*
D03*
X106209Y214280D02*
D03*
X207087Y248000D02*
D03*
X236055Y265913D02*
D03*
X226772Y277165D02*
D03*
X220866Y294390D02*
D03*
X227559Y140945D02*
D03*
X223000Y63000D02*
D03*
X141339Y267323D02*
D03*
X143000Y308000D02*
D03*
X181362Y297390D02*
D03*
X219783Y156693D02*
D03*
X210700Y116000D02*
D03*
X138189Y103000D02*
D03*
X106000D02*
D03*
X66929Y115071D02*
D03*
Y128000D02*
D03*
X208000Y119291D02*
D03*
X138189Y106693D02*
D03*
X86614Y107087D02*
D03*
X110517Y112205D02*
D03*
X205512Y122441D02*
D03*
X168407Y292616D02*
D03*
X135987Y290720D02*
D03*
X77953Y216142D02*
D03*
X115748Y249213D02*
D03*
X111396Y309055D02*
D03*
X129134Y220866D02*
D03*
X107656Y226772D02*
D03*
X94882Y220866D02*
D03*
X88583Y226378D02*
D03*
X122350Y262402D02*
D03*
X117572Y290441D02*
D03*
X56500Y287992D02*
D03*
X66601Y296126D02*
D03*
X7881Y267323D02*
D03*
X8268Y253937D02*
D03*
X6693Y231102D02*
D03*
X161024Y177677D02*
D03*
Y162677D02*
D03*
X143095Y174787D02*
D03*
X143110Y165354D02*
D03*
X192520Y155890D02*
D03*
X200787Y189370D02*
D03*
X298819Y147244D02*
D03*
X66929Y256235D02*
D03*
X65136Y212205D02*
D03*
X69860Y216142D02*
D03*
X292126Y174311D02*
D03*
X53383Y254463D02*
D03*
X41517Y258892D02*
D03*
Y255349D02*
D03*
Y251805D02*
D03*
X45454D02*
D03*
Y255349D02*
D03*
Y258892D02*
D03*
M02*
