G04*
G04 #@! TF.GenerationSoftware,Altium Limited,Altium Designer,21.1.1 (26)*
G04*
G04 Layer_Physical_Order=1*
G04 Layer_Color=255*
%FSLAX25Y25*%
%MOIN*%
G70*
G04*
G04 #@! TF.SameCoordinates,BA33E46C-C8C0-473A-8748-ADA81A7699FD*
G04*
G04*
G04 #@! TF.FilePolarity,Positive*
G04*
G01*
G75*
%ADD11C,0.01000*%
%ADD12C,0.02000*%
%ADD16C,0.00800*%
%ADD17C,0.00600*%
%ADD18C,0.00500*%
%ADD23R,0.02165X0.01378*%
%ADD25R,0.04134X0.02559*%
%ADD26R,0.03937X0.03543*%
%ADD27R,0.15984X0.12992*%
%ADD28R,0.25000X0.15000*%
%ADD29R,0.25000X0.12992*%
%ADD30C,0.05000*%
%ADD31R,0.04528X0.05709*%
%ADD32R,0.07874X0.07874*%
%ADD33R,0.04724X0.02756*%
%ADD34R,0.02756X0.04724*%
%ADD35R,0.03543X0.03937*%
%ADD36R,0.06890X0.02362*%
%ADD37R,0.04724X0.04724*%
%ADD38R,0.05906X0.06299*%
%ADD39R,0.04724X0.04724*%
%ADD40R,0.04331X0.04331*%
%ADD41R,0.05709X0.04528*%
%ADD42R,0.05315X0.03740*%
%ADD43R,0.02756X0.03543*%
%ADD44R,0.02559X0.04134*%
%ADD45R,0.01575X0.05315*%
%ADD46R,0.08268X0.07874*%
%ADD47R,0.06299X0.07480*%
%ADD48R,0.04724X0.07480*%
%ADD49R,0.05315X0.01772*%
G04:AMPARAMS|DCode=50|XSize=23.62mil|YSize=9.84mil|CornerRadius=2.46mil|HoleSize=0mil|Usage=FLASHONLY|Rotation=90.000|XOffset=0mil|YOffset=0mil|HoleType=Round|Shape=RoundedRectangle|*
%AMROUNDEDRECTD50*
21,1,0.02362,0.00492,0,0,90.0*
21,1,0.01870,0.00984,0,0,90.0*
1,1,0.00492,0.00246,0.00935*
1,1,0.00492,0.00246,-0.00935*
1,1,0.00492,-0.00246,-0.00935*
1,1,0.00492,-0.00246,0.00935*
%
%ADD50ROUNDEDRECTD50*%
G04:AMPARAMS|DCode=51|XSize=39.37mil|YSize=7.87mil|CornerRadius=1.97mil|HoleSize=0mil|Usage=FLASHONLY|Rotation=90.000|XOffset=0mil|YOffset=0mil|HoleType=Round|Shape=RoundedRectangle|*
%AMROUNDEDRECTD51*
21,1,0.03937,0.00394,0,0,90.0*
21,1,0.03543,0.00787,0,0,90.0*
1,1,0.00394,0.00197,0.01772*
1,1,0.00394,0.00197,-0.01772*
1,1,0.00394,-0.00197,-0.01772*
1,1,0.00394,-0.00197,0.01772*
%
%ADD51ROUNDEDRECTD51*%
%ADD52R,0.06299X0.09843*%
%ADD53R,0.01575X0.00984*%
%ADD54R,0.05512X0.03937*%
%ADD55R,0.07480X0.04331*%
%ADD56R,0.03150X0.03150*%
%ADD57R,0.02756X0.02362*%
%ADD58R,0.02756X0.03937*%
%ADD59R,0.07480X0.05315*%
%ADD60R,0.04724X0.03937*%
%ADD61R,0.06102X0.05315*%
%ADD62R,0.03347X0.04331*%
%ADD63R,0.02953X0.04331*%
%ADD64R,0.04606X0.07087*%
%ADD67R,0.02756X0.06299*%
%ADD105R,0.03937X0.03937*%
%ADD106C,0.03937*%
%ADD107C,0.07008*%
%ADD116C,0.04000*%
%ADD117C,0.01500*%
%ADD118C,0.03960*%
%ADD119R,0.03960X0.03960*%
%ADD120O,0.09843X0.05906*%
%ADD121O,0.05906X0.09843*%
%ADD122C,0.05906*%
%ADD123R,0.05906X0.05906*%
%ADD124C,0.14173*%
%ADD125C,0.02000*%
G36*
X300163Y309515D02*
X299989Y309422D01*
X298818Y308461D01*
X297858Y307291D01*
X297144Y305956D01*
X296705Y304507D01*
X296556Y303000D01*
X296705Y301493D01*
X297144Y300044D01*
X297858Y298709D01*
X298818Y297538D01*
X299989Y296578D01*
X301324Y295864D01*
X302773Y295425D01*
X304280Y295276D01*
X305787Y295425D01*
X307236Y295864D01*
X308571Y296578D01*
X309741Y297538D01*
X310702Y298709D01*
X311416Y300044D01*
X311500Y300322D01*
X312000Y300248D01*
Y232649D01*
X299481D01*
X299281Y232783D01*
Y241840D01*
X276080D01*
X275946Y242040D01*
Y243000D01*
X275756Y243459D01*
X275297Y243649D01*
X260917Y243649D01*
X260458Y243459D01*
X260268Y243000D01*
Y225736D01*
X260458Y225277D01*
X260917Y225087D01*
X272881Y225087D01*
X273340Y225277D01*
X273491Y225640D01*
X289217D01*
X289351Y225440D01*
Y211000D01*
X289541Y210541D01*
X290000Y210351D01*
X293688D01*
X293697Y210354D01*
X293888Y210227D01*
Y210227D01*
X299025D01*
Y210227D01*
X299216Y210354D01*
X299225Y210351D01*
X312000D01*
Y87321D01*
X311600Y87080D01*
X305401D01*
Y22924D01*
X304901Y22717D01*
X303618Y24000D01*
X300600D01*
Y77582D01*
X294401D01*
Y24000D01*
X156086D01*
X155791Y24500D01*
X155883Y25197D01*
X155776Y26006D01*
X155464Y26760D01*
X154967Y27408D01*
X154319Y27905D01*
X153565Y28217D01*
X152756Y28324D01*
X151947Y28217D01*
X151192Y27905D01*
X150545Y27408D01*
X150048Y26760D01*
X149971Y26573D01*
X138920D01*
X136100Y29394D01*
X136054Y29624D01*
X135701Y30154D01*
X135171Y30507D01*
X134547Y30631D01*
X133923Y30507D01*
X133394Y30154D01*
X133040Y29624D01*
X132916Y29000D01*
X133040Y28376D01*
X133394Y27847D01*
X133923Y27493D01*
X134154Y27447D01*
X137101Y24500D01*
X136893Y24000D01*
X6000D01*
Y101627D01*
X6500Y101874D01*
X6689Y101729D01*
X7321Y101467D01*
X8000Y101378D01*
X8679Y101467D01*
X9311Y101729D01*
X9854Y102146D01*
X10271Y102689D01*
X10533Y103321D01*
X10622Y104000D01*
X10533Y104679D01*
X10271Y105311D01*
X9854Y105854D01*
X9311Y106271D01*
X8679Y106533D01*
X8000Y106622D01*
X7321Y106533D01*
X6689Y106271D01*
X6500Y106126D01*
X6000Y106373D01*
Y123226D01*
X13251Y130476D01*
X24016D01*
X24072Y130488D01*
X24129Y130483D01*
X24479Y130522D01*
X24589Y130556D01*
X24702Y130572D01*
X25036Y130689D01*
X25134Y130747D01*
X25242Y130788D01*
X25540Y130975D01*
X25566Y131000D01*
X29000D01*
Y217521D01*
X32648D01*
X32725Y217334D01*
X33222Y216687D01*
X33870Y216190D01*
X34624Y215877D01*
X35433Y215771D01*
X36242Y215877D01*
X36996Y216190D01*
X37644Y216687D01*
X38141Y217334D01*
X38453Y218088D01*
X38560Y218898D01*
X38453Y219707D01*
X38141Y220461D01*
X37644Y221109D01*
X36996Y221605D01*
X36242Y221918D01*
X35433Y222024D01*
X34624Y221918D01*
X33870Y221605D01*
X33222Y221109D01*
X32725Y220461D01*
X32648Y220274D01*
X29000D01*
Y221873D01*
X27873Y223000D01*
X25717D01*
X23137Y225580D01*
X22691Y225878D01*
X22164Y225983D01*
X16151D01*
Y228946D01*
X15156D01*
Y233554D01*
X16643D01*
Y240462D01*
X14687D01*
Y244687D01*
X34017D01*
X34307Y244493D01*
X34931Y244369D01*
X35556Y244493D01*
X36085Y244847D01*
X36439Y245376D01*
X36563Y246000D01*
X36439Y246624D01*
X36085Y247153D01*
X35556Y247507D01*
X34931Y247631D01*
X34307Y247507D01*
X34206Y247439D01*
X20162D01*
X20113Y247939D01*
X20121Y247941D01*
X20567Y248239D01*
X21446Y249118D01*
X21744Y249565D01*
X21849Y250091D01*
Y251565D01*
X23041D01*
Y256309D01*
X17904D01*
Y251565D01*
X19096D01*
Y250661D01*
X19024Y250589D01*
X11440D01*
X10913Y250484D01*
X10467Y250186D01*
X10168Y249739D01*
X10063Y249213D01*
Y247439D01*
X4205D01*
X4132Y247512D01*
Y266279D01*
X5698Y267845D01*
X5996Y268291D01*
X6101Y268818D01*
Y273052D01*
X12764Y279715D01*
X16742D01*
Y284852D01*
X10030D01*
Y280874D01*
X3751Y274595D01*
X3453Y274149D01*
X3348Y273622D01*
Y269745D01*
X3256Y269684D01*
X2756Y269951D01*
Y298357D01*
X3256Y298536D01*
X3790Y297885D01*
X4961Y296924D01*
X6296Y296211D01*
X7745Y295771D01*
X9252Y295623D01*
X10759Y295771D01*
X12208Y296211D01*
X13543Y296924D01*
X14714Y297885D01*
X15674Y299055D01*
X16388Y300391D01*
X16827Y301840D01*
X16976Y303346D01*
X16827Y304853D01*
X16388Y306302D01*
X15674Y307638D01*
X14714Y308808D01*
X13870Y309500D01*
X14049Y310000D01*
X23401D01*
X23867Y309918D01*
X23867Y309500D01*
Y305878D01*
X31766D01*
Y309500D01*
X31766Y309918D01*
X32232Y310000D01*
X36983D01*
X37450Y309918D01*
X37450Y309500D01*
Y305878D01*
X40612D01*
Y305378D01*
X41112D01*
Y300838D01*
X43643D01*
X43774Y300838D01*
X44142D01*
X44274Y300838D01*
X46805D01*
Y305378D01*
X47305D01*
Y305878D01*
X50467D01*
Y309500D01*
X50467Y309918D01*
X50933Y310000D01*
X55684D01*
X56150Y309918D01*
X56150Y309500D01*
Y305878D01*
X64050D01*
Y309500D01*
X64050Y309918D01*
X64516Y310000D01*
X109547D01*
X109853Y309500D01*
X109764Y309055D01*
X109889Y308431D01*
X110019Y308235D01*
Y306878D01*
X109046D01*
Y305707D01*
X103946D01*
Y306899D01*
X99203D01*
Y301762D01*
X103946D01*
Y302954D01*
X109046D01*
Y301741D01*
X113789D01*
Y306878D01*
X112772D01*
Y308235D01*
X112903Y308431D01*
X113027Y309055D01*
X112938Y309500D01*
X113244Y310000D01*
X300041D01*
X300163Y309515D01*
D02*
G37*
G36*
X275297Y242040D02*
X272881D01*
Y234240D01*
X286181D01*
Y233240D01*
X272881D01*
Y225736D01*
X260917Y225736D01*
Y243000D01*
X275297Y243000D01*
Y242040D01*
D02*
G37*
G36*
X3635Y244687D02*
X11934D01*
Y240462D01*
X10916D01*
Y233554D01*
X12403D01*
Y228946D01*
X11408D01*
Y223810D01*
X14401D01*
X14578Y223633D01*
X14777Y223500D01*
X14625Y223000D01*
X2756D01*
Y244471D01*
X3256Y244762D01*
X3635Y244687D01*
D02*
G37*
G36*
X312000Y211000D02*
X299225D01*
Y212098D01*
X293688D01*
Y211000D01*
X290000D01*
Y225440D01*
X299481D01*
Y232000D01*
X312000D01*
Y211000D01*
D02*
G37*
%LPC*%
G36*
X194128Y308652D02*
X191525D01*
Y308452D01*
X183873D01*
Y308652D01*
X181900D01*
Y305687D01*
Y302722D01*
X183873D01*
Y302922D01*
X184624D01*
Y295820D01*
X184493Y295624D01*
X184369Y295000D01*
X184493Y294376D01*
X184846Y293847D01*
X185376Y293493D01*
X186000Y293369D01*
X186624Y293493D01*
X186820Y293623D01*
X203720D01*
X206617Y290727D01*
X206499Y290337D01*
X206419Y290218D01*
X206267Y290116D01*
X181439D01*
X180973Y290581D01*
X180527Y290880D01*
X180000Y290984D01*
X179660D01*
X178533Y292111D01*
X178507Y292240D01*
X178376Y292436D01*
Y302922D01*
X178926D01*
Y302722D01*
X180900D01*
Y305687D01*
Y308652D01*
X178926D01*
Y308452D01*
X157473D01*
Y302922D01*
X162700D01*
Y299087D01*
X162628Y299014D01*
X144665D01*
X142332Y301347D01*
Y304340D01*
X137195D01*
Y303345D01*
X131529D01*
X131333Y303476D01*
X130709Y303600D01*
X130084Y303476D01*
X129555Y303122D01*
X129201Y302593D01*
X129077Y301969D01*
X129201Y301344D01*
X129555Y300815D01*
X130084Y300461D01*
X130709Y300337D01*
X131333Y300461D01*
X131529Y300592D01*
X137195D01*
Y299597D01*
X140189D01*
X141283Y298503D01*
X141092Y298041D01*
X137195D01*
Y293298D01*
X138387D01*
Y292096D01*
X136807D01*
X136611Y292227D01*
X135987Y292351D01*
X135363Y292227D01*
X134833Y291874D01*
X134480Y291344D01*
X134356Y290720D01*
X134480Y290096D01*
X134833Y289566D01*
X135363Y289213D01*
X135987Y289089D01*
X136611Y289213D01*
X136807Y289344D01*
X138387D01*
Y288142D01*
X137195D01*
Y283399D01*
X142332D01*
Y288142D01*
X141140D01*
Y290720D01*
Y293298D01*
X142332D01*
Y296800D01*
X142794Y296991D01*
X143121Y296665D01*
X143121Y296665D01*
X143568Y296366D01*
X144095Y296261D01*
X163198D01*
X163725Y296366D01*
X164171Y296665D01*
X165050Y297543D01*
X165348Y297990D01*
X165453Y298517D01*
Y302922D01*
X167031D01*
Y293436D01*
X166900Y293240D01*
X166776Y292616D01*
X166900Y291992D01*
X167031Y291796D01*
Y284593D01*
X167136Y284066D01*
X167434Y283619D01*
X171027Y280027D01*
X171473Y279728D01*
X172000Y279624D01*
X209180D01*
X209376Y279493D01*
X210000Y279369D01*
X210018Y279372D01*
X210424Y278943D01*
Y274400D01*
X215561D01*
Y279143D01*
X214073D01*
Y284046D01*
X215364D01*
Y284549D01*
X226368D01*
Y284046D01*
X231702D01*
Y287805D01*
X226368D01*
Y287302D01*
X215364D01*
Y287805D01*
X210030D01*
Y284046D01*
X211320D01*
Y282643D01*
X210820Y282376D01*
X210624Y282507D01*
X210000Y282631D01*
X209376Y282507D01*
X209180Y282377D01*
X172570D01*
X169784Y285163D01*
Y291796D01*
X169915Y291992D01*
X170039Y292616D01*
X169915Y293240D01*
X169784Y293436D01*
Y302922D01*
X171362D01*
Y294746D01*
X171231Y294550D01*
X171107Y293926D01*
X171231Y293302D01*
X171585Y292772D01*
X172114Y292419D01*
X172738Y292294D01*
X173363Y292419D01*
X173892Y292772D01*
X174245Y293302D01*
X174370Y293926D01*
X174245Y294550D01*
X174115Y294746D01*
Y302922D01*
X175624D01*
Y292436D01*
X175493Y292240D01*
X175369Y291616D01*
X175493Y290992D01*
X175847Y290463D01*
X176376Y290109D01*
X176708Y290043D01*
X178116Y288635D01*
X178116Y288635D01*
X178563Y288336D01*
X179089Y288231D01*
X179089Y288231D01*
X179430D01*
X179895Y287766D01*
X180342Y287468D01*
X180869Y287363D01*
X180869Y287363D01*
X206267D01*
X206462Y287232D01*
X207087Y287108D01*
X207711Y287232D01*
X208240Y287586D01*
X208594Y288115D01*
X208718Y288739D01*
X209152Y289119D01*
X209624Y289213D01*
X210154Y289566D01*
X210507Y290096D01*
X210631Y290720D01*
X210507Y291344D01*
X210196Y291810D01*
X210268Y292077D01*
X210400Y292310D01*
X212197D01*
Y293890D01*
X209830D01*
Y292657D01*
X209821Y292639D01*
X209341Y292284D01*
X209000Y292351D01*
X208905Y292333D01*
X205264Y295973D01*
X204817Y296272D01*
X204291Y296376D01*
X187376D01*
Y302922D01*
X191525D01*
Y299966D01*
X194128D01*
Y304309D01*
Y308652D01*
D02*
G37*
G36*
X153912D02*
X150561D01*
Y305695D01*
X153912D01*
Y308652D01*
D02*
G37*
G36*
X149561D02*
X146210D01*
Y305695D01*
X149561D01*
Y308652D01*
D02*
G37*
G36*
X197731D02*
X195128D01*
Y304809D01*
X197731D01*
Y308652D01*
D02*
G37*
G36*
X120288Y307078D02*
X118217D01*
Y304809D01*
X120288D01*
Y307078D01*
D02*
G37*
G36*
X117217D02*
X115145D01*
Y304809D01*
X117217D01*
Y307078D01*
D02*
G37*
G36*
X258500Y307122D02*
X257821Y307033D01*
X257189Y306771D01*
X256646Y306354D01*
X256229Y305811D01*
X255967Y305179D01*
X255878Y304500D01*
X255967Y303821D01*
X256229Y303189D01*
X256646Y302646D01*
X257189Y302229D01*
X257821Y301967D01*
X258500Y301878D01*
X259179Y301967D01*
X259811Y302229D01*
X260354Y302646D01*
X260771Y303189D01*
X261033Y303821D01*
X261122Y304500D01*
X261033Y305179D01*
X260771Y305811D01*
X260354Y306354D01*
X259811Y306771D01*
X259179Y307033D01*
X258500Y307122D01*
D02*
G37*
G36*
X153912Y304695D02*
X150561D01*
Y301737D01*
X153912D01*
Y304695D01*
D02*
G37*
G36*
X149561D02*
X146210D01*
Y301737D01*
X149561D01*
Y304695D01*
D02*
G37*
G36*
X120288Y303809D02*
X118217D01*
Y301540D01*
X120288D01*
Y303809D01*
D02*
G37*
G36*
X117217D02*
X115145D01*
Y301540D01*
X117217D01*
Y303809D01*
D02*
G37*
G36*
X50467Y304878D02*
X47805D01*
Y300838D01*
X50467D01*
Y304878D01*
D02*
G37*
G36*
X40112D02*
X37450D01*
Y300838D01*
X40112D01*
Y304878D01*
D02*
G37*
G36*
X197731Y303809D02*
X195128D01*
Y299966D01*
X197731D01*
Y303809D01*
D02*
G37*
G36*
X64050Y304878D02*
X56150D01*
Y300863D01*
X51229D01*
Y296626D01*
X61097D01*
Y300838D01*
X64050D01*
Y304878D01*
D02*
G37*
G36*
X31766D02*
X23867D01*
Y300838D01*
X26820D01*
Y296626D01*
X36687D01*
Y300863D01*
X31766D01*
Y304878D01*
D02*
G37*
G36*
X50664Y298304D02*
X49576D01*
Y295346D01*
X50664D01*
Y298304D01*
D02*
G37*
G36*
X231902Y296469D02*
X229535D01*
Y294890D01*
X231902D01*
Y296469D01*
D02*
G37*
G36*
X228535D02*
X226168D01*
Y294890D01*
X228535D01*
Y296469D01*
D02*
G37*
G36*
X215564D02*
X213197D01*
Y294890D01*
X215564D01*
Y296469D01*
D02*
G37*
G36*
X212197D02*
X209830D01*
Y294890D01*
X212197D01*
Y296469D01*
D02*
G37*
G36*
X231902Y293890D02*
X229535D01*
Y292310D01*
X231902D01*
Y293890D01*
D02*
G37*
G36*
X228535D02*
X226168D01*
Y292310D01*
X228535D01*
Y293890D01*
D02*
G37*
G36*
X215564D02*
X213197D01*
Y292310D01*
X215564D01*
Y293890D01*
D02*
G37*
G36*
X48576Y298304D02*
X47489D01*
Y298104D01*
X37453D01*
Y291769D01*
X36687D01*
Y295626D01*
X32254D01*
Y291389D01*
X34809D01*
X35016Y290889D01*
X34247Y290120D01*
X33893Y289591D01*
X33769Y288966D01*
Y283378D01*
X33893Y282754D01*
X34247Y282224D01*
X35146Y281324D01*
X35676Y280971D01*
X36300Y280847D01*
X36904D01*
X37264Y280486D01*
X37473Y280072D01*
X37243Y279667D01*
X32635D01*
X32085Y280217D01*
Y288406D01*
X31980Y288933D01*
X31682Y289380D01*
X30135Y290927D01*
X30326Y291389D01*
X31254D01*
Y295626D01*
X26820D01*
Y291928D01*
X24813D01*
Y293120D01*
X20069D01*
Y289929D01*
X19689Y289549D01*
X19476Y289406D01*
X19175Y289106D01*
X18713Y289298D01*
Y290051D01*
X16642D01*
Y287783D01*
X18049D01*
X18217Y287578D01*
Y286312D01*
X18322Y285785D01*
X18620Y285338D01*
X20266Y283693D01*
Y279715D01*
X26978D01*
Y284852D01*
X23000D01*
X21235Y286617D01*
Y287272D01*
X21280Y287317D01*
X21493Y287460D01*
X22016Y287983D01*
X24813D01*
Y289175D01*
X27994D01*
X29332Y287836D01*
Y279647D01*
X29437Y279120D01*
X29735Y278674D01*
X31092Y277317D01*
X31092Y277317D01*
X31538Y277019D01*
X32065Y276914D01*
X37473D01*
Y276509D01*
X41429D01*
X41468Y276026D01*
Y275803D01*
X41546Y275413D01*
X41563Y275387D01*
X41389Y274863D01*
X41343Y274816D01*
X41169Y274699D01*
X37832D01*
Y273030D01*
X29528D01*
X29528Y273030D01*
X29001Y272925D01*
X28554Y272627D01*
X28554Y272627D01*
X25313Y269385D01*
X24813Y269592D01*
Y269891D01*
X20069D01*
Y265174D01*
X18713D01*
Y266823D01*
X16142D01*
X13570D01*
Y265174D01*
X12043D01*
X12005Y265220D01*
X11881Y265845D01*
X11528Y266374D01*
X10998Y266727D01*
X10374Y266852D01*
X9750Y266727D01*
X9220Y266374D01*
X8867Y265845D01*
X8743Y265220D01*
X8867Y264596D01*
X9220Y264067D01*
X9750Y263713D01*
X10374Y263589D01*
X10532Y263620D01*
X10719Y263433D01*
X10907Y263308D01*
X10755Y262808D01*
X9830D01*
Y260736D01*
X15367D01*
Y262635D01*
X15367Y262808D01*
X15732Y263135D01*
X26533D01*
Y262608D01*
X24597D01*
Y257865D01*
X29734D01*
Y259217D01*
X31216D01*
X32257Y258175D01*
X32169Y257556D01*
X31917Y257388D01*
X31564Y256859D01*
X31440Y256235D01*
X31471Y256077D01*
X30351Y254957D01*
X29734D01*
Y256309D01*
X24597D01*
Y251565D01*
X29734D01*
Y252917D01*
X30773D01*
X31163Y252995D01*
X31494Y253216D01*
X32228Y253950D01*
X32689Y253703D01*
X32595Y253232D01*
X32719Y252608D01*
X33073Y252078D01*
X33602Y251725D01*
X34226Y251601D01*
X34851Y251725D01*
X35380Y252078D01*
X35734Y252608D01*
X35803Y252955D01*
X36334Y253207D01*
X36583Y253075D01*
Y251399D01*
X36783D01*
Y249828D01*
X37826D01*
X37837Y249811D01*
X38705Y248942D01*
X38493Y248624D01*
X38369Y248000D01*
X38493Y247376D01*
X38846Y246847D01*
X39376Y246493D01*
X40000Y246369D01*
X40624Y246493D01*
X41153Y246847D01*
X41507Y247376D01*
X41631Y248000D01*
X41507Y248624D01*
X41171Y249128D01*
X41201Y249272D01*
X41344Y249628D01*
X42985D01*
Y255349D01*
X43985D01*
Y249628D01*
X47435D01*
Y249828D01*
X48450D01*
X48480Y249797D01*
Y248252D01*
X48246Y248095D01*
X47893Y247566D01*
X47769Y246942D01*
X47893Y246317D01*
X48246Y245788D01*
X48776Y245434D01*
X49400Y245310D01*
X50024Y245434D01*
X50554Y245788D01*
X50907Y246317D01*
X51031Y246942D01*
X50907Y247566D01*
X50554Y248095D01*
X50520Y248118D01*
Y250220D01*
X50442Y250610D01*
X50221Y250941D01*
X50187Y250974D01*
Y253443D01*
X52140D01*
X52229Y253309D01*
X52759Y252956D01*
X53383Y252832D01*
X53541Y252863D01*
X54518Y251886D01*
Y247628D01*
X59655D01*
Y252372D01*
X56916D01*
X54983Y254305D01*
X55014Y254463D01*
X54899Y255043D01*
X54915Y255169D01*
X55115Y255543D01*
X65467D01*
X65776Y255081D01*
X66305Y254728D01*
X66929Y254603D01*
X67553Y254728D01*
X68083Y255081D01*
X68436Y255610D01*
X68560Y256235D01*
X68436Y256859D01*
X68083Y257388D01*
X67553Y257742D01*
X66929Y257866D01*
X66305Y257742D01*
X66066Y257583D01*
X52513D01*
X52123Y257505D01*
X51792Y257284D01*
X51683Y257175D01*
X50187D01*
Y260870D01*
X48855D01*
X48429Y261296D01*
X48356Y261405D01*
X47770Y261991D01*
X47439Y262212D01*
X47049Y262290D01*
X45570D01*
Y263645D01*
X45627Y263657D01*
X49468D01*
Y268400D01*
X44331D01*
Y265400D01*
X44298Y265378D01*
X43975Y265055D01*
X43650Y264961D01*
X43325Y265055D01*
X43002Y265378D01*
X42968Y265400D01*
Y268400D01*
X37832D01*
Y263657D01*
X41673D01*
X41730Y263645D01*
Y262326D01*
X41694Y262290D01*
X39921D01*
X39531Y262212D01*
X39200Y261991D01*
X38614Y261405D01*
X38541Y261296D01*
X38116Y260870D01*
X36783D01*
Y259026D01*
X34691D01*
X34662Y259056D01*
X34331Y259277D01*
X33967Y259349D01*
X32359Y260957D01*
X32028Y261178D01*
X31638Y261256D01*
X29734D01*
Y262608D01*
X28573D01*
Y264154D01*
X28495Y264545D01*
X28274Y264875D01*
X27943Y265096D01*
X27553Y265174D01*
X24813D01*
Y266334D01*
X25584D01*
X26111Y266438D01*
X26557Y266737D01*
X30098Y270277D01*
X37832D01*
Y269956D01*
X42968D01*
Y273128D01*
X43044Y273178D01*
X43286Y273421D01*
X43834Y273445D01*
X43936Y273381D01*
X44331Y272986D01*
Y269956D01*
X49468D01*
Y270951D01*
X57235D01*
X57762Y271056D01*
X58208Y271354D01*
X64711Y277857D01*
X67704D01*
Y282600D01*
X62567D01*
Y279606D01*
X56665Y273704D01*
X49468D01*
Y274699D01*
X45627D01*
X45611Y274702D01*
Y276309D01*
X46825D01*
Y279078D01*
Y281846D01*
X45307D01*
Y282508D01*
X46789Y283990D01*
X49303D01*
Y287552D01*
X46789D01*
X44991Y289350D01*
Y291589D01*
X47489D01*
Y291389D01*
X48576D01*
Y294846D01*
Y298304D01*
D02*
G37*
G36*
X61097Y295626D02*
X56663D01*
Y291389D01*
X61097D01*
Y295626D01*
D02*
G37*
G36*
X55663D02*
X51229D01*
Y291389D01*
X55663D01*
Y295626D01*
D02*
G37*
G36*
X50664Y294346D02*
X49576D01*
Y291389D01*
X50664D01*
Y294346D01*
D02*
G37*
G36*
X18713Y293320D02*
X16642D01*
Y291051D01*
X18713D01*
Y293320D01*
D02*
G37*
G36*
X15642D02*
X13570D01*
Y291051D01*
X15642D01*
Y293320D01*
D02*
G37*
G36*
X103256Y293721D02*
Y290501D01*
X106475D01*
X106412Y290981D01*
X106034Y291894D01*
X105432Y292678D01*
X104648Y293280D01*
X103736Y293658D01*
X103256Y293721D01*
D02*
G37*
G36*
X102256D02*
X101776Y293658D01*
X100863Y293280D01*
X100079Y292678D01*
X99478Y291894D01*
X99100Y290981D01*
X99037Y290501D01*
X102256D01*
Y293721D01*
D02*
G37*
G36*
X15642Y290051D02*
X13570D01*
Y287783D01*
X15642D01*
Y290051D01*
D02*
G37*
G36*
X67904Y289099D02*
X65636D01*
Y287028D01*
X67904D01*
Y289099D01*
D02*
G37*
G36*
X64636D02*
X62367D01*
Y287028D01*
X64636D01*
Y289099D01*
D02*
G37*
G36*
X299481Y293359D02*
X286681D01*
Y286563D01*
X299481D01*
Y293359D01*
D02*
G37*
G36*
X285681D02*
X272881D01*
Y286563D01*
X285681D01*
Y293359D01*
D02*
G37*
G36*
X82687Y293554D02*
X75581D01*
Y286449D01*
X82687D01*
Y293554D01*
D02*
G37*
G36*
X97647Y306899D02*
X92904D01*
Y301762D01*
X93899D01*
Y293440D01*
X93090Y293105D01*
X92348Y292535D01*
X91779Y291793D01*
X91421Y290929D01*
X91299Y290002D01*
X91421Y289074D01*
X91779Y288210D01*
X92348Y287468D01*
X93090Y286898D01*
X93954Y286540D01*
X94882Y286418D01*
X95809Y286540D01*
X96674Y286898D01*
X97416Y287468D01*
X97985Y288210D01*
X98343Y289074D01*
X98465Y290002D01*
X98343Y290929D01*
X97985Y291793D01*
X97416Y292535D01*
X96674Y293105D01*
X96652Y293114D01*
Y301762D01*
X97647D01*
Y306899D01*
D02*
G37*
G36*
X87008Y293585D02*
X86080Y293463D01*
X85216Y293105D01*
X84474Y292535D01*
X83904Y291793D01*
X83547Y290929D01*
X83425Y290002D01*
X83547Y289074D01*
X83904Y288210D01*
X84474Y287468D01*
X85216Y286898D01*
X86080Y286540D01*
X87008Y286418D01*
X87935Y286540D01*
X88800Y286898D01*
X89542Y287468D01*
X90111Y288210D01*
X90469Y289074D01*
X90591Y290002D01*
X90469Y290929D01*
X90111Y291793D01*
X89542Y292535D01*
X88800Y293105D01*
X87935Y293463D01*
X87008Y293585D01*
D02*
G37*
G36*
X106475Y289502D02*
X103256D01*
Y286282D01*
X103736Y286345D01*
X104648Y286723D01*
X105432Y287325D01*
X106034Y288109D01*
X106412Y289022D01*
X106475Y289502D01*
D02*
G37*
G36*
X102256D02*
X99037D01*
X99100Y289022D01*
X99478Y288109D01*
X100079Y287325D01*
X100863Y286723D01*
X101776Y286345D01*
X102256Y286282D01*
Y289502D01*
D02*
G37*
G36*
X67904Y286028D02*
X65636D01*
Y283956D01*
X67904D01*
Y286028D01*
D02*
G37*
G36*
X64636D02*
X62367D01*
Y283956D01*
X64636D01*
Y286028D01*
D02*
G37*
G36*
X152334Y284043D02*
X146410D01*
Y280848D01*
X142332D01*
Y281843D01*
X137195D01*
Y277100D01*
X142332D01*
Y278095D01*
X147369D01*
X147896Y278200D01*
X148343Y278498D01*
X148750Y278906D01*
X152334D01*
Y280098D01*
X163963D01*
X168447Y275614D01*
X168493Y275383D01*
X168846Y274854D01*
X169376Y274500D01*
X170000Y274376D01*
X170624Y274500D01*
X171153Y274854D01*
X171507Y275383D01*
X171631Y276007D01*
X171507Y276631D01*
X171153Y277161D01*
X170624Y277514D01*
X170394Y277560D01*
X165506Y282448D01*
X165059Y282746D01*
X164533Y282851D01*
X152334D01*
Y284043D01*
D02*
G37*
G36*
X49503Y281846D02*
X47825D01*
Y279578D01*
X49503D01*
Y281846D01*
D02*
G37*
G36*
X299481Y285563D02*
X286681D01*
Y278767D01*
X299481D01*
Y285563D01*
D02*
G37*
G36*
X285681D02*
X272881D01*
Y278767D01*
X285681D01*
Y285563D01*
D02*
G37*
G36*
X233671Y279537D02*
X228534D01*
Y278542D01*
X227592D01*
X227396Y278673D01*
X226772Y278797D01*
X226147Y278673D01*
X225952Y278542D01*
X225009D01*
Y279537D01*
X219872D01*
Y274794D01*
X225009D01*
Y275789D01*
X225952D01*
X226147Y275658D01*
X226772Y275534D01*
X227396Y275658D01*
X227592Y275789D01*
X228534D01*
Y274794D01*
X233671D01*
Y279537D01*
D02*
G37*
G36*
X49503Y278578D02*
X47825D01*
Y276309D01*
X49503D01*
Y278578D01*
D02*
G37*
G36*
X123151Y279922D02*
X122527Y279798D01*
X121998Y279444D01*
X121644Y278915D01*
X121520Y278291D01*
X121644Y277666D01*
X121775Y277471D01*
Y275994D01*
X120660D01*
Y275076D01*
X114970D01*
Y276268D01*
X110227D01*
Y271131D01*
X114970D01*
Y272323D01*
X120660D01*
Y271250D01*
X125797D01*
Y275994D01*
X124528D01*
Y277471D01*
X124658Y277666D01*
X124783Y278291D01*
X124658Y278915D01*
X124305Y279444D01*
X123775Y279798D01*
X123151Y279922D01*
D02*
G37*
G36*
X225009Y273238D02*
X219872D01*
Y272243D01*
X215561D01*
Y272844D01*
X210424D01*
Y268101D01*
X215561D01*
Y269490D01*
X216537D01*
Y266483D01*
X212019Y261965D01*
X211720Y261519D01*
X211616Y260992D01*
Y260246D01*
X210424D01*
Y257252D01*
X206113Y252942D01*
X205815Y252495D01*
X205710Y251969D01*
Y248820D01*
X205579Y248624D01*
X205455Y248000D01*
X205579Y247376D01*
X205933Y246847D01*
X206462Y246493D01*
X207087Y246369D01*
X207711Y246493D01*
X208240Y246847D01*
X208594Y247376D01*
X208718Y248000D01*
X208594Y248624D01*
X208463Y248820D01*
Y251398D01*
X209762Y252697D01*
X210224Y252506D01*
Y252075D01*
X212492D01*
Y254147D01*
X211864D01*
X211673Y254608D01*
X212567Y255502D01*
X215561D01*
Y260246D01*
X214899D01*
X214692Y260746D01*
X218887Y264940D01*
X219185Y265387D01*
X219290Y265913D01*
Y269490D01*
X219872D01*
Y268495D01*
X225009D01*
Y273238D01*
D02*
G37*
G36*
X233871Y273438D02*
X231602D01*
Y271366D01*
X233871D01*
Y273438D01*
D02*
G37*
G36*
X230602D02*
X228334D01*
Y271366D01*
X230602D01*
Y273438D01*
D02*
G37*
G36*
X108671Y276268D02*
X103928D01*
Y275544D01*
X99000D01*
X98473Y275440D01*
X98027Y275141D01*
X94302Y271417D01*
X94004Y270970D01*
X93899Y270443D01*
Y265677D01*
X93484Y265505D01*
X92742Y264935D01*
X92172Y264193D01*
X91814Y263329D01*
X91692Y262402D01*
X91814Y261474D01*
X92172Y260610D01*
X92742Y259868D01*
X93484Y259298D01*
X94348Y258940D01*
X95276Y258818D01*
X96203Y258940D01*
X97067Y259298D01*
X97809Y259868D01*
X98379Y260610D01*
X98737Y261474D01*
X98859Y262402D01*
X98737Y263329D01*
X98379Y264193D01*
X97809Y264935D01*
X97067Y265505D01*
X96652Y265677D01*
Y269873D01*
X99570Y272791D01*
X103928D01*
Y271131D01*
X108671D01*
Y276268D01*
D02*
G37*
G36*
X233871Y270366D02*
X231602D01*
Y268295D01*
X233871D01*
Y270366D01*
D02*
G37*
G36*
X230602D02*
X228334D01*
Y268295D01*
X230602D01*
Y270366D01*
D02*
G37*
G36*
X125997Y269895D02*
X123728D01*
Y267823D01*
X125997D01*
Y269895D01*
D02*
G37*
G36*
X18713Y270091D02*
X16642D01*
Y267823D01*
X18713D01*
Y270091D01*
D02*
G37*
G36*
X15642D02*
X13570D01*
Y267823D01*
X15642D01*
Y270091D01*
D02*
G37*
G36*
X122728Y269895D02*
X120460D01*
Y267823D01*
X122728D01*
Y269895D01*
D02*
G37*
G36*
X152534Y269676D02*
X149872D01*
Y267407D01*
X152534D01*
Y269676D01*
D02*
G37*
G36*
X148872D02*
X146210D01*
Y267407D01*
X148872D01*
Y269676D01*
D02*
G37*
G36*
X125997Y266823D02*
X123728D01*
Y264751D01*
X125997D01*
Y266823D01*
D02*
G37*
G36*
X122728D02*
X120460D01*
Y264751D01*
X122728D01*
Y266823D01*
D02*
G37*
G36*
X152534Y266407D02*
X149872D01*
Y264139D01*
X152534D01*
Y266407D01*
D02*
G37*
G36*
X148872D02*
X146210D01*
Y264139D01*
X148872D01*
Y266407D01*
D02*
G37*
G36*
X103650Y266121D02*
Y262901D01*
X106869D01*
X106806Y263381D01*
X106428Y264294D01*
X105826Y265078D01*
X105042Y265680D01*
X104129Y266058D01*
X103650Y266121D01*
D02*
G37*
G36*
X102650D02*
X102170Y266058D01*
X101257Y265680D01*
X100473Y265078D01*
X99872Y264294D01*
X99493Y263381D01*
X99430Y262901D01*
X102650D01*
Y266121D01*
D02*
G37*
G36*
X258989Y269343D02*
X250697D01*
Y262547D01*
X258989D01*
Y269343D01*
D02*
G37*
G36*
X249697D02*
X241405D01*
Y262547D01*
X249697D01*
Y269343D01*
D02*
G37*
G36*
X190996Y266326D02*
X182315D01*
Y259811D01*
X190996D01*
Y266326D01*
D02*
G37*
G36*
X167492D02*
X158811D01*
Y259811D01*
X167492D01*
Y266326D01*
D02*
G37*
G36*
X83080Y265954D02*
X75975D01*
Y258849D01*
X83080D01*
Y265954D01*
D02*
G37*
G36*
X87402Y265985D02*
X86474Y265863D01*
X85610Y265505D01*
X84868Y264935D01*
X84298Y264193D01*
X83940Y263329D01*
X83818Y262402D01*
X83940Y261474D01*
X84298Y260610D01*
X84868Y259868D01*
X85610Y259298D01*
X86474Y258940D01*
X87402Y258818D01*
X88329Y258940D01*
X89193Y259298D01*
X89935Y259868D01*
X90505Y260610D01*
X90863Y261474D01*
X90985Y262402D01*
X90863Y263329D01*
X90505Y264193D01*
X89935Y264935D01*
X89193Y265505D01*
X88329Y265863D01*
X87402Y265985D01*
D02*
G37*
G36*
X102650Y261901D02*
X99430D01*
X99493Y261422D01*
X99872Y260509D01*
X100473Y259725D01*
X101257Y259123D01*
X102170Y258745D01*
X102650Y258682D01*
Y261901D01*
D02*
G37*
G36*
X106869D02*
X103650D01*
Y258682D01*
X104129Y258745D01*
X105042Y259123D01*
X105826Y259725D01*
X106428Y260509D01*
X106806Y261422D01*
X106869Y261901D01*
D02*
G37*
G36*
X23041Y262608D02*
X17904D01*
Y260684D01*
X15829Y258609D01*
X15367Y258801D01*
Y259736D01*
X13098D01*
Y257665D01*
X14231D01*
X14422Y257203D01*
X13528Y256309D01*
X10030D01*
Y254957D01*
X9511D01*
X9421Y255090D01*
X8892Y255444D01*
X8268Y255568D01*
X7643Y255444D01*
X7114Y255090D01*
X6761Y254561D01*
X6636Y253937D01*
X6761Y253313D01*
X7114Y252783D01*
X7643Y252430D01*
X8268Y252306D01*
X8892Y252430D01*
X9421Y252783D01*
X9511Y252917D01*
X10030D01*
Y251565D01*
X15167D01*
Y255064D01*
X17968Y257865D01*
X23041D01*
Y262608D01*
D02*
G37*
G36*
X12098Y259736D02*
X9830D01*
Y257665D01*
X12098D01*
Y259736D01*
D02*
G37*
G36*
X130709Y256094D02*
X130084Y255970D01*
X129889Y255839D01*
X99173D01*
X98977Y255970D01*
X98353Y256094D01*
X97729Y255970D01*
X97200Y255616D01*
X96846Y255087D01*
X96722Y254463D01*
X96846Y253839D01*
X97200Y253309D01*
X97729Y252956D01*
X98353Y252832D01*
X98977Y252956D01*
X99173Y253086D01*
X129889D01*
X130084Y252956D01*
X130709Y252832D01*
X131333Y252956D01*
X131862Y253309D01*
X132216Y253839D01*
X132340Y254463D01*
X132216Y255087D01*
X131862Y255616D01*
X131333Y255970D01*
X130709Y256094D01*
D02*
G37*
G36*
X300984Y263194D02*
X299913Y263053D01*
X298915Y262640D01*
X298057Y261982D01*
X297399Y261125D01*
X296986Y260126D01*
X296845Y259055D01*
X296986Y257984D01*
X297399Y256985D01*
X298057Y256128D01*
X298915Y255470D01*
X299913Y255057D01*
X300984Y254916D01*
X302056Y255057D01*
X303054Y255470D01*
X303911Y256128D01*
X304569Y256985D01*
X304982Y257984D01*
X305124Y259055D01*
X304982Y260126D01*
X304569Y261125D01*
X303911Y261982D01*
X303054Y262640D01*
X302056Y263053D01*
X300984Y263194D01*
D02*
G37*
G36*
X258989Y261547D02*
X250697D01*
Y254751D01*
X258989D01*
Y261547D01*
D02*
G37*
G36*
X249697D02*
X241405D01*
Y254751D01*
X249697D01*
Y261547D01*
D02*
G37*
G36*
X215761Y254147D02*
X213492D01*
Y252075D01*
X215761D01*
Y254147D01*
D02*
G37*
G36*
Y251075D02*
X213492D01*
Y249003D01*
X215761D01*
Y251075D01*
D02*
G37*
G36*
X212492D02*
X210224D01*
Y249003D01*
X212492D01*
Y251075D01*
D02*
G37*
G36*
X59855Y246272D02*
X57587D01*
Y244201D01*
X59855D01*
Y246272D01*
D02*
G37*
G36*
X56587D02*
X54318D01*
Y244201D01*
X56587D01*
Y246272D01*
D02*
G37*
G36*
X52105Y245332D02*
X51481Y245208D01*
X50951Y244854D01*
X50598Y244325D01*
X50572Y244196D01*
X49753Y243376D01*
X32458D01*
X32262Y243507D01*
X31638Y243631D01*
X31014Y243507D01*
X30484Y243154D01*
X30131Y242624D01*
X30007Y242000D01*
X30131Y241376D01*
X30484Y240846D01*
X31014Y240493D01*
X31638Y240369D01*
X32262Y240493D01*
X32458Y240623D01*
X48150D01*
X48292Y240285D01*
X48326Y240124D01*
X47993Y239624D01*
X47869Y239000D01*
X47993Y238376D01*
X48346Y237846D01*
X48876Y237493D01*
X49500Y237369D01*
X50124Y237493D01*
X50653Y237846D01*
X51007Y238376D01*
X51131Y239000D01*
X51007Y239624D01*
X50653Y240154D01*
X50624Y240174D01*
X50729Y240704D01*
X50850Y240728D01*
X51296Y241027D01*
X52397Y242128D01*
X52729Y242194D01*
X53259Y242547D01*
X53612Y243076D01*
X53736Y243701D01*
X53612Y244325D01*
X53259Y244854D01*
X52729Y245208D01*
X52105Y245332D01*
D02*
G37*
G36*
X115748Y250844D02*
X115124Y250720D01*
X114594Y250366D01*
X114241Y249837D01*
X114117Y249213D01*
X114241Y248588D01*
X114372Y248393D01*
Y246466D01*
X113180D01*
Y241723D01*
X118316D01*
Y242718D01*
X126565D01*
Y241723D01*
X131702D01*
Y246466D01*
X126565D01*
Y245471D01*
X118316D01*
Y246466D01*
X117124D01*
Y248393D01*
X117255Y248588D01*
X117379Y249213D01*
X117255Y249837D01*
X116902Y250366D01*
X116372Y250720D01*
X115748Y250844D01*
D02*
G37*
G36*
X59855Y243201D02*
X57587D01*
Y241129D01*
X59855D01*
Y243201D01*
D02*
G37*
G36*
X56587D02*
X54318D01*
Y241129D01*
X56587D01*
Y243201D01*
D02*
G37*
G36*
X118517Y240367D02*
X116248D01*
Y238295D01*
X118517D01*
Y240367D01*
D02*
G37*
G36*
X115248D02*
X112979D01*
Y238295D01*
X115248D01*
Y240367D01*
D02*
G37*
G36*
X131702Y240167D02*
X126565D01*
Y236669D01*
X125916Y236020D01*
X118517D01*
Y237295D01*
X115748D01*
X112979D01*
Y235224D01*
X112979D01*
X113156Y234798D01*
X111878Y233520D01*
X111656Y233189D01*
X111579Y232799D01*
Y229209D01*
X111656Y228819D01*
X111878Y228488D01*
X112346Y228019D01*
X112677Y227798D01*
X113067Y227721D01*
X115148D01*
Y227451D01*
X118295D01*
Y227272D01*
X119972D01*
Y230721D01*
X118295D01*
Y230029D01*
X115148D01*
Y229760D01*
X113618D01*
Y232377D01*
X115222Y233980D01*
X126339D01*
X126729Y234058D01*
X127059Y234279D01*
X128204Y235424D01*
X131702D01*
Y240167D01*
D02*
G37*
G36*
X40612Y237458D02*
X39987Y237334D01*
X39458Y236980D01*
X39105Y236451D01*
X38980Y235827D01*
X39105Y235203D01*
X39458Y234673D01*
X39987Y234320D01*
X40612Y234195D01*
X41236Y234320D01*
X41765Y234673D01*
X41855Y234807D01*
X53519D01*
X53538Y234788D01*
Y230306D01*
X59462D01*
Y236230D01*
X54980D01*
X54662Y236548D01*
X54331Y236769D01*
X53941Y236846D01*
X41855D01*
X41765Y236980D01*
X41236Y237334D01*
X40612Y237458D01*
D02*
G37*
G36*
X125997Y230229D02*
X124614D01*
Y229240D01*
X125997D01*
Y230229D01*
D02*
G37*
G36*
Y228240D02*
X124614D01*
Y227251D01*
X125997D01*
Y228240D01*
D02*
G37*
G36*
X34931Y234430D02*
X34307Y234306D01*
X33778Y233953D01*
X33424Y233423D01*
X33300Y232799D01*
X33424Y232175D01*
X33555Y231979D01*
Y230287D01*
X33660Y229760D01*
X33958Y229313D01*
X35287Y227984D01*
Y224991D01*
X40031D01*
Y230128D01*
X37037D01*
X36308Y230857D01*
Y231979D01*
X36439Y232175D01*
X36563Y232799D01*
X36439Y233423D01*
X36085Y233953D01*
X35556Y234306D01*
X34931Y234430D01*
D02*
G37*
G36*
X183465Y228717D02*
X182655Y228611D01*
X181901Y228298D01*
X181254Y227801D01*
X180757Y227154D01*
X180444Y226400D01*
X180338Y225590D01*
X180444Y224781D01*
X180757Y224027D01*
X181254Y223380D01*
X181901Y222883D01*
X182655Y222570D01*
X183465Y222464D01*
X184274Y222570D01*
X185028Y222883D01*
X185676Y223380D01*
X186172Y224027D01*
X186250Y224214D01*
X186451D01*
X187000Y224105D01*
X187624Y224229D01*
X188154Y224583D01*
X188507Y225112D01*
X188631Y225736D01*
X188507Y226361D01*
X188154Y226890D01*
X187624Y227243D01*
X187000Y227368D01*
X186376Y227243D01*
X186220Y227139D01*
X186172Y227154D01*
X185676Y227801D01*
X185028Y228298D01*
X184274Y228611D01*
X183465Y228717D01*
D02*
G37*
G36*
X175300Y234899D02*
X174676Y234775D01*
X174146Y234421D01*
X173793Y233892D01*
X173669Y233268D01*
X173793Y232643D01*
X173924Y232448D01*
Y228419D01*
X173634Y228298D01*
X172986Y227801D01*
X172489Y227154D01*
X172177Y226400D01*
X172070Y225590D01*
X172177Y224781D01*
X172489Y224027D01*
X172986Y223380D01*
X173634Y222883D01*
X174388Y222570D01*
X175197Y222464D01*
X176006Y222570D01*
X176760Y222883D01*
X177408Y223380D01*
X177905Y224027D01*
X178217Y224781D01*
X178324Y225590D01*
X178217Y226400D01*
X177905Y227154D01*
X177408Y227801D01*
X176760Y228298D01*
X176676Y228333D01*
Y232448D01*
X176807Y232643D01*
X176931Y233268D01*
X176807Y233892D01*
X176454Y234421D01*
X175924Y234775D01*
X175300Y234899D01*
D02*
G37*
G36*
X170000Y236631D02*
X169376Y236507D01*
X168846Y236154D01*
X168493Y235624D01*
X168447Y235394D01*
X165562Y232509D01*
X165264Y232062D01*
X165159Y231535D01*
Y228376D01*
X164972Y228298D01*
X164324Y227801D01*
X163828Y227154D01*
X163515Y226400D01*
X163409Y225590D01*
X163515Y224781D01*
X163828Y224027D01*
X164324Y223380D01*
X164972Y222883D01*
X165726Y222570D01*
X166535Y222464D01*
X167345Y222570D01*
X168099Y222883D01*
X168746Y223380D01*
X169243Y224027D01*
X169556Y224781D01*
X169662Y225590D01*
X169556Y226400D01*
X169243Y227154D01*
X168746Y227801D01*
X168099Y228298D01*
X167912Y228376D01*
Y230965D01*
X170394Y233447D01*
X170624Y233493D01*
X171153Y233846D01*
X171507Y234376D01*
X171631Y235000D01*
X171507Y235624D01*
X171153Y236154D01*
X170624Y236507D01*
X170000Y236631D01*
D02*
G37*
G36*
X156299Y234841D02*
X141339D01*
X140812Y234736D01*
X140365Y234438D01*
X140067Y233991D01*
X139962Y233465D01*
Y222315D01*
X139890Y222243D01*
X130153D01*
Y224335D01*
X130076Y224725D01*
X129855Y225056D01*
X129386Y225524D01*
X129055Y225745D01*
X128665Y225823D01*
X125797D01*
Y226092D01*
X122650D01*
Y227251D01*
X123614D01*
Y228740D01*
Y230229D01*
X122650D01*
Y230721D01*
X120972D01*
Y226772D01*
Y222822D01*
X122650D01*
Y223514D01*
X125797D01*
Y223784D01*
X128114D01*
Y222243D01*
X99464D01*
X99313Y222743D01*
X99360Y222774D01*
X99714Y223304D01*
X99838Y223928D01*
X99724Y224501D01*
X99752Y224642D01*
X99944Y225002D01*
X107181D01*
X107707Y225106D01*
X107802Y225169D01*
X107814Y225172D01*
X108903Y224082D01*
X109234Y223861D01*
X109624Y223784D01*
X110174D01*
X110264Y223650D01*
X110793Y223296D01*
X111417Y223172D01*
X112042Y223296D01*
X112571Y223650D01*
X112660Y223784D01*
X115148D01*
Y223514D01*
X118295D01*
Y222822D01*
X119972D01*
Y226272D01*
X118295D01*
Y226092D01*
X115148D01*
Y225823D01*
X112660D01*
X112571Y225957D01*
X112042Y226310D01*
X111417Y226434D01*
X110793Y226310D01*
X110264Y225957D01*
X109763Y226107D01*
X109255Y226614D01*
X109287Y226772D01*
X109163Y227396D01*
X108809Y227925D01*
X108280Y228279D01*
X107656Y228403D01*
X107031Y228279D01*
X106502Y227925D01*
X106388Y227754D01*
X89403D01*
X89207Y227885D01*
X88583Y228009D01*
X87958Y227885D01*
X87429Y227532D01*
X87076Y227002D01*
X86951Y226378D01*
X87076Y225754D01*
X87206Y225558D01*
Y218513D01*
X86605D01*
Y213770D01*
X87381D01*
Y204143D01*
X86780D01*
Y198219D01*
X90736D01*
Y204143D01*
X90134D01*
Y213770D01*
X90561D01*
Y218513D01*
X89959D01*
Y225002D01*
X96469D01*
X96662Y224642D01*
X96689Y224501D01*
X96575Y223928D01*
X96700Y223304D01*
X97053Y222774D01*
X97101Y222743D01*
X96949Y222243D01*
X95702D01*
X95506Y222373D01*
X94882Y222498D01*
X94258Y222373D01*
X93728Y222020D01*
X93375Y221490D01*
X93251Y220866D01*
X93375Y220242D01*
X93505Y220046D01*
Y218513D01*
X92904D01*
Y216110D01*
X92509Y215715D01*
X92211Y215269D01*
X92106Y214742D01*
Y204143D01*
X91504D01*
Y198219D01*
X95460D01*
Y204143D01*
X94859D01*
Y213770D01*
X96860D01*
Y218513D01*
X96258D01*
Y219490D01*
X128314D01*
X128510Y219359D01*
X129134Y219235D01*
X129758Y219359D01*
X129954Y219490D01*
X140460D01*
X140987Y219595D01*
X141433Y219893D01*
X142312Y220772D01*
X142610Y221218D01*
X142715Y221745D01*
Y232088D01*
X155729D01*
X157679Y230138D01*
Y228376D01*
X157492Y228298D01*
X156844Y227801D01*
X156347Y227154D01*
X156035Y226400D01*
X155928Y225590D01*
X156035Y224781D01*
X156347Y224027D01*
X156844Y223380D01*
X157492Y222883D01*
X158246Y222570D01*
X159055Y222464D01*
X159864Y222570D01*
X160618Y222883D01*
X161266Y223380D01*
X161763Y224027D01*
X162075Y224781D01*
X162182Y225590D01*
X162075Y226400D01*
X161763Y227154D01*
X161266Y227801D01*
X160618Y228298D01*
X160432Y228376D01*
Y230709D01*
X160432Y230709D01*
X160327Y231235D01*
X160028Y231682D01*
X160028Y231682D01*
X157273Y234438D01*
X156826Y234736D01*
X156299Y234841D01*
D02*
G37*
G36*
X46330Y230128D02*
X41587D01*
Y224991D01*
X46330D01*
Y226183D01*
X47440D01*
X49989Y223633D01*
X50436Y223335D01*
X50963Y223230D01*
X53538D01*
Y222038D01*
X59462D01*
Y227962D01*
X53538D01*
Y225983D01*
X51533D01*
X48983Y228532D01*
X48537Y228831D01*
X48010Y228936D01*
X46330D01*
Y230128D01*
D02*
G37*
G36*
X85049Y218513D02*
X81093D01*
Y217518D01*
X78773D01*
X78577Y217649D01*
X77953Y217773D01*
X77328Y217649D01*
X76799Y217295D01*
X76446Y216766D01*
X76321Y216142D01*
X76446Y215517D01*
X76799Y214988D01*
X77328Y214635D01*
X77953Y214510D01*
X78577Y214635D01*
X78773Y214765D01*
X81093D01*
Y213770D01*
X85049D01*
Y218513D01*
D02*
G37*
G36*
X150394Y228717D02*
X149584Y228611D01*
X148830Y228298D01*
X148183Y227801D01*
X147686Y227154D01*
X147373Y226400D01*
X147267Y225590D01*
X147373Y224781D01*
X147686Y224027D01*
X148183Y223380D01*
X148830Y222883D01*
X149374Y222657D01*
Y221912D01*
X144624Y217161D01*
X112639D01*
X112549Y217295D01*
X112020Y217649D01*
X111396Y217773D01*
X110771Y217649D01*
X110242Y217295D01*
X109889Y216766D01*
X109764Y216142D01*
X109889Y215517D01*
X110242Y214988D01*
X110771Y214635D01*
X111396Y214510D01*
X112020Y214635D01*
X112549Y214988D01*
X112639Y215122D01*
X145046D01*
X145436Y215200D01*
X145767Y215421D01*
X151115Y220768D01*
X151336Y221099D01*
X151413Y221489D01*
Y222657D01*
X151957Y222883D01*
X152605Y223380D01*
X153102Y224027D01*
X153414Y224781D01*
X153521Y225590D01*
X153414Y226400D01*
X153102Y227154D01*
X152605Y227801D01*
X151957Y228298D01*
X151203Y228611D01*
X150394Y228717D01*
D02*
G37*
G36*
X102372Y218513D02*
X98416D01*
Y213770D01*
X102372D01*
Y214765D01*
X103859D01*
X104636Y213988D01*
X104702Y213656D01*
X105056Y213127D01*
X105585Y212773D01*
X106209Y212649D01*
X106834Y212773D01*
X107363Y213127D01*
X107717Y213656D01*
X107841Y214280D01*
X107717Y214904D01*
X107363Y215434D01*
X106834Y215787D01*
X106704Y215813D01*
X105700Y216818D01*
X105501Y217115D01*
X105054Y217413D01*
X104528Y217518D01*
X102372D01*
Y218513D01*
D02*
G37*
G36*
X240069Y218781D02*
X231979D01*
Y215219D01*
X233980D01*
Y210649D01*
X221299D01*
X221299Y210649D01*
X221298Y210649D01*
X221069Y210554D01*
X220840Y210459D01*
X220840Y210459D01*
X220840Y210458D01*
X220486Y210104D01*
X220486Y210104D01*
X220486Y210104D01*
X220391Y209874D01*
X220297Y209645D01*
X220297Y209644D01*
X220297Y209644D01*
X220351Y192686D01*
X220446Y192457D01*
X220541Y192229D01*
X220542Y192228D01*
X220542Y192227D01*
X220772Y192133D01*
X221000Y192039D01*
X224791D01*
X225250Y192229D01*
X225440Y192688D01*
Y192888D01*
X229678D01*
Y192688D01*
X229868Y192229D01*
X230328Y192039D01*
X230555D01*
Y191508D01*
X230128Y191332D01*
Y191332D01*
X224991D01*
Y186589D01*
X226539D01*
Y183469D01*
X226617Y183078D01*
X226838Y182748D01*
X227307Y182279D01*
X227638Y182058D01*
X228028Y181980D01*
X234531D01*
X234922Y182058D01*
X235252Y182279D01*
X235721Y182748D01*
X235942Y183078D01*
X236020Y183469D01*
Y187286D01*
X236139Y187399D01*
X236520Y187613D01*
X236722Y187572D01*
X237215D01*
X237545Y187638D01*
X237825Y187825D01*
X238012Y188105D01*
X238060Y188350D01*
X242707D01*
Y186392D01*
X247450D01*
Y191529D01*
X246886D01*
Y194872D01*
X248435D01*
Y196224D01*
X250431D01*
Y194872D01*
X255569D01*
Y199616D01*
X250431D01*
Y198264D01*
X248435D01*
Y199616D01*
X243298D01*
Y194872D01*
X244847D01*
Y191529D01*
X242707D01*
Y190390D01*
X238060D01*
X238012Y190635D01*
X237984Y190676D01*
X237884Y191210D01*
X238104Y191540D01*
X238182Y191929D01*
Y193201D01*
X236968D01*
Y193701D01*
X236469D01*
Y196429D01*
X236418Y196418D01*
X236368Y196421D01*
X235918Y196702D01*
Y200146D01*
X236370Y200629D01*
X237689D01*
Y204283D01*
Y207938D01*
X236020D01*
Y215219D01*
X240069D01*
Y218781D01*
D02*
G37*
G36*
X168407Y213344D02*
X167783Y213220D01*
X167588Y213089D01*
X115713D01*
X115186Y212984D01*
X114739Y212686D01*
X107310Y205257D01*
X107012Y204810D01*
X106907Y204283D01*
Y204143D01*
X105677D01*
Y198219D01*
X109633D01*
Y201676D01*
X109660Y201809D01*
Y203544D01*
X109902Y203730D01*
X110402Y203489D01*
Y198219D01*
X114358D01*
Y204143D01*
X110797D01*
X110590Y204643D01*
X115995Y210048D01*
X116196Y210018D01*
X116363Y209782D01*
X116483Y209470D01*
X116459Y209350D01*
X116131Y209022D01*
X115833Y208576D01*
X115728Y208049D01*
Y204143D01*
X115126D01*
Y198219D01*
X119082D01*
Y204143D01*
X118481D01*
Y207419D01*
X118636Y207450D01*
X119165Y207803D01*
X119519Y208332D01*
X119643Y208957D01*
X119519Y209581D01*
X119349Y209836D01*
X119616Y210336D01*
X167588D01*
X167783Y210205D01*
X168407Y210081D01*
X169032Y210205D01*
X169561Y210559D01*
X169915Y211088D01*
X170039Y211713D01*
X169915Y212337D01*
X169561Y212866D01*
X169032Y213220D01*
X168407Y213344D01*
D02*
G37*
G36*
X299025Y208671D02*
X293888D01*
Y207676D01*
X292913D01*
X292387Y207571D01*
X291940Y207273D01*
X282709Y198041D01*
X279715D01*
Y193298D01*
X284852D01*
Y196291D01*
X293388Y204827D01*
X293888Y204693D01*
Y203928D01*
X299025D01*
Y208671D01*
D02*
G37*
G36*
X149619Y205524D02*
X147350D01*
Y203453D01*
X149619D01*
Y205524D01*
D02*
G37*
G36*
X146350D02*
X144082D01*
Y203453D01*
X146350D01*
Y205524D01*
D02*
G37*
G36*
X286181Y223649D02*
X270000D01*
X269860Y223592D01*
X269712Y223581D01*
X269710Y223581D01*
X269639Y223500D01*
X269541Y223459D01*
X269483Y223320D01*
X269384Y223205D01*
X269384Y223203D01*
X269391Y223099D01*
X269351Y223000D01*
Y217000D01*
X269541Y216541D01*
X269778Y216442D01*
Y212020D01*
X269541Y211922D01*
X269351Y211463D01*
Y203650D01*
X269541Y203190D01*
X270000Y203000D01*
X283925D01*
X284384Y203190D01*
X286640Y205446D01*
X286830Y205906D01*
Y223000D01*
X286640Y223459D01*
X286181Y223649D01*
D02*
G37*
G36*
X34243Y204343D02*
X32565D01*
Y201681D01*
X34243D01*
Y204343D01*
D02*
G37*
G36*
X76763D02*
X75085D01*
Y201681D01*
X76763D01*
Y204343D01*
D02*
G37*
G36*
X124007D02*
X122329D01*
Y201681D01*
X124007D01*
Y204343D01*
D02*
G37*
G36*
X121329D02*
X119651D01*
Y201681D01*
X121329D01*
Y204343D01*
D02*
G37*
G36*
X31565D02*
X29887D01*
Y201681D01*
X31565D01*
Y204343D01*
D02*
G37*
G36*
X74085D02*
X72407D01*
Y201681D01*
X74085D01*
Y204343D01*
D02*
G37*
G36*
X149619Y202453D02*
X147350D01*
Y200381D01*
X149619D01*
Y202453D01*
D02*
G37*
G36*
X146350D02*
X144082D01*
Y200381D01*
X146350D01*
Y202453D01*
D02*
G37*
G36*
X140645Y200631D02*
X140020Y200507D01*
X139824Y200376D01*
X130464D01*
Y200387D01*
X124540D01*
Y196432D01*
X130464D01*
Y197624D01*
X139824D01*
X140020Y197493D01*
X140645Y197369D01*
X141269Y197493D01*
X141398Y197579D01*
X141717Y197191D01*
X139587Y195062D01*
X130464D01*
Y195663D01*
X124540D01*
Y191707D01*
X130464D01*
Y192309D01*
X140157D01*
X140684Y192413D01*
X141131Y192712D01*
X143696Y195277D01*
X144282D01*
Y194282D01*
X149419D01*
Y195671D01*
X152770D01*
Y194282D01*
X161450D01*
Y199813D01*
X152770D01*
Y198424D01*
X149419D01*
Y199025D01*
X144282D01*
Y198030D01*
X143126D01*
X142599Y197925D01*
X142333Y197748D01*
X141973Y198108D01*
X142152Y198376D01*
X142276Y199000D01*
X142152Y199624D01*
X141798Y200153D01*
X141269Y200507D01*
X140645Y200631D01*
D02*
G37*
G36*
X267000Y223649D02*
X242000D01*
X241541Y223459D01*
X241351Y223000D01*
Y208397D01*
X241253Y207938D01*
X240851Y207938D01*
X238689D01*
Y204283D01*
Y200629D01*
X241079Y200629D01*
X241541Y200481D01*
X241669Y200428D01*
X242000Y200291D01*
X242611D01*
X242632Y200299D01*
X242653Y200292D01*
X243140Y200324D01*
X243345Y200425D01*
X243557Y200512D01*
X243565Y200533D01*
X243586Y200543D01*
X243659Y200760D01*
X243747Y200972D01*
Y201172D01*
X247985D01*
Y200972D01*
X248073Y200760D01*
X248147Y200543D01*
X248167Y200533D01*
X248175Y200512D01*
X248387Y200425D01*
X248593Y200324D01*
X249080Y200292D01*
X249101Y200299D01*
X249122Y200291D01*
X249745D01*
X249765Y200299D01*
X249787Y200292D01*
X250273Y200324D01*
X250479Y200425D01*
X250691Y200512D01*
X250699Y200533D01*
X250719Y200543D01*
X250793Y200760D01*
X250881Y200972D01*
Y201172D01*
X255119D01*
Y200972D01*
X255207Y200760D01*
X255280Y200543D01*
X255301Y200533D01*
X255309Y200512D01*
X255521Y200425D01*
X255727Y200324D01*
X256213Y200292D01*
X256235Y200299D01*
X256255Y200291D01*
X257960D01*
X258419Y200481D01*
X258501Y200679D01*
X264333D01*
X264416Y200481D01*
X264875Y200291D01*
X266925D01*
X267384Y200481D01*
X267459Y200556D01*
X267649Y201015D01*
Y203043D01*
Y211463D01*
X267783Y211663D01*
X268222D01*
Y214207D01*
X268227Y214231D01*
X268222Y214256D01*
Y216800D01*
X267783D01*
X267649Y217000D01*
Y223000D01*
X267459Y223459D01*
X267000Y223649D01*
D02*
G37*
G36*
X98353Y208631D02*
X97729Y208507D01*
X97200Y208154D01*
X96846Y207624D01*
X96722Y207000D01*
X96846Y206376D01*
X96977Y206180D01*
Y204143D01*
X96229D01*
Y198219D01*
X100185D01*
Y204143D01*
X99730D01*
Y206180D01*
X99860Y206376D01*
X99985Y207000D01*
X99860Y207624D01*
X99507Y208154D01*
X98977Y208507D01*
X98353Y208631D01*
D02*
G37*
G36*
X86011Y204143D02*
X82055D01*
Y198219D01*
X86011D01*
Y204143D01*
D02*
G37*
G36*
X57087Y215332D02*
X56277Y215225D01*
X55523Y214913D01*
X54876Y214416D01*
X54379Y213768D01*
X54066Y213014D01*
X53960Y212205D01*
X54066Y211396D01*
X54379Y210641D01*
X54876Y209994D01*
X55523Y209497D01*
X56277Y209185D01*
X57087Y209078D01*
X57896Y209185D01*
X58650Y209497D01*
X59298Y209994D01*
X59794Y210641D01*
X59872Y210828D01*
X63759D01*
Y204143D01*
X63158D01*
Y198219D01*
X67114D01*
Y204143D01*
X66512D01*
Y211385D01*
X66643Y211580D01*
X66767Y212205D01*
X66643Y212829D01*
X66289Y213358D01*
X65760Y213712D01*
X65136Y213836D01*
X64512Y213712D01*
X64316Y213581D01*
X59872D01*
X59794Y213768D01*
X59298Y214416D01*
X58650Y214913D01*
X57896Y215225D01*
X57087Y215332D01*
D02*
G37*
G36*
X62389Y204143D02*
X58434D01*
Y198219D01*
X62389D01*
Y204143D01*
D02*
G37*
G36*
X57665D02*
X53709D01*
Y198219D01*
X57665D01*
Y204143D01*
D02*
G37*
G36*
X52940D02*
X48985D01*
Y198219D01*
X52940D01*
Y204143D01*
D02*
G37*
G36*
X48216D02*
X44260D01*
Y198219D01*
X48216D01*
Y204143D01*
D02*
G37*
G36*
X43492D02*
X39536D01*
Y198219D01*
X43492D01*
Y204143D01*
D02*
G37*
G36*
X38767D02*
X34811D01*
Y198219D01*
X38767D01*
Y204143D01*
D02*
G37*
G36*
X124007Y200681D02*
X122329D01*
Y198019D01*
X124007D01*
Y200681D01*
D02*
G37*
G36*
X121329D02*
X119651D01*
Y198019D01*
X121329D01*
Y200681D01*
D02*
G37*
G36*
X76763D02*
X75085D01*
Y198019D01*
X76763D01*
Y200681D01*
D02*
G37*
G36*
X74085D02*
X72407D01*
Y198019D01*
X74085D01*
Y200681D01*
D02*
G37*
G36*
X34243D02*
X32565D01*
Y198019D01*
X34243D01*
Y200681D01*
D02*
G37*
G36*
X31565D02*
X29887D01*
Y198019D01*
X31565D01*
Y200681D01*
D02*
G37*
G36*
X264875Y199521D02*
X261917D01*
Y197350D01*
X264875D01*
Y199521D01*
D02*
G37*
G36*
X260917D02*
X257960D01*
Y197350D01*
X260917D01*
Y199521D01*
D02*
G37*
G36*
X276095Y199127D02*
X272941D01*
Y196563D01*
X276095D01*
Y199127D01*
D02*
G37*
G36*
X271941D02*
X268787D01*
Y196563D01*
X271941D01*
Y199127D01*
D02*
G37*
G36*
X237469Y196429D02*
Y194201D01*
X238182D01*
Y195472D01*
X238104Y195861D01*
X237884Y196191D01*
X237554Y196411D01*
X237469Y196429D01*
D02*
G37*
G36*
X264875Y196350D02*
X261917D01*
Y194180D01*
X264875D01*
Y196350D01*
D02*
G37*
G36*
X260917D02*
X257960D01*
Y194180D01*
X260917D01*
Y196350D01*
D02*
G37*
G36*
X276095Y195563D02*
X272941D01*
Y192999D01*
X276095D01*
Y195563D01*
D02*
G37*
G36*
X271941D02*
X268787D01*
Y192999D01*
X271941D01*
Y195563D01*
D02*
G37*
G36*
X149419Y191348D02*
X144282D01*
Y190337D01*
X130464D01*
Y190939D01*
X124540D01*
Y186983D01*
X130464D01*
Y187584D01*
X144282D01*
Y186605D01*
X149419D01*
Y187600D01*
X152770D01*
Y184439D01*
X161450D01*
Y189970D01*
X156281D01*
X155865Y190248D01*
X155339Y190353D01*
X149419D01*
Y191348D01*
D02*
G37*
G36*
X253950Y191729D02*
X251878D01*
Y189461D01*
X253950D01*
Y191729D01*
D02*
G37*
G36*
X250878D02*
X248806D01*
Y189461D01*
X250878D01*
Y189994D01*
Y191729D01*
D02*
G37*
G36*
X275895Y191840D02*
X268987D01*
Y186113D01*
X275895D01*
Y187994D01*
X279715D01*
Y186998D01*
X284852D01*
Y187994D01*
X286180D01*
X286376Y187863D01*
X287000Y187739D01*
X287624Y187863D01*
X288154Y188217D01*
X288507Y188746D01*
X288631Y189370D01*
X288507Y189994D01*
X288154Y190524D01*
X287624Y190877D01*
X287000Y191001D01*
X286376Y190877D01*
X286180Y190746D01*
X284852D01*
Y191742D01*
X279715D01*
Y190746D01*
X275895D01*
Y191840D01*
D02*
G37*
G36*
X177000Y200362D02*
X176376Y200238D01*
X175847Y199885D01*
X175493Y199355D01*
X175369Y198731D01*
X175493Y198107D01*
X175847Y197578D01*
X176376Y197224D01*
X177000Y197100D01*
X177624Y197224D01*
X177820Y197355D01*
X185697D01*
X194655Y188397D01*
X195101Y188098D01*
X195628Y187994D01*
X199968D01*
X200163Y187863D01*
X200787Y187739D01*
X201412Y187863D01*
X201941Y188216D01*
X202295Y188746D01*
X202419Y189370D01*
X202295Y189994D01*
X201941Y190524D01*
X201412Y190877D01*
X200787Y191001D01*
X200163Y190877D01*
X199968Y190746D01*
X196198D01*
X187240Y199704D01*
X186794Y200003D01*
X186267Y200108D01*
X177820D01*
X177624Y200238D01*
X177000Y200362D01*
D02*
G37*
G36*
X253950Y188461D02*
X251878D01*
Y186192D01*
X253950D01*
Y186796D01*
Y188461D01*
D02*
G37*
G36*
X250878D02*
X248806D01*
Y186192D01*
X250878D01*
Y188461D01*
D02*
G37*
G36*
X171153Y185415D02*
X170928Y185386D01*
X170252Y185106D01*
X169671Y184660D01*
X169327Y184212D01*
X169319Y184207D01*
X168872Y184168D01*
X168735Y184203D01*
X168494Y184517D01*
X167955Y184931D01*
X167327Y185191D01*
X166654Y185279D01*
X165980Y185191D01*
X165352Y184931D01*
X164813Y184517D01*
X164458Y184054D01*
X162793D01*
X162793Y184054D01*
X162266Y183949D01*
X161820Y183651D01*
X161820Y183650D01*
X160050Y181881D01*
X159752Y181435D01*
X159647Y180908D01*
Y179054D01*
X143339D01*
X143144Y179184D01*
X142519Y179308D01*
X141895Y179184D01*
X141366Y178831D01*
X141012Y178302D01*
X140888Y177677D01*
X141012Y177053D01*
X141272Y176664D01*
X141091Y176210D01*
X141051Y176164D01*
X130464D01*
Y176765D01*
X124540D01*
Y172809D01*
X130464D01*
Y173411D01*
X142274D01*
X142470Y173280D01*
X143095Y173156D01*
X143719Y173280D01*
X143914Y173411D01*
X156282D01*
X157445Y172247D01*
X157471Y172118D01*
X157825Y171589D01*
X158354Y171235D01*
X158978Y171111D01*
X159603Y171235D01*
X160132Y171589D01*
X160485Y172118D01*
X160610Y172742D01*
X160485Y173366D01*
X160132Y173896D01*
X159603Y174249D01*
X159271Y174315D01*
X157825Y175761D01*
X157765Y175801D01*
X157917Y176301D01*
X160204D01*
X160399Y176170D01*
X161024Y176046D01*
X161648Y176170D01*
X162177Y176524D01*
X162531Y177053D01*
X162655Y177677D01*
X162531Y178302D01*
X162400Y178497D01*
Y180338D01*
X163363Y181301D01*
X164458D01*
X164813Y180837D01*
X165311Y180455D01*
X165345Y180177D01*
X165311Y179899D01*
X164813Y179517D01*
X164400Y178978D01*
X164140Y178351D01*
X164051Y177677D01*
X164140Y177004D01*
X164400Y176376D01*
X164813Y175837D01*
X165311Y175455D01*
X165345Y175177D01*
X165311Y174899D01*
X164813Y174517D01*
X164400Y173978D01*
X164140Y173351D01*
X164051Y172677D01*
X164140Y172004D01*
X164400Y171376D01*
X164813Y170837D01*
X165311Y170455D01*
X165345Y170177D01*
X165311Y169899D01*
X164813Y169517D01*
X164458Y169054D01*
X157680D01*
X155698Y171036D01*
X155251Y171335D01*
X154724Y171439D01*
X153970D01*
X153774Y171570D01*
X153150Y171694D01*
X152525Y171570D01*
X152330Y171439D01*
X130464D01*
Y172041D01*
X124540D01*
Y168085D01*
X130464D01*
Y168686D01*
X151773D01*
Y167004D01*
X151586Y166926D01*
X150939Y166429D01*
X150442Y165782D01*
X150129Y165028D01*
X150023Y164218D01*
X150129Y163409D01*
X150442Y162655D01*
X150939Y162008D01*
X151586Y161511D01*
X152340Y161198D01*
X153150Y161092D01*
X153959Y161198D01*
X154713Y161511D01*
X155361Y162008D01*
X155857Y162655D01*
X156170Y163409D01*
X156276Y164218D01*
X156170Y165028D01*
X155857Y165782D01*
X155361Y166429D01*
X154713Y166926D01*
X154526Y167004D01*
Y167661D01*
X154988Y167853D01*
X156137Y166704D01*
X156583Y166405D01*
X157110Y166301D01*
X164458D01*
X164813Y165837D01*
X165311Y165455D01*
X165345Y165177D01*
X165311Y164899D01*
X164813Y164517D01*
X164458Y164054D01*
X161844D01*
X161648Y164184D01*
X161024Y164309D01*
X160399Y164184D01*
X159870Y163831D01*
X159517Y163302D01*
X159392Y162677D01*
X159517Y162053D01*
X159647Y161857D01*
Y159146D01*
X159752Y158620D01*
X160050Y158173D01*
X160457Y157766D01*
X160250Y157266D01*
X130464D01*
Y157868D01*
X124540D01*
Y153912D01*
X130464D01*
Y154513D01*
X191700D01*
X191895Y154383D01*
X192520Y154258D01*
X193144Y154383D01*
X193673Y154736D01*
X194027Y155265D01*
X194151Y155890D01*
X194027Y156514D01*
X193673Y157043D01*
X193144Y157397D01*
X192520Y157521D01*
X191895Y157397D01*
X191700Y157266D01*
X189120D01*
X189020Y157766D01*
X189359Y157906D01*
X190006Y158403D01*
X190503Y159051D01*
X190815Y159805D01*
X190922Y160614D01*
X190815Y161423D01*
X190503Y162178D01*
X190006Y162825D01*
X189359Y163322D01*
X188604Y163634D01*
X187795Y163741D01*
X186986Y163634D01*
X186232Y163322D01*
X185584Y162825D01*
X185087Y162178D01*
X184775Y161423D01*
X184669Y160614D01*
X184730Y160144D01*
X184335Y159644D01*
X174347D01*
X174234Y160097D01*
X174233D01*
Y161301D01*
X180224D01*
X180750Y161406D01*
X181197Y161704D01*
X183366Y163873D01*
X183366Y163873D01*
X183664Y164319D01*
X183769Y164846D01*
X183769Y164846D01*
Y165687D01*
X183957Y165969D01*
X184081Y166593D01*
X183957Y167217D01*
X183604Y167746D01*
X183074Y168100D01*
X182450Y168224D01*
X181826Y168100D01*
X181297Y167746D01*
X180943Y167217D01*
X180819Y166593D01*
X180943Y165969D01*
X181016Y165859D01*
Y165416D01*
X179654Y164054D01*
X174233D01*
Y165257D01*
X173803D01*
X173684Y165757D01*
X174082Y166275D01*
X174362Y166951D01*
X174392Y167177D01*
X171653D01*
Y168177D01*
X174392D01*
X174362Y168403D01*
X174082Y169079D01*
X173636Y169660D01*
X173373Y169862D01*
Y170492D01*
X173636Y170694D01*
X174082Y171275D01*
X174362Y171951D01*
X174392Y172177D01*
X171653D01*
Y173177D01*
X174392D01*
X174362Y173403D01*
X174082Y174079D01*
X173636Y174660D01*
X173188Y175004D01*
X173184Y175012D01*
X173145Y175459D01*
X173179Y175596D01*
X173494Y175837D01*
X173907Y176376D01*
X174167Y177004D01*
X174256Y177677D01*
X174167Y178351D01*
X173907Y178978D01*
X173494Y179517D01*
X173179Y179759D01*
X173145Y179895D01*
X173184Y180343D01*
X173188Y180351D01*
X173636Y180694D01*
X174082Y181275D01*
X174362Y181951D01*
X174392Y182177D01*
X171653D01*
Y182677D01*
X171153D01*
Y185415D01*
D02*
G37*
G36*
X172153D02*
Y183177D01*
X174392D01*
X174362Y183403D01*
X174082Y184079D01*
X173636Y184660D01*
X173056Y185106D01*
X172379Y185386D01*
X172153Y185415D01*
D02*
G37*
G36*
X149619Y185249D02*
X147350D01*
Y183177D01*
X149619D01*
Y185249D01*
D02*
G37*
G36*
X146350D02*
X144082D01*
Y183177D01*
X146350D01*
Y185249D01*
D02*
G37*
G36*
X130464Y186214D02*
X124540D01*
Y182258D01*
X130464D01*
Y182860D01*
X134838D01*
X134846Y182846D01*
X135376Y182493D01*
X136000Y182369D01*
X136624Y182493D01*
X137153Y182846D01*
X137507Y183376D01*
X137631Y184000D01*
X137507Y184624D01*
X137153Y185153D01*
X136624Y185507D01*
X136000Y185631D01*
X135835Y185599D01*
X135764Y185613D01*
X130464D01*
Y186214D01*
D02*
G37*
G36*
X248635Y182591D02*
X246366D01*
Y180520D01*
X248635D01*
Y182591D01*
D02*
G37*
G36*
X245366D02*
X243098D01*
Y180520D01*
X245366D01*
Y182591D01*
D02*
G37*
G36*
X149619Y182177D02*
X147350D01*
Y180105D01*
X149619D01*
Y182177D01*
D02*
G37*
G36*
X146350D02*
X144082D01*
Y180105D01*
X146350D01*
Y182177D01*
D02*
G37*
G36*
X61577Y183653D02*
X57341D01*
Y179416D01*
X61577D01*
Y183653D01*
D02*
G37*
G36*
X47608D02*
X43371D01*
Y179416D01*
X47608D01*
Y183653D01*
D02*
G37*
G36*
X274222Y180915D02*
X267707D01*
Y180806D01*
X255906D01*
X255906Y180806D01*
X251575D01*
X251048Y180701D01*
X250602Y180402D01*
X249097Y178898D01*
X248635Y179089D01*
Y179520D01*
X246366D01*
Y177448D01*
X246994D01*
X247185Y176986D01*
X246291Y176092D01*
X243298D01*
Y175097D01*
X196096D01*
X195900Y175228D01*
X195276Y175352D01*
X194651Y175228D01*
X194122Y174874D01*
X193768Y174345D01*
X193644Y173721D01*
X193768Y173096D01*
X194122Y172567D01*
X194651Y172213D01*
X195276Y172089D01*
X195900Y172213D01*
X196096Y172344D01*
X243298D01*
Y171349D01*
X248435D01*
Y174342D01*
X252145Y178053D01*
X255906D01*
X255906Y178053D01*
X267707D01*
Y175688D01*
X262205D01*
X262205Y175688D01*
X261678Y175583D01*
X261231Y175284D01*
X261231Y175284D01*
X260444Y174497D01*
X260146Y174050D01*
X260041Y173524D01*
Y168120D01*
X258652D01*
Y163633D01*
X258190Y163442D01*
X255304Y166328D01*
X254857Y166626D01*
X254331Y166731D01*
X252765D01*
Y167726D01*
X247628D01*
Y162983D01*
X252765D01*
Y163978D01*
X253761D01*
X258652Y159087D01*
Y155502D01*
X264183D01*
Y161033D01*
X260599D01*
X259505Y162127D01*
X259696Y162589D01*
X264183D01*
Y168120D01*
X262794D01*
Y172935D01*
X267707D01*
Y170266D01*
X269588D01*
Y149508D01*
X269693Y148981D01*
X269991Y148535D01*
X270069Y148457D01*
Y144872D01*
X275600D01*
Y150403D01*
X272341D01*
Y170266D01*
X274222D01*
Y172825D01*
Y175384D01*
Y177943D01*
Y180915D01*
D02*
G37*
G36*
X112337Y182842D02*
X108100D01*
Y178605D01*
X112337D01*
Y182842D01*
D02*
G37*
G36*
X101097D02*
X96860D01*
Y178605D01*
X101097D01*
Y182842D01*
D02*
G37*
G36*
X107100D02*
X102863D01*
Y178605D01*
X107100D01*
Y182842D01*
D02*
G37*
G36*
X95860D02*
X91623D01*
Y178605D01*
X95860D01*
Y182842D01*
D02*
G37*
G36*
X119000Y181631D02*
X118376Y181507D01*
X117847Y181154D01*
X117493Y180624D01*
X117369Y180000D01*
X117493Y179376D01*
X117847Y178847D01*
X118376Y178493D01*
X119000Y178369D01*
X119624Y178493D01*
X119820Y178624D01*
X124081D01*
X124166Y178539D01*
X124167Y178539D01*
X124540Y178289D01*
Y177534D01*
X130464D01*
Y181490D01*
X124540D01*
Y181376D01*
X119820D01*
X119624Y181507D01*
X119000Y181631D01*
D02*
G37*
G36*
X245366Y179520D02*
X243098D01*
Y177448D01*
X245366D01*
Y179520D01*
D02*
G37*
G36*
X112337Y177605D02*
X108100D01*
Y173368D01*
X112337D01*
Y177605D01*
D02*
G37*
G36*
X107100D02*
X102863D01*
Y173368D01*
X107100D01*
Y177605D01*
D02*
G37*
G36*
X101097D02*
X96860D01*
Y173368D01*
X101097D01*
Y177605D01*
D02*
G37*
G36*
X95860D02*
X91623D01*
Y173368D01*
X95860D01*
Y177605D01*
D02*
G37*
G36*
X289773Y180915D02*
X283258D01*
Y178556D01*
X283058D01*
Y177370D01*
X289973D01*
Y178410D01*
X298810D01*
Y175483D01*
X299404D01*
X299573Y174983D01*
X299546Y174962D01*
X299134Y174425D01*
X299020Y174150D01*
X295540D01*
X295150Y174072D01*
X294819Y173851D01*
X293988Y173020D01*
X293934Y173004D01*
X293801Y173038D01*
X293583Y173611D01*
X293633Y173687D01*
X293757Y174311D01*
X293633Y174935D01*
X293280Y175465D01*
X292750Y175818D01*
X292126Y175942D01*
X291502Y175818D01*
X290972Y175465D01*
X290883Y175331D01*
X289973D01*
Y176370D01*
X283058D01*
Y175184D01*
X283258D01*
Y170266D01*
X289773D01*
Y170732D01*
X294162D01*
X294552Y170810D01*
X294883Y171031D01*
X295963Y172110D01*
X299020D01*
X299134Y171835D01*
X299546Y171298D01*
X300083Y170886D01*
X300708Y170627D01*
X301378Y170539D01*
X302048Y170627D01*
X302673Y170886D01*
X303210Y171298D01*
X303622Y171835D01*
X303880Y172459D01*
X303969Y173130D01*
X303880Y173800D01*
X303622Y174425D01*
X303210Y174962D01*
X303183Y174983D01*
X303352Y175483D01*
X303946D01*
Y180620D01*
X298810D01*
Y180449D01*
X289773D01*
Y180915D01*
D02*
G37*
G36*
X112337Y171330D02*
X108100D01*
Y167093D01*
X112337D01*
Y171330D01*
D02*
G37*
G36*
X101097D02*
X96860D01*
Y167093D01*
X101097D01*
Y171330D01*
D02*
G37*
G36*
X107100D02*
X102863D01*
Y167093D01*
X107100D01*
Y171330D01*
D02*
G37*
G36*
X95860D02*
X91623D01*
Y167093D01*
X95860D01*
Y171330D01*
D02*
G37*
G36*
X61577Y169825D02*
X57341D01*
Y165588D01*
X61577D01*
Y169825D01*
D02*
G37*
G36*
X56340Y183653D02*
X48608D01*
Y178916D01*
X48108D01*
Y178416D01*
X43371D01*
Y174179D01*
Y170825D01*
X48108D01*
Y170325D01*
X48608D01*
Y165588D01*
X56340D01*
Y170325D01*
X56840D01*
Y170825D01*
X61577D01*
Y174179D01*
Y178416D01*
X56840D01*
Y178916D01*
X56340D01*
Y183653D01*
D02*
G37*
G36*
X47608Y169825D02*
X43371D01*
Y165588D01*
X47608D01*
Y169825D01*
D02*
G37*
G36*
X130464Y167316D02*
X124540D01*
Y163361D01*
X130464D01*
Y163978D01*
X142290D01*
X142486Y163847D01*
X143110Y163723D01*
X143735Y163847D01*
X144264Y164201D01*
X144617Y164730D01*
X144742Y165354D01*
X144617Y165979D01*
X144264Y166508D01*
X143735Y166861D01*
X143110Y166986D01*
X142486Y166861D01*
X142290Y166731D01*
X130464D01*
Y167316D01*
D02*
G37*
G36*
X81287Y204143D02*
X77331D01*
Y198219D01*
X77933D01*
Y164218D01*
X77936Y164201D01*
X77896Y164000D01*
X78020Y163376D01*
X78374Y162847D01*
X78903Y162493D01*
X79528Y162369D01*
X80152Y162493D01*
X80681Y162847D01*
X81035Y163376D01*
X81159Y164000D01*
X81035Y164624D01*
X80686Y165147D01*
Y198219D01*
X81287D01*
Y204143D01*
D02*
G37*
G36*
X112337Y166093D02*
X108100D01*
Y161856D01*
X112337D01*
Y166093D01*
D02*
G37*
G36*
X107100D02*
X102863D01*
Y161856D01*
X107100D01*
Y166093D01*
D02*
G37*
G36*
X101097D02*
X96860D01*
Y161856D01*
X101097D01*
Y166093D01*
D02*
G37*
G36*
X95860D02*
X91623D01*
Y161856D01*
X95860D01*
Y166093D01*
D02*
G37*
G36*
X252765Y161427D02*
X247628D01*
Y160432D01*
X246654D01*
X246654Y160432D01*
X246127Y160327D01*
X245680Y160028D01*
X242157Y156506D01*
X236802D01*
Y149006D01*
X243907D01*
Y154362D01*
X247128Y157583D01*
X247628Y157448D01*
Y156684D01*
X252765D01*
Y161427D01*
D02*
G37*
G36*
X69860Y217773D02*
X69236Y217649D01*
X68707Y217295D01*
X68353Y216766D01*
X68229Y216142D01*
X68353Y215517D01*
X68484Y215322D01*
Y204143D01*
X67882D01*
Y198219D01*
X68484D01*
Y161751D01*
X68353Y161555D01*
X68229Y160931D01*
X68353Y160307D01*
X68707Y159778D01*
X69236Y159424D01*
X69860Y159300D01*
X70485Y159424D01*
X71014Y159778D01*
X71367Y160307D01*
X71492Y160931D01*
X71367Y161555D01*
X71237Y161751D01*
Y198219D01*
X71838D01*
Y204143D01*
X71237D01*
Y215322D01*
X71367Y215517D01*
X71492Y216142D01*
X71367Y216766D01*
X71014Y217295D01*
X70485Y217649D01*
X69860Y217773D01*
D02*
G37*
G36*
X130464Y162592D02*
X124540D01*
Y158636D01*
X130464D01*
Y162592D01*
D02*
G37*
G36*
X230721Y159855D02*
X228059D01*
Y157193D01*
X230721D01*
Y159855D01*
D02*
G37*
G36*
X227059D02*
X224397D01*
Y157193D01*
X227059D01*
Y159855D01*
D02*
G37*
G36*
X213792Y158871D02*
X211524D01*
Y156799D01*
X213792D01*
Y158871D01*
D02*
G37*
G36*
X210524D02*
X208255D01*
Y156799D01*
X210524D01*
Y158871D01*
D02*
G37*
G36*
X104909Y204143D02*
X100953D01*
Y198219D01*
X101555D01*
Y192813D01*
X96550Y187808D01*
X84912D01*
X84385Y187703D01*
X83939Y187405D01*
X83060Y186526D01*
X82762Y186080D01*
X82657Y185553D01*
Y157820D01*
X82526Y157624D01*
X82402Y157000D01*
X82526Y156376D01*
X82880Y155847D01*
X83409Y155493D01*
X84034Y155369D01*
X84658Y155493D01*
X85187Y155847D01*
X85541Y156376D01*
X85665Y157000D01*
X85541Y157624D01*
X85410Y157820D01*
Y184983D01*
X85482Y185055D01*
X97120D01*
X97646Y185160D01*
X98093Y185458D01*
X103904Y191270D01*
X103904Y191270D01*
X104203Y191716D01*
X104307Y192243D01*
Y198219D01*
X104909D01*
Y204143D01*
D02*
G37*
G36*
X213792Y155799D02*
X211524D01*
Y153728D01*
X213792D01*
Y155799D01*
D02*
G37*
G36*
X210524D02*
X208255D01*
Y153728D01*
X210524D01*
Y155799D01*
D02*
G37*
G36*
X230721Y156193D02*
X228059D01*
Y153531D01*
X230721D01*
Y156193D01*
D02*
G37*
G36*
X227059D02*
X224397D01*
Y153531D01*
X227059D01*
Y156193D01*
D02*
G37*
G36*
X213592Y152372D02*
X208455D01*
Y151376D01*
X201607D01*
X201412Y151507D01*
X200787Y151631D01*
X200163Y151507D01*
X199634Y151154D01*
X199280Y150624D01*
X199156Y150000D01*
X199280Y149376D01*
X199634Y148846D01*
X200163Y148493D01*
X200787Y148369D01*
X201412Y148493D01*
X201607Y148624D01*
X208455D01*
Y147628D01*
X213592D01*
Y148624D01*
X224597D01*
Y145857D01*
X226183D01*
Y141765D01*
X226052Y141569D01*
X225928Y140945D01*
X226052Y140321D01*
X226406Y139791D01*
X226935Y139438D01*
X227559Y139313D01*
X228183Y139438D01*
X228713Y139791D01*
X229066Y140321D01*
X229190Y140945D01*
X229066Y141569D01*
X228936Y141765D01*
Y145857D01*
X230521D01*
Y151781D01*
X224597D01*
Y151376D01*
X213592D01*
Y152372D01*
D02*
G37*
G36*
X34243Y151587D02*
X32565D01*
Y148925D01*
X34243D01*
Y151587D01*
D02*
G37*
G36*
X109833D02*
X108156D01*
Y148925D01*
X109833D01*
Y151587D01*
D02*
G37*
G36*
X76763D02*
X75085D01*
Y148925D01*
X76763D01*
Y151587D01*
D02*
G37*
G36*
X124007D02*
X122329D01*
Y148925D01*
X124007D01*
Y151587D01*
D02*
G37*
G36*
X121329D02*
X119651D01*
Y148925D01*
X121329D01*
Y151587D01*
D02*
G37*
G36*
X31565D02*
X29887D01*
Y148925D01*
X31565D01*
Y151587D01*
D02*
G37*
G36*
X107156D02*
X105477D01*
Y148925D01*
X107156D01*
Y151587D01*
D02*
G37*
G36*
X74085D02*
X72407D01*
Y148925D01*
X74085D01*
Y151587D01*
D02*
G37*
G36*
X291745Y149816D02*
X289476D01*
Y147744D01*
X291745D01*
Y149816D01*
D02*
G37*
G36*
X288476D02*
X286208D01*
Y147744D01*
X288476D01*
Y149816D01*
D02*
G37*
G36*
X119082Y151387D02*
X115126D01*
Y145463D01*
X119082D01*
Y151387D01*
D02*
G37*
G36*
X114358D02*
X110402D01*
Y145463D01*
X114358D01*
Y151387D01*
D02*
G37*
G36*
X95460D02*
X91504D01*
Y145463D01*
X95460D01*
Y151387D01*
D02*
G37*
G36*
X90736D02*
X86780D01*
Y145463D01*
X90736D01*
Y151387D01*
D02*
G37*
G36*
X71838D02*
X67882D01*
Y145463D01*
X71838D01*
Y151387D01*
D02*
G37*
G36*
X57665D02*
X53709D01*
Y145463D01*
X57665D01*
Y151387D01*
D02*
G37*
G36*
X52940D02*
X48985D01*
Y145463D01*
X52940D01*
Y151387D01*
D02*
G37*
G36*
X48216D02*
X44260D01*
Y145463D01*
X48216D01*
Y151387D01*
D02*
G37*
G36*
X43492D02*
X39536D01*
Y145463D01*
X43492D01*
Y151387D01*
D02*
G37*
G36*
X38767D02*
X34811D01*
Y145463D01*
X38767D01*
Y151387D01*
D02*
G37*
G36*
X124007Y147925D02*
X122329D01*
Y145263D01*
X124007D01*
Y147925D01*
D02*
G37*
G36*
X121329D02*
X119651D01*
Y145263D01*
X121329D01*
Y147925D01*
D02*
G37*
G36*
X109833D02*
X108156D01*
Y145263D01*
X109833D01*
Y147925D01*
D02*
G37*
G36*
X107156D02*
X105477D01*
Y145263D01*
X107156D01*
Y147925D01*
D02*
G37*
G36*
X76763D02*
X75085D01*
Y145263D01*
X76763D01*
Y147925D01*
D02*
G37*
G36*
X74085D02*
X72407D01*
Y145263D01*
X74085D01*
Y147925D01*
D02*
G37*
G36*
X34243D02*
X32565D01*
Y145263D01*
X34243D01*
Y147925D01*
D02*
G37*
G36*
X31565D02*
X29887D01*
Y145263D01*
X31565D01*
Y147925D01*
D02*
G37*
G36*
X291745Y146744D02*
X289476D01*
Y144673D01*
X291745D01*
Y146744D01*
D02*
G37*
G36*
X288476D02*
X286208D01*
Y144673D01*
X288476D01*
Y146744D01*
D02*
G37*
G36*
X148607Y147654D02*
X146043D01*
Y144500D01*
X148607D01*
Y147654D01*
D02*
G37*
G36*
X145043D02*
X142480D01*
Y144500D01*
X145043D01*
Y147654D01*
D02*
G37*
G36*
X291545Y143316D02*
X286408D01*
Y141928D01*
X275600D01*
Y143316D01*
X270069D01*
Y137786D01*
X275600D01*
Y139175D01*
X286408D01*
Y138573D01*
X291545D01*
Y143316D01*
D02*
G37*
G36*
X148607Y143500D02*
X146043D01*
Y140346D01*
X148607D01*
Y143500D01*
D02*
G37*
G36*
X145043D02*
X142480D01*
Y140346D01*
X145043D01*
Y143500D01*
D02*
G37*
G36*
X188789Y140167D02*
X183652D01*
Y139172D01*
X176191D01*
Y140167D01*
X171054D01*
Y139172D01*
X169227D01*
X169032Y139302D01*
X168407Y139427D01*
X167783Y139302D01*
X167254Y138949D01*
X166900Y138420D01*
X166776Y137795D01*
X166900Y137171D01*
X167254Y136642D01*
X167783Y136288D01*
X168407Y136164D01*
X169032Y136288D01*
X169227Y136419D01*
X171054D01*
Y135424D01*
X176191D01*
Y136419D01*
X183652D01*
Y135424D01*
X188789D01*
Y140167D01*
D02*
G37*
G36*
X67114Y151387D02*
X63158D01*
Y145463D01*
X63759D01*
Y140943D01*
X63864Y140416D01*
X64162Y139970D01*
X64361Y139771D01*
Y136778D01*
X69498D01*
Y141521D01*
X66512D01*
Y145463D01*
X67114D01*
Y151387D01*
D02*
G37*
G36*
X86011D02*
X82055D01*
Y145463D01*
X82657D01*
Y139982D01*
X82762Y139455D01*
X83060Y139009D01*
X84046Y138023D01*
Y135030D01*
X89183D01*
Y139773D01*
X86189D01*
X85410Y140552D01*
Y145463D01*
X86011D01*
Y151387D01*
D02*
G37*
G36*
X81287D02*
X77331D01*
Y145463D01*
X77933D01*
Y139773D01*
X76959D01*
Y135030D01*
X82096D01*
Y139773D01*
X80686D01*
Y145463D01*
X81287D01*
Y151387D01*
D02*
G37*
G36*
X192520Y136299D02*
X191895Y136174D01*
X191366Y135821D01*
X191013Y135292D01*
X190967Y135061D01*
X189251Y133345D01*
X188789Y133537D01*
Y133868D01*
X183652D01*
Y129124D01*
X188789D01*
Y130120D01*
X189348D01*
X189875Y130224D01*
X190322Y130523D01*
X192913Y133114D01*
X193144Y133160D01*
X193673Y133514D01*
X194027Y134043D01*
X194151Y134667D01*
X194027Y135292D01*
X193673Y135821D01*
X193144Y136174D01*
X192520Y136299D01*
D02*
G37*
G36*
X130464Y153143D02*
X124540D01*
Y149187D01*
X126916D01*
X127049Y148987D01*
X127049Y133031D01*
X127099Y132912D01*
Y132783D01*
X127174Y132602D01*
X127265Y132510D01*
X127315Y132391D01*
X127434Y132342D01*
X127525Y132250D01*
X127655D01*
X127774Y132201D01*
X140000D01*
X140459Y132391D01*
X140649Y132850D01*
Y140346D01*
X140783Y140546D01*
X141321D01*
Y147454D01*
X140783D01*
X140649Y147654D01*
Y152000D01*
X140459Y152459D01*
X140000Y152649D01*
X130664D01*
X130464Y152783D01*
Y153143D01*
D02*
G37*
G36*
X176391Y134068D02*
X174122D01*
Y131996D01*
X176391D01*
Y134068D01*
D02*
G37*
G36*
X173122D02*
X170853D01*
Y131996D01*
X173122D01*
Y134068D01*
D02*
G37*
G36*
X176391Y130996D02*
X174122D01*
Y128924D01*
X176391D01*
Y130996D01*
D02*
G37*
G36*
X173122D02*
X170853D01*
Y128924D01*
X173122D01*
Y130996D01*
D02*
G37*
G36*
X69498Y135222D02*
X64361D01*
Y130479D01*
X65553D01*
Y128820D01*
X65422Y128624D01*
X65298Y128000D01*
X65422Y127376D01*
X65776Y126847D01*
X66305Y126493D01*
X66929Y126369D01*
X67553Y126493D01*
X68083Y126847D01*
X68436Y127376D01*
X68560Y128000D01*
X68436Y128624D01*
X68306Y128820D01*
Y130479D01*
X69498D01*
Y135222D01*
D02*
G37*
G36*
X148000Y135631D02*
X147376Y135507D01*
X146846Y135153D01*
X146493Y134624D01*
X146369Y134000D01*
X146493Y133376D01*
X146624Y133180D01*
Y128671D01*
X145303D01*
Y123928D01*
X150441D01*
Y128671D01*
X149376D01*
Y133180D01*
X149507Y133376D01*
X149631Y134000D01*
X149507Y134624D01*
X149153Y135153D01*
X148624Y135507D01*
X148000Y135631D01*
D02*
G37*
G36*
X205512Y124072D02*
X204888Y123948D01*
X204692Y123817D01*
X180820D01*
X180624Y123948D01*
X180000Y124072D01*
X179376Y123948D01*
X179180Y123817D01*
X155905D01*
X155379Y123713D01*
X154932Y123414D01*
X154634Y122968D01*
X154529Y122441D01*
Y112449D01*
X154457Y112376D01*
X112292D01*
X112070Y112598D01*
X112024Y112829D01*
X111670Y113358D01*
X111141Y113712D01*
X110517Y113836D01*
X109893Y113712D01*
X109363Y113358D01*
X109010Y112829D01*
X108897Y112261D01*
X108700Y112142D01*
X108408Y112042D01*
X105426Y115025D01*
Y119118D01*
X100289D01*
Y114374D01*
X102183D01*
X110030Y106527D01*
Y103534D01*
X115167D01*
Y104529D01*
X125524D01*
Y103928D01*
X130661D01*
Y108671D01*
X125524D01*
Y107282D01*
X115167D01*
Y108277D01*
X112173D01*
X111241Y109209D01*
X111487Y109670D01*
X111722Y109624D01*
X155027D01*
X155554Y109728D01*
X156000Y110027D01*
X156879Y110905D01*
X157177Y111352D01*
X157282Y111879D01*
Y121064D01*
X160455D01*
X160504Y120564D01*
X160497Y120563D01*
X160050Y120265D01*
X159752Y119818D01*
X159647Y119291D01*
Y108142D01*
X159575Y108069D01*
X139009D01*
X138813Y108200D01*
X138189Y108324D01*
X137565Y108200D01*
X137035Y107846D01*
X136682Y107317D01*
X136558Y106693D01*
X136682Y106069D01*
X137035Y105539D01*
X137565Y105186D01*
X137897Y105120D01*
X137989Y105101D01*
Y104592D01*
X137897Y104573D01*
X137565Y104507D01*
X137035Y104154D01*
X136682Y103624D01*
X136558Y103000D01*
X136682Y102376D01*
X137035Y101847D01*
X137565Y101493D01*
X138189Y101369D01*
X138813Y101493D01*
X139009Y101624D01*
X164000D01*
X164527Y101728D01*
X164973Y102027D01*
X165973Y103027D01*
X165973Y103027D01*
X166272Y103473D01*
X166376Y104000D01*
Y114624D01*
X199411D01*
Y71570D01*
X198902Y71061D01*
X189006D01*
X188928Y71248D01*
X188431Y71896D01*
X187784Y72393D01*
X187030Y72705D01*
X186221Y72812D01*
X185411Y72705D01*
X184657Y72393D01*
X184010Y71896D01*
X183513Y71248D01*
X183200Y70494D01*
X183094Y69685D01*
X183200Y68876D01*
X183513Y68122D01*
X184010Y67474D01*
X184657Y66977D01*
X185411Y66665D01*
X186221Y66558D01*
X187030Y66665D01*
X187784Y66977D01*
X188431Y67474D01*
X188928Y68122D01*
X189006Y68309D01*
X199472D01*
X199999Y68413D01*
X200446Y68712D01*
X201761Y70027D01*
X201761Y70027D01*
X202059Y70473D01*
X202164Y71000D01*
Y114624D01*
X209880D01*
X210076Y114493D01*
X210700Y114369D01*
X211324Y114493D01*
X211854Y114847D01*
X212207Y115376D01*
X212331Y116000D01*
X212207Y116624D01*
X211854Y117154D01*
X211324Y117507D01*
X210700Y117631D01*
X210076Y117507D01*
X209880Y117376D01*
X208914D01*
X208762Y117876D01*
X209154Y118138D01*
X209507Y118667D01*
X209631Y119291D01*
X209507Y119916D01*
X209154Y120445D01*
X208624Y120799D01*
X208000Y120923D01*
X207376Y120799D01*
X207180Y120668D01*
X206638D01*
X206486Y121168D01*
X206665Y121287D01*
X207019Y121817D01*
X207143Y122441D01*
X207019Y123065D01*
X206665Y123594D01*
X206136Y123948D01*
X205512Y124072D01*
D02*
G37*
G36*
X104909Y151387D02*
X100953D01*
Y145463D01*
X101555D01*
Y134667D01*
X101659Y134141D01*
X101958Y133694D01*
X110424Y125228D01*
Y122825D01*
X114773D01*
Y127175D01*
X112370D01*
X104307Y135238D01*
Y145463D01*
X104909D01*
Y151387D01*
D02*
G37*
G36*
X62389D02*
X58434D01*
Y145463D01*
X59035D01*
Y126333D01*
X59140Y125806D01*
X59438Y125360D01*
X59844Y124954D01*
X59637Y124454D01*
X59593D01*
Y122376D01*
X50321D01*
Y129125D01*
X50452Y129321D01*
X50576Y129945D01*
X50452Y130569D01*
X50098Y131098D01*
X49569Y131452D01*
X48945Y131576D01*
X48321Y131452D01*
X47791Y131098D01*
X47438Y130569D01*
X47313Y129945D01*
X47438Y129321D01*
X47568Y129125D01*
Y122376D01*
X38218D01*
X38141Y122563D01*
X37644Y123211D01*
X36996Y123708D01*
X36242Y124020D01*
X35433Y124127D01*
X34624Y124020D01*
X33870Y123708D01*
X33222Y123211D01*
X32725Y122563D01*
X32413Y121809D01*
X32306Y121000D01*
X32413Y120191D01*
X32725Y119437D01*
X33222Y118789D01*
X33870Y118292D01*
X34624Y117980D01*
X35433Y117873D01*
X36242Y117980D01*
X36996Y118292D01*
X37644Y118789D01*
X38141Y119437D01*
X38218Y119623D01*
X59593D01*
Y117546D01*
X65320D01*
Y124454D01*
X62895D01*
Y125226D01*
X62791Y125752D01*
X62492Y126199D01*
X62492Y126199D01*
X61788Y126903D01*
Y145463D01*
X62389D01*
Y151387D01*
D02*
G37*
G36*
X136000Y124072D02*
X135376Y123948D01*
X134846Y123594D01*
X134493Y123065D01*
X134447Y122835D01*
X133358Y121745D01*
X133080Y121860D01*
Y121860D01*
X128337D01*
Y116723D01*
X133080D01*
Y117961D01*
X133377Y118020D01*
X133824Y118318D01*
X136393Y120888D01*
X136624Y120934D01*
X137153Y121287D01*
X137507Y121817D01*
X137631Y122441D01*
X137507Y123065D01*
X137153Y123594D01*
X136624Y123948D01*
X136000Y124072D01*
D02*
G37*
G36*
X72607Y124654D02*
X70043D01*
Y121500D01*
X72607D01*
Y124654D01*
D02*
G37*
G36*
X69043D02*
X66479D01*
Y121500D01*
X69043D01*
Y124654D01*
D02*
G37*
G36*
X100185Y151387D02*
X96229D01*
Y145463D01*
X96830D01*
Y127696D01*
X96935Y127169D01*
X97233Y126722D01*
X100289Y123667D01*
Y120674D01*
X105426D01*
Y125417D01*
X102432D01*
X99583Y128266D01*
Y145463D01*
X100185D01*
Y151387D01*
D02*
G37*
G36*
X126781Y121860D02*
X122038D01*
Y120668D01*
X114773D01*
Y121269D01*
X110424D01*
Y116920D01*
X114773D01*
Y117915D01*
X122038D01*
Y116723D01*
X126781D01*
Y121860D01*
D02*
G37*
G36*
X72607Y120500D02*
X70043D01*
Y117346D01*
X72607D01*
Y120500D01*
D02*
G37*
G36*
X69043D02*
X66479D01*
Y117346D01*
X69043D01*
Y120500D01*
D02*
G37*
G36*
X82096Y133474D02*
X76959D01*
Y128731D01*
X78151D01*
Y118755D01*
X78020Y118559D01*
X77896Y117935D01*
X78020Y117311D01*
X78374Y116781D01*
X78903Y116428D01*
X79528Y116304D01*
X80152Y116428D01*
X80681Y116781D01*
X81035Y117311D01*
X81159Y117935D01*
X81035Y118559D01*
X80904Y118755D01*
Y128731D01*
X82096D01*
Y133474D01*
D02*
G37*
G36*
X150441Y122372D02*
X145303D01*
Y117628D01*
X146496D01*
Y115987D01*
X146600Y115460D01*
X146899Y115014D01*
X147235Y114677D01*
X147281Y114447D01*
X147635Y113917D01*
X148164Y113564D01*
X148788Y113440D01*
X149412Y113564D01*
X149942Y113917D01*
X150295Y114447D01*
X150419Y115071D01*
X150295Y115695D01*
X149942Y116224D01*
X149412Y116578D01*
X149249Y116611D01*
Y117628D01*
X150441D01*
Y122372D01*
D02*
G37*
G36*
X89183Y133474D02*
X84046D01*
Y128731D01*
X85238D01*
Y107906D01*
X85107Y107711D01*
X84983Y107087D01*
X85107Y106462D01*
X85461Y105933D01*
X85990Y105579D01*
X86614Y105455D01*
X87239Y105579D01*
X87768Y105933D01*
X88121Y106462D01*
X88245Y107087D01*
X88121Y107711D01*
X87991Y107906D01*
Y128731D01*
X89183D01*
Y133474D01*
D02*
G37*
G36*
X66929Y116702D02*
X66305Y116578D01*
X65776Y116224D01*
X65422Y115695D01*
X65298Y115071D01*
X65422Y114447D01*
X65553Y114251D01*
Y103879D01*
X65658Y103352D01*
X65956Y102905D01*
X66834Y102027D01*
X67281Y101728D01*
X67808Y101624D01*
X105180D01*
X105376Y101493D01*
X106000Y101369D01*
X106624Y101493D01*
X107153Y101847D01*
X107507Y102376D01*
X107631Y103000D01*
X107507Y103624D01*
X107153Y104154D01*
X106624Y104507D01*
X106000Y104631D01*
X105376Y104507D01*
X105180Y104376D01*
X68378D01*
X68306Y104449D01*
Y114251D01*
X68436Y114447D01*
X68560Y115071D01*
X68436Y115695D01*
X68083Y116224D01*
X67553Y116578D01*
X66929Y116702D01*
D02*
G37*
G36*
X130861Y102572D02*
X128593D01*
Y100500D01*
X130861D01*
Y102572D01*
D02*
G37*
G36*
X127593D02*
X125324D01*
Y100500D01*
X127593D01*
Y102572D01*
D02*
G37*
G36*
X130861Y99500D02*
X128593D01*
Y97428D01*
X130861D01*
Y99500D01*
D02*
G37*
G36*
X127593D02*
X125324D01*
Y97428D01*
X127593D01*
Y99500D01*
D02*
G37*
G36*
X53162Y97060D02*
X50894D01*
Y94988D01*
X53162D01*
Y97060D01*
D02*
G37*
G36*
X49894D02*
X47625D01*
Y94988D01*
X49894D01*
Y97060D01*
D02*
G37*
G36*
X178553Y95088D02*
X173219D01*
Y94585D01*
X162214D01*
Y95088D01*
X156880D01*
Y94585D01*
X150278D01*
X150083Y94716D01*
X149458Y94840D01*
X148834Y94716D01*
X148305Y94362D01*
X147951Y93833D01*
X147827Y93209D01*
X147951Y92584D01*
X148305Y92055D01*
X148834Y91702D01*
X149458Y91577D01*
X150083Y91702D01*
X150278Y91832D01*
X156880D01*
Y91329D01*
X162214D01*
Y91832D01*
X173219D01*
Y91329D01*
X178553D01*
Y95088D01*
D02*
G37*
G36*
X136627Y95682D02*
X135047D01*
Y93315D01*
X136627D01*
Y95682D01*
D02*
G37*
G36*
X134047D02*
X132468D01*
Y93315D01*
X134047D01*
Y95682D01*
D02*
G37*
G36*
X69498Y96860D02*
X64361D01*
Y92116D01*
X69498D01*
Y93112D01*
X73765D01*
X73960Y92981D01*
X74585Y92857D01*
X75209Y92981D01*
X75738Y93335D01*
X76092Y93864D01*
X76216Y94488D01*
X76092Y95113D01*
X75738Y95642D01*
X75209Y95995D01*
X74585Y96119D01*
X73960Y95995D01*
X73765Y95865D01*
X69498D01*
Y96860D01*
D02*
G37*
G36*
X49894Y93988D02*
X47625D01*
Y91917D01*
X49894D01*
Y93988D01*
D02*
G37*
G36*
X58268Y104631D02*
X57643Y104507D01*
X57114Y104154D01*
X56761Y103624D01*
X56636Y103000D01*
X56761Y102376D01*
X56891Y102180D01*
Y96860D01*
X55699D01*
Y93866D01*
X53601Y91768D01*
X53162Y92036D01*
X53162Y92367D01*
Y93988D01*
X50894D01*
Y91917D01*
X52678D01*
X53042Y91917D01*
X53311Y91478D01*
X52394Y90561D01*
X47825D01*
Y89565D01*
X15785D01*
X15708Y89752D01*
X15211Y90400D01*
X14563Y90897D01*
X13809Y91209D01*
X13000Y91316D01*
X12191Y91209D01*
X11437Y90897D01*
X10789Y90400D01*
X10292Y89752D01*
X9980Y88998D01*
X9873Y88189D01*
X9980Y87380D01*
X10292Y86626D01*
X10789Y85978D01*
X11437Y85481D01*
X12191Y85169D01*
X13000Y85062D01*
X13809Y85169D01*
X14563Y85481D01*
X15211Y85978D01*
X15708Y86626D01*
X15785Y86813D01*
X47825D01*
Y85817D01*
X52962D01*
Y87236D01*
X55237Y89511D01*
X55699Y89320D01*
Y85817D01*
X56891D01*
Y80244D01*
X56476Y80072D01*
X55734Y79502D01*
X55164Y78760D01*
X54806Y77896D01*
X54684Y76968D01*
Y73032D01*
X54806Y72104D01*
X55164Y71240D01*
X55734Y70498D01*
X56476Y69928D01*
X57340Y69570D01*
X58268Y69448D01*
X59195Y69570D01*
X60059Y69928D01*
X60802Y70498D01*
X61371Y71240D01*
X61729Y72104D01*
X61851Y73032D01*
Y76968D01*
X61729Y77896D01*
X61371Y78760D01*
X60802Y79502D01*
X60059Y80072D01*
X59644Y80244D01*
Y85817D01*
X60836D01*
Y90561D01*
X56940D01*
X56749Y91023D01*
X57843Y92116D01*
X60836D01*
Y96860D01*
X59644D01*
Y102180D01*
X59775Y102376D01*
X59899Y103000D01*
X59775Y103624D01*
X59421Y104154D01*
X58892Y104507D01*
X58268Y104631D01*
D02*
G37*
G36*
X136627Y92315D02*
X135047D01*
Y89948D01*
X136627D01*
Y92315D01*
D02*
G37*
G36*
X134047D02*
X132468D01*
Y89948D01*
X134047D01*
Y92315D01*
D02*
G37*
G36*
X178753Y86824D02*
X176386D01*
Y85244D01*
X178753D01*
Y86824D01*
D02*
G37*
G36*
X162414D02*
X160047D01*
Y85244D01*
X162414D01*
Y86824D01*
D02*
G37*
G36*
X175386D02*
X173019D01*
Y85244D01*
X175386D01*
Y86824D01*
D02*
G37*
G36*
X159047D02*
X156680D01*
Y85244D01*
X159047D01*
Y86824D01*
D02*
G37*
G36*
X115167Y101978D02*
X110030D01*
Y97235D01*
X111222D01*
Y91151D01*
X109636D01*
Y85227D01*
X115561D01*
Y91151D01*
X113975D01*
Y97235D01*
X115167D01*
Y101978D01*
D02*
G37*
G36*
X178753Y84244D02*
X176386D01*
Y82665D01*
X178753D01*
Y84244D01*
D02*
G37*
G36*
X175386D02*
X173019D01*
Y82665D01*
X175386D01*
Y84244D01*
D02*
G37*
G36*
X162414D02*
X160047D01*
Y82665D01*
X162414D01*
Y84244D01*
D02*
G37*
G36*
X159047D02*
X156680D01*
Y82665D01*
X159047D01*
Y84244D01*
D02*
G37*
G36*
X127962Y95482D02*
X124203D01*
Y90148D01*
X125062D01*
Y79143D01*
X124203D01*
Y78640D01*
X122399D01*
X120145Y80895D01*
X119698Y81193D01*
X119171Y81298D01*
X115561D01*
Y82884D01*
X109636D01*
Y76959D01*
X115561D01*
Y78545D01*
X118601D01*
X120855Y76291D01*
X120855Y76291D01*
X121302Y75992D01*
X121829Y75887D01*
X121829Y75887D01*
X124203D01*
Y73809D01*
X127962D01*
Y79143D01*
X127815D01*
Y90148D01*
X127962D01*
Y95482D01*
D02*
G37*
G36*
X136627Y79343D02*
X135047D01*
Y76976D01*
X136627D01*
Y79343D01*
D02*
G37*
G36*
X134047D02*
X132468D01*
Y76976D01*
X134047D01*
Y79343D01*
D02*
G37*
G36*
X50894Y80688D02*
Y75500D01*
X54179D01*
Y76968D01*
X54050Y77948D01*
X53672Y78861D01*
X53070Y79645D01*
X52286Y80247D01*
X51373Y80625D01*
X50894Y80688D01*
D02*
G37*
G36*
X49894D02*
X49414Y80625D01*
X48501Y80247D01*
X47717Y79645D01*
X47116Y78861D01*
X46738Y77948D01*
X46609Y76968D01*
Y75500D01*
X49894D01*
Y80688D01*
D02*
G37*
G36*
X136627Y75976D02*
X135047D01*
Y73610D01*
X136627D01*
Y75976D01*
D02*
G37*
G36*
X134047D02*
X132468D01*
Y73610D01*
X134047D01*
Y75976D01*
D02*
G37*
G36*
X49894Y74500D02*
X46609D01*
Y73032D01*
X46738Y72052D01*
X47116Y71139D01*
X47717Y70355D01*
X48501Y69753D01*
X49414Y69375D01*
X49894Y69312D01*
Y74500D01*
D02*
G37*
G36*
X54179D02*
X50894D01*
Y69312D01*
X51373Y69375D01*
X52286Y69753D01*
X53070Y70355D01*
X53672Y71139D01*
X54050Y72052D01*
X54179Y73032D01*
Y74500D01*
D02*
G37*
G36*
X97120Y99631D02*
X96495Y99507D01*
X95966Y99154D01*
X95613Y98624D01*
X95488Y98000D01*
X95613Y97376D01*
X95743Y97180D01*
Y76811D01*
X95848Y76285D01*
X96146Y75838D01*
X103273Y68712D01*
X103719Y68413D01*
X104246Y68309D01*
X104246Y68309D01*
X149971D01*
X150048Y68122D01*
X150545Y67474D01*
X151192Y66977D01*
X151947Y66665D01*
X152756Y66558D01*
X153565Y66665D01*
X154319Y66977D01*
X154967Y67474D01*
X155464Y68122D01*
X155776Y68876D01*
X155883Y69685D01*
X155776Y70494D01*
X155464Y71248D01*
X154967Y71896D01*
X154319Y72393D01*
X153565Y72705D01*
X152756Y72812D01*
X151947Y72705D01*
X151192Y72393D01*
X150545Y71896D01*
X150048Y71248D01*
X149971Y71061D01*
X104816D01*
X98496Y77381D01*
Y97180D01*
X98627Y97376D01*
X98751Y98000D01*
X98627Y98624D01*
X98273Y99154D01*
X97744Y99507D01*
X97120Y99631D01*
D02*
G37*
G36*
X223000Y64631D02*
X222376Y64507D01*
X221847Y64153D01*
X221493Y63624D01*
X221447Y63393D01*
X220847Y62794D01*
X189006D01*
X188928Y62981D01*
X188431Y63628D01*
X187784Y64125D01*
X187030Y64438D01*
X186221Y64544D01*
X185411Y64438D01*
X184657Y64125D01*
X184010Y63628D01*
X183513Y62981D01*
X183200Y62227D01*
X183094Y61417D01*
X183200Y60608D01*
X183513Y59854D01*
X184010Y59206D01*
X184657Y58710D01*
X185411Y58397D01*
X186221Y58291D01*
X187030Y58397D01*
X187784Y58710D01*
X188431Y59206D01*
X188928Y59854D01*
X189006Y60041D01*
X221417D01*
X221944Y60146D01*
X222391Y60444D01*
X223394Y61447D01*
X223624Y61493D01*
X224153Y61847D01*
X224507Y62376D01*
X224631Y63000D01*
X224507Y63624D01*
X224153Y64153D01*
X223624Y64507D01*
X223000Y64631D01*
D02*
G37*
G36*
X128457Y66224D02*
X127930Y66119D01*
X127484Y65821D01*
X115168Y53506D01*
X114870Y53059D01*
X114765Y52532D01*
Y51387D01*
X113770D01*
Y46250D01*
X114765D01*
Y43513D01*
X113770D01*
Y38376D01*
X118513D01*
Y43513D01*
X117518D01*
Y46250D01*
X118513D01*
Y51387D01*
X117518D01*
Y51962D01*
X129027Y63471D01*
X141739D01*
X143990Y61220D01*
X144036Y60989D01*
X144390Y60460D01*
X144919Y60106D01*
X145543Y59982D01*
X146168Y60106D01*
X146277Y60179D01*
X149913D01*
X150048Y59854D01*
X150545Y59206D01*
X151192Y58710D01*
X151947Y58397D01*
X152756Y58291D01*
X153565Y58397D01*
X154319Y58710D01*
X154967Y59206D01*
X155464Y59854D01*
X155776Y60608D01*
X155883Y61417D01*
X155776Y62227D01*
X155464Y62981D01*
X154967Y63628D01*
X154319Y64125D01*
X153565Y64438D01*
X152756Y64544D01*
X151947Y64438D01*
X151192Y64125D01*
X150545Y63628D01*
X150048Y62981D01*
X150028Y62932D01*
X146449D01*
X146168Y63121D01*
X145937Y63166D01*
X143282Y65821D01*
X142836Y66119D01*
X142309Y66224D01*
X128457D01*
X128457Y66224D01*
D02*
G37*
G36*
X186221Y55883D02*
X185411Y55776D01*
X184657Y55464D01*
X184010Y54967D01*
X183513Y54319D01*
X183435Y54132D01*
X181814D01*
X181553Y54394D01*
X181507Y54624D01*
X181154Y55154D01*
X180624Y55507D01*
X180000Y55631D01*
X179376Y55507D01*
X178847Y55154D01*
X178493Y54624D01*
X178369Y54000D01*
X178493Y53376D01*
X178847Y52846D01*
X179376Y52493D01*
X179606Y52447D01*
X180271Y51783D01*
X180717Y51484D01*
X181244Y51380D01*
X183435D01*
X183513Y51192D01*
X184010Y50545D01*
X184657Y50048D01*
X185411Y49736D01*
X186221Y49629D01*
X187030Y49736D01*
X187784Y50048D01*
X188431Y50545D01*
X188928Y51192D01*
X189241Y51947D01*
X189347Y52756D01*
X189241Y53565D01*
X188928Y54319D01*
X188431Y54967D01*
X187784Y55464D01*
X187030Y55776D01*
X186221Y55883D01*
D02*
G37*
G36*
X153256Y56019D02*
Y53256D01*
X156019D01*
X155971Y53617D01*
X155639Y54420D01*
X155110Y55110D01*
X154420Y55638D01*
X153617Y55971D01*
X153256Y56019D01*
D02*
G37*
G36*
X152256D02*
X151894Y55971D01*
X151092Y55638D01*
X150402Y55110D01*
X149873Y54420D01*
X149541Y53617D01*
X149493Y53256D01*
X152256D01*
Y56019D01*
D02*
G37*
G36*
X156019Y52256D02*
X153256D01*
Y49493D01*
X153617Y49541D01*
X154420Y49873D01*
X155110Y50402D01*
X155639Y51092D01*
X155971Y51894D01*
X156019Y52256D01*
D02*
G37*
G36*
X152256D02*
X149493D01*
X149541Y51894D01*
X149873Y51092D01*
X150402Y50402D01*
X151092Y49873D01*
X151894Y49541D01*
X152256Y49493D01*
Y52256D01*
D02*
G37*
G36*
X112414Y51587D02*
X110343D01*
Y49319D01*
X112414D01*
Y51587D01*
D02*
G37*
G36*
X109343D02*
X107271D01*
Y49319D01*
X109343D01*
Y51587D01*
D02*
G37*
G36*
X112414Y48319D02*
X110343D01*
Y46050D01*
X112414D01*
Y48319D01*
D02*
G37*
G36*
X109343D02*
X107271D01*
Y46050D01*
X109343D01*
Y48319D01*
D02*
G37*
G36*
X69498Y90561D02*
X64361D01*
Y85817D01*
X64765D01*
Y80244D01*
X64350Y80072D01*
X63608Y79502D01*
X63038Y78760D01*
X62680Y77896D01*
X62558Y76968D01*
Y73032D01*
X62680Y72104D01*
X63038Y71240D01*
X63608Y70498D01*
X64350Y69928D01*
X65214Y69570D01*
X66142Y69448D01*
X67069Y69570D01*
X67659Y69814D01*
X87485Y49988D01*
X87385Y49746D01*
X87263Y48819D01*
X87385Y47891D01*
X87743Y47027D01*
X88313Y46285D01*
X89055Y45716D01*
X89919Y45358D01*
X90847Y45235D01*
X94784D01*
X95711Y45358D01*
X96575Y45716D01*
X97317Y46285D01*
X97887Y47027D01*
X98245Y47891D01*
X98367Y48819D01*
X98245Y49746D01*
X97887Y50611D01*
X97317Y51353D01*
X96575Y51922D01*
X95711Y52280D01*
X94784Y52402D01*
X90847D01*
X89919Y52280D01*
X89330Y52036D01*
X69503Y71863D01*
X69603Y72104D01*
X69725Y73032D01*
Y76968D01*
X69603Y77896D01*
X69245Y78760D01*
X68676Y79502D01*
X67933Y80072D01*
X67518Y80244D01*
Y85817D01*
X69498D01*
Y90561D01*
D02*
G37*
G36*
X165000Y50450D02*
X164376Y50326D01*
X163847Y49972D01*
X163493Y49443D01*
X163369Y48819D01*
X163493Y48195D01*
X163524Y48148D01*
X160453Y45077D01*
X155541D01*
X155464Y45264D01*
X154967Y45912D01*
X154319Y46409D01*
X153565Y46721D01*
X152756Y46828D01*
X151947Y46721D01*
X151192Y46409D01*
X150545Y45912D01*
X150048Y45264D01*
X149736Y44510D01*
X149629Y43701D01*
X149736Y42891D01*
X150048Y42137D01*
X150545Y41490D01*
X151192Y40993D01*
X151947Y40681D01*
X152756Y40574D01*
X153565Y40681D01*
X154319Y40993D01*
X154967Y41490D01*
X155464Y42137D01*
X155541Y42324D01*
X161024D01*
X161550Y42429D01*
X161997Y42728D01*
X165973Y46704D01*
X166272Y47150D01*
X166376Y47677D01*
Y47999D01*
X166507Y48195D01*
X166631Y48819D01*
X166507Y49443D01*
X166154Y49972D01*
X165624Y50326D01*
X165000Y50450D01*
D02*
G37*
G36*
X186221Y46828D02*
X185411Y46721D01*
X184657Y46409D01*
X184010Y45912D01*
X183513Y45264D01*
X183200Y44510D01*
X183094Y43701D01*
X183200Y42891D01*
X183513Y42137D01*
X184010Y41490D01*
X184657Y40993D01*
X185411Y40681D01*
X186221Y40574D01*
X187030Y40681D01*
X187784Y40993D01*
X188431Y41490D01*
X188928Y42137D01*
X189006Y42324D01*
X195701D01*
X196228Y42429D01*
X196674Y42728D01*
X197394Y43447D01*
X197624Y43493D01*
X198153Y43846D01*
X198507Y44376D01*
X198631Y45000D01*
X198507Y45624D01*
X198153Y46154D01*
X197624Y46507D01*
X197000Y46631D01*
X196376Y46507D01*
X195846Y46154D01*
X195493Y45624D01*
X195447Y45393D01*
X195131Y45077D01*
X189006D01*
X188928Y45264D01*
X188431Y45912D01*
X187784Y46409D01*
X187030Y46721D01*
X186221Y46828D01*
D02*
G37*
G36*
X167717Y42576D02*
X167092Y42452D01*
X166876Y42308D01*
X166418Y42217D01*
X165972Y41918D01*
X160075Y36022D01*
X155541D01*
X155464Y36209D01*
X154967Y36857D01*
X154319Y37354D01*
X153565Y37666D01*
X152756Y37772D01*
X151947Y37666D01*
X151192Y37354D01*
X150545Y36857D01*
X150048Y36209D01*
X149736Y35455D01*
X149629Y34646D01*
X149736Y33836D01*
X150048Y33082D01*
X150545Y32435D01*
X151192Y31938D01*
X151947Y31626D01*
X152756Y31519D01*
X153565Y31626D01*
X154319Y31938D01*
X154967Y32435D01*
X155464Y33082D01*
X155541Y33269D01*
X160646D01*
X161172Y33374D01*
X161619Y33672D01*
X167336Y39389D01*
X167717Y39314D01*
X168341Y39438D01*
X168870Y39791D01*
X169224Y40321D01*
X169348Y40945D01*
X169224Y41569D01*
X168870Y42098D01*
X168341Y42452D01*
X167717Y42576D01*
D02*
G37*
G36*
X94784Y44528D02*
X90847D01*
X89919Y44406D01*
X89055Y44048D01*
X88313Y43479D01*
X87743Y42737D01*
X87385Y41872D01*
X87263Y40945D01*
X87385Y40017D01*
X87743Y39153D01*
X88313Y38411D01*
X89055Y37842D01*
X89919Y37484D01*
X90847Y37361D01*
X94784D01*
X95711Y37484D01*
X96575Y37842D01*
X97317Y38411D01*
X97887Y39153D01*
X98059Y39568D01*
X107471D01*
Y38376D01*
X112214D01*
Y43513D01*
X107471D01*
Y42321D01*
X98059D01*
X97887Y42737D01*
X97317Y43479D01*
X96575Y44048D01*
X95711Y44406D01*
X94784Y44528D01*
D02*
G37*
G36*
Y36856D02*
X93315D01*
Y33571D01*
X98503D01*
X98440Y34051D01*
X98062Y34963D01*
X97460Y35747D01*
X96676Y36349D01*
X95763Y36727D01*
X94784Y36856D01*
D02*
G37*
G36*
X92315D02*
X90847D01*
X89867Y36727D01*
X88954Y36349D01*
X88170Y35747D01*
X87568Y34963D01*
X87190Y34051D01*
X87127Y33571D01*
X92315D01*
Y36856D01*
D02*
G37*
G36*
X186221Y37772D02*
X185411Y37666D01*
X184657Y37354D01*
X184010Y36857D01*
X183513Y36209D01*
X183200Y35455D01*
X183094Y34646D01*
X183200Y33836D01*
X183513Y33082D01*
X184010Y32435D01*
X184657Y31938D01*
X185411Y31626D01*
X186221Y31519D01*
X187030Y31626D01*
X187784Y31938D01*
X188431Y32435D01*
X188928Y33082D01*
X189006Y33269D01*
X193180D01*
X193376Y33138D01*
X194000Y33014D01*
X194624Y33138D01*
X195153Y33492D01*
X195507Y34021D01*
X195631Y34646D01*
X195507Y35270D01*
X195153Y35799D01*
X194624Y36153D01*
X194000Y36277D01*
X193376Y36153D01*
X193180Y36022D01*
X189006D01*
X188928Y36209D01*
X188431Y36857D01*
X187784Y37354D01*
X187030Y37666D01*
X186221Y37772D01*
D02*
G37*
G36*
X98503Y32571D02*
X93315D01*
Y29286D01*
X94784D01*
X95763Y29415D01*
X96676Y29793D01*
X97460Y30394D01*
X98062Y31178D01*
X98440Y32091D01*
X98503Y32571D01*
D02*
G37*
G36*
X92315D02*
X87127D01*
X87190Y32091D01*
X87568Y31178D01*
X88170Y30394D01*
X88954Y29793D01*
X89867Y29415D01*
X90847Y29286D01*
X92315D01*
Y32571D01*
D02*
G37*
%LPD*%
G36*
X233980Y207938D02*
X231602D01*
Y204283D01*
Y200629D01*
X233982D01*
X233983Y200625D01*
X234082Y200476D01*
Y196702D01*
X233632Y196421D01*
X233582Y196418D01*
X233531Y196429D01*
Y193701D01*
X233032D01*
Y193201D01*
X231818D01*
Y192688D01*
X230328D01*
Y194760D01*
X224791D01*
Y192688D01*
X221000D01*
X220946Y209646D01*
X221299Y210000D01*
X233980D01*
Y207938D01*
D02*
G37*
%LPC*%
G36*
X230602D02*
X228039D01*
Y204784D01*
X230602D01*
Y207938D01*
D02*
G37*
G36*
Y203783D02*
X228039D01*
Y200629D01*
X230602D01*
Y203783D01*
D02*
G37*
G36*
X230328Y197831D02*
X228059D01*
Y195760D01*
X230328D01*
Y197831D01*
D02*
G37*
G36*
X227059D02*
X224791D01*
Y195760D01*
X227059D01*
Y197831D01*
D02*
G37*
G36*
X232531Y196429D02*
X232446Y196411D01*
X232116Y196191D01*
X231896Y195861D01*
X231818Y195472D01*
Y194201D01*
X232531D01*
Y196429D01*
D02*
G37*
%LPD*%
G36*
X286181Y205906D02*
X283925Y203650D01*
X270000D01*
Y211463D01*
X271650D01*
Y214231D01*
Y217000D01*
X270000D01*
Y223000D01*
X270000Y223000D01*
X286181D01*
Y205906D01*
D02*
G37*
%LPC*%
G36*
X274721Y217000D02*
X272650D01*
Y214732D01*
X274721D01*
Y217000D01*
D02*
G37*
G36*
Y213732D02*
X272650D01*
Y211463D01*
X274721D01*
Y213732D01*
D02*
G37*
%LPD*%
G36*
X267000Y217000D02*
X266350D01*
Y214231D01*
Y211463D01*
X267000D01*
Y201015D01*
X266925Y200940D01*
X264875D01*
Y202650D01*
X261417D01*
Y203150D01*
D01*
Y202650D01*
X257960D01*
Y200940D01*
X256255D01*
X255768Y200972D01*
X255768Y201440D01*
Y203043D01*
X253000D01*
X250232D01*
X250232Y200972D01*
X249745Y200940D01*
X249122D01*
X248635Y200972D01*
X248635Y201440D01*
Y203043D01*
X245866D01*
X243098D01*
X243098Y200972D01*
X242611Y200940D01*
X242000D01*
Y223000D01*
X267000D01*
Y217000D01*
D02*
G37*
%LPC*%
G36*
X252473Y218981D02*
X248728D01*
Y217500D01*
X252473D01*
Y218981D01*
D02*
G37*
G36*
X247728D02*
X243984D01*
Y217500D01*
X247728D01*
Y218981D01*
D02*
G37*
G36*
X252473Y216500D02*
X248728D01*
Y215019D01*
X252473D01*
Y216500D01*
D02*
G37*
G36*
X247728D02*
X243984D01*
Y215019D01*
X247728D01*
Y216500D01*
D02*
G37*
G36*
X265350Y217000D02*
X263279D01*
Y214732D01*
X265350D01*
Y217000D01*
D02*
G37*
G36*
Y213732D02*
X263279D01*
Y211463D01*
X265350D01*
Y213732D01*
D02*
G37*
G36*
X255768Y206115D02*
X253500D01*
Y204043D01*
X255768D01*
Y206115D01*
D02*
G37*
G36*
X248635D02*
X246366D01*
Y204043D01*
X248635D01*
Y206115D01*
D02*
G37*
G36*
X252500D02*
X250232D01*
Y204043D01*
X252500D01*
Y206115D01*
D02*
G37*
G36*
X245366D02*
X243098D01*
Y204043D01*
X245366D01*
Y206115D01*
D02*
G37*
G36*
X264875Y205820D02*
X261917D01*
Y203650D01*
X264875D01*
Y205820D01*
D02*
G37*
G36*
X260917D02*
X257960D01*
Y203650D01*
X260917D01*
Y205820D01*
D02*
G37*
%LPD*%
G36*
X140000Y147654D02*
X138957D01*
Y144000D01*
Y140346D01*
X140000D01*
Y132850D01*
X127774D01*
X127699Y133031D01*
X127699Y148987D01*
X130664D01*
Y150665D01*
X127502D01*
Y151665D01*
X130664D01*
Y152000D01*
X140000D01*
Y147654D01*
D02*
G37*
%LPC*%
G36*
X137957D02*
X135393D01*
Y144500D01*
X137957D01*
Y147654D01*
D02*
G37*
G36*
Y143500D02*
X135393D01*
Y140346D01*
X137957D01*
Y143500D01*
D02*
G37*
%LPD*%
G36*
X206755Y117876D02*
X206504Y117376D01*
X165000D01*
X164473Y117272D01*
X164027Y116973D01*
X163728Y116527D01*
X163624Y116000D01*
Y104570D01*
X163430Y104376D01*
X139009D01*
X138813Y104507D01*
X138481Y104573D01*
X138389Y104592D01*
Y105101D01*
X138481Y105120D01*
X138813Y105186D01*
X139009Y105316D01*
X160145D01*
X160672Y105421D01*
X161118Y105720D01*
X161997Y106598D01*
X162295Y107045D01*
X162400Y107572D01*
Y117915D01*
X206727D01*
X206755Y117876D01*
D02*
G37*
%LPC*%
G36*
X9757Y240662D02*
X7193D01*
Y237508D01*
X9757D01*
Y240662D01*
D02*
G37*
G36*
X6193D02*
X3629D01*
Y237508D01*
X6193D01*
Y240662D01*
D02*
G37*
G36*
X9757Y236508D02*
X7193D01*
Y233353D01*
X9757D01*
Y236508D01*
D02*
G37*
G36*
X6193D02*
X3629D01*
Y233353D01*
X6193D01*
Y236508D01*
D02*
G37*
G36*
X10052Y229147D02*
X7980D01*
Y226878D01*
X10052D01*
Y229147D01*
D02*
G37*
G36*
X6980D02*
X4909D01*
Y226878D01*
X6980D01*
Y229147D01*
D02*
G37*
G36*
X10052Y225878D02*
X7980D01*
Y223609D01*
X10052D01*
Y225878D01*
D02*
G37*
G36*
X6980D02*
X4909D01*
Y223609D01*
X6980D01*
Y225878D01*
D02*
G37*
G36*
X306405Y222244D02*
Y219481D01*
X309168D01*
X309121Y219843D01*
X308788Y220645D01*
X308259Y221335D01*
X307570Y221864D01*
X306767Y222196D01*
X306405Y222244D01*
D02*
G37*
G36*
X305405D02*
X305044Y222196D01*
X304241Y221864D01*
X303552Y221335D01*
X303023Y220645D01*
X302691Y219843D01*
X302643Y219481D01*
X305405D01*
Y222244D01*
D02*
G37*
G36*
X305906Y218981D02*
D01*
D01*
D01*
D02*
G37*
G36*
X309168Y218481D02*
X306405D01*
Y215718D01*
X306767Y215766D01*
X307570Y216098D01*
X308259Y216628D01*
X308788Y217317D01*
X309121Y218120D01*
X309168Y218481D01*
D02*
G37*
G36*
X305405D02*
X302643D01*
X302691Y218120D01*
X303023Y217317D01*
X303552Y216628D01*
X304241Y216098D01*
X305044Y215766D01*
X305405Y215718D01*
Y218481D01*
D02*
G37*
G36*
X299225Y215170D02*
X296957D01*
Y213098D01*
X299225D01*
Y215170D01*
D02*
G37*
G36*
X295957D02*
X293688D01*
Y213098D01*
X295957D01*
Y215170D01*
D02*
G37*
%LPD*%
D11*
X48683Y179491D02*
X56266D01*
X45325Y170900D02*
Y179491D01*
X54057Y170900D02*
Y179491D01*
X175886Y174803D02*
Y181980D01*
Y173263D02*
Y174803D01*
X48108Y178916D02*
X48683Y179491D01*
X56266D02*
X56840Y178916D01*
X175300Y168263D02*
Y172677D01*
X171653Y167677D02*
X172073Y168096D01*
X175134D01*
X175300Y168263D01*
X171653Y172677D02*
X175300D01*
X175886Y173263D01*
X171765Y182565D02*
X175300D01*
X175886Y181980D01*
X171653Y182677D02*
X171765Y182565D01*
X171542D02*
X171653Y182677D01*
D12*
X56500Y287992D02*
Y288406D01*
Y287578D02*
Y287992D01*
X35400Y283378D02*
X36300Y282478D01*
X55328Y289578D02*
X56500Y288406D01*
X49500Y289578D02*
X55328D01*
X49400Y289678D02*
X49500Y289578D01*
X37579Y282478D02*
X39451Y280606D01*
X36300Y282478D02*
X37579D01*
X39451Y278291D02*
Y280606D01*
X35400Y283378D02*
Y288966D01*
X36572Y290138D01*
X38840D01*
D16*
X112598Y232799D02*
X114799Y235000D01*
X126339D01*
X124114Y228740D02*
X127502D01*
X245866Y197244D02*
X253000D01*
X244669Y189370D02*
X245866Y190567D01*
Y197244D01*
X236968Y189370D02*
X244669D01*
X299981Y216123D02*
Y216582D01*
X251575Y203543D02*
X251969Y203150D01*
X228028Y183000D02*
X234531D01*
X235000Y183469D01*
Y189370D01*
X227559Y183469D02*
Y188961D01*
Y183469D02*
X228028Y183000D01*
X231210Y197155D02*
Y204176D01*
X231102Y204283D02*
X231210Y204176D01*
X234925Y201015D02*
Y207552D01*
X235000Y207627D02*
Y216219D01*
X234925Y201015D02*
X235000Y200940D01*
X234925Y207552D02*
X235000Y207627D01*
X235781Y217000D02*
X236024D01*
X235000Y216219D02*
X235781Y217000D01*
X126339Y235000D02*
X129134Y237795D01*
X112598Y229209D02*
Y232799D01*
X120472Y226772D02*
X121000Y227299D01*
X27165Y260236D02*
X27553Y260624D01*
Y264154D01*
X38170Y250920D02*
X38465D01*
X38557Y250828D01*
Y250532D02*
Y250828D01*
X39789Y248211D02*
Y249301D01*
X38557Y250532D02*
X39789Y249301D01*
Y248211D02*
X40000Y248000D01*
X37111D02*
X37900Y247211D01*
Y245163D02*
Y247211D01*
X36789Y248000D02*
X37111D01*
X37598Y252612D02*
X37678Y252691D01*
X36886Y252612D02*
X37598D01*
X36183Y251909D02*
X36886Y252612D01*
X36183Y248607D02*
Y251909D01*
Y248607D02*
X36789Y248000D01*
X37678Y252691D02*
X38170D01*
X52105Y256155D02*
X52513Y256563D01*
X66601D01*
X66929Y256235D01*
X49292D02*
X49372Y256155D01*
X52105D01*
X48800Y256235D02*
X49292D01*
X10374Y265220D02*
X11440Y264154D01*
X27553D01*
X30773Y253937D02*
X33071Y256235D01*
X27165Y253937D02*
X30773D01*
X34226Y253232D02*
X34364D01*
X35595Y254463D01*
X33071Y256235D02*
X38170D01*
X34269Y258006D02*
X38170D01*
X33941Y258335D02*
X34269Y258006D01*
X33540Y258335D02*
X33941D01*
X31638Y260236D02*
X33540Y258335D01*
X27165Y260236D02*
X31638D01*
X42116Y261270D02*
X42750Y261904D01*
X39921Y261270D02*
X42116D01*
X39335Y260684D02*
X39921Y261270D01*
X39335Y260648D02*
Y260684D01*
X38465Y259778D02*
X39335Y260648D01*
X47635D02*
X48505Y259778D01*
X47635Y260648D02*
Y260684D01*
X47049Y261270D02*
X47635Y260684D01*
X45019Y261270D02*
X47049D01*
X44550Y261739D02*
X45019Y261270D01*
X35595Y254463D02*
X38170D01*
X286646Y177000D02*
X294000D01*
X286516Y176870D02*
X286646Y177000D01*
X40612Y235827D02*
X53941D01*
X53383Y254463D02*
X57087Y250759D01*
X49400Y246942D02*
X49500Y247042D01*
Y250220D01*
X145046Y216142D02*
X150394Y221489D01*
X111396Y216142D02*
X145046D01*
X150394Y221489D02*
Y225590D01*
X112598Y229209D02*
X113067Y228740D01*
X116831D01*
X111417Y224803D02*
X116831D01*
X109624D02*
X111417D01*
X124114D02*
X128665D01*
X129134Y224335D01*
Y220866D02*
Y224335D01*
X107656Y226772D02*
X109624Y224803D01*
X8268Y253937D02*
X12598D01*
X48800Y250920D02*
X49500Y250220D01*
X261417Y203150D02*
X261417Y203150D01*
X294162Y171752D02*
X295540Y173130D01*
X301378D01*
X286516Y171752D02*
X294162D01*
X300000Y179429D02*
X301378Y178051D01*
X286516Y179429D02*
X300000D01*
X286516Y174311D02*
X292126D01*
X48800Y254463D02*
X53383D01*
X57087Y250000D02*
Y250759D01*
X53941Y235827D02*
X56500Y233268D01*
X12598Y253937D02*
X18898Y260236D01*
X20472D01*
X49076Y290002D02*
X49400Y289678D01*
X49076Y290002D02*
Y294847D01*
X38840Y290138D02*
Y294847D01*
X42171Y288294D02*
Y290878D01*
X41787Y291262D02*
X42171Y290878D01*
X41787Y291262D02*
Y294459D01*
X41399Y294847D02*
X41787Y294459D01*
X38170Y259778D02*
X38465D01*
X42750Y261904D02*
Y264188D01*
X42281Y264657D02*
X42750Y264188D01*
X41772Y264657D02*
X42281D01*
X40400Y266028D02*
X41772Y264657D01*
X48505Y259778D02*
X48800D01*
X44550Y261739D02*
Y264188D01*
X45019Y264657D01*
X45528D01*
X46900Y266028D01*
X42488Y275803D02*
Y282931D01*
X47128Y285771D02*
X47325D01*
X44591Y274168D02*
X45060Y273699D01*
X45528D01*
X46900Y272328D01*
X43971Y288928D02*
X47128Y285771D01*
X43971Y293661D02*
X44288Y293978D01*
X43971Y288928D02*
Y293661D01*
X44591Y274168D02*
Y276691D01*
X44288Y276995D02*
X44591Y276691D01*
X42488Y275803D02*
X42791Y275499D01*
Y274368D02*
Y275499D01*
X42323Y273899D02*
X42791Y274368D01*
X39648Y285771D02*
X42171Y288294D01*
X39451Y285771D02*
X39648D01*
X41772Y273899D02*
X42323D01*
X40400Y272528D02*
X41772Y273899D01*
X39648Y285771D02*
X42488Y282931D01*
X44288Y276995D02*
Y282931D01*
X47128Y285771D01*
D17*
X237039Y193772D02*
X239000D01*
X236968Y193701D02*
X237039Y193772D01*
X236968Y193701D02*
Y195276D01*
X231248Y189752D02*
X231630Y189370D01*
X231248Y189752D02*
Y190249D01*
X231472Y190472D01*
Y195260D01*
X231630Y189370D02*
X233032D01*
X227559Y195260D02*
X231472D01*
X231210Y197155D02*
X231318Y197047D01*
X233032Y193772D02*
Y196696D01*
X232680Y197047D02*
X233032Y196696D01*
X231318Y197047D02*
X232680D01*
X235000Y193772D02*
Y200940D01*
D18*
X306501Y24499D02*
Y23500D01*
Y24000D01*
X309000D01*
X309500Y23500D01*
Y23000D01*
X309000Y22500D01*
X309500Y25499D02*
Y26499D01*
Y25999D01*
X307501D01*
Y25499D01*
Y28498D02*
Y29498D01*
X308001Y29998D01*
X309500D01*
Y28498D01*
X309000Y27998D01*
X308501Y28498D01*
Y29998D01*
X306501Y30997D02*
X309500D01*
X308001D01*
X307501Y31497D01*
Y32497D01*
X308001Y32997D01*
X309500D01*
Y34496D02*
Y35496D01*
X309000Y35996D01*
X308001D01*
X307501Y35496D01*
Y34496D01*
X308001Y33996D01*
X309000D01*
X309500Y34496D01*
Y36995D02*
X307501D01*
Y38495D01*
X308001Y38995D01*
X309500D01*
X310500Y40994D02*
Y41494D01*
X310000Y41994D01*
X307501D01*
Y40494D01*
X308001Y39994D01*
X309000D01*
X309500Y40494D01*
Y41994D01*
X306501Y47992D02*
Y46992D01*
Y47492D01*
X309000D01*
X309500Y46992D01*
Y46492D01*
X309000Y45992D01*
X309500Y48991D02*
Y49991D01*
Y49491D01*
X307501D01*
Y48991D01*
X308001Y51491D02*
Y53490D01*
X310500Y54490D02*
Y54989D01*
X310000Y55489D01*
X307501D01*
X310500Y57489D02*
Y57989D01*
X310000Y58488D01*
X307501D01*
X309500Y60988D02*
X307001D01*
X308001D01*
Y60488D01*
Y61487D01*
Y60988D01*
X307001D01*
X306501Y61487D01*
X307501Y62987D02*
X309500D01*
X308501D01*
X308001Y63487D01*
X307501Y63987D01*
Y64486D01*
Y66486D02*
Y67485D01*
X308001Y67985D01*
X309500D01*
Y66486D01*
X309000Y65986D01*
X308501Y66486D01*
Y67985D01*
X309500Y68985D02*
X307501D01*
Y70485D01*
X308001Y70984D01*
X309500D01*
Y71984D02*
X306501D01*
X308501D02*
X307501Y73484D01*
X308501Y71984D02*
X309500Y73484D01*
X307001Y74983D02*
X306501Y75483D01*
Y76482D01*
X307001Y76982D01*
X309000D01*
X309500Y76482D01*
Y75483D01*
X309000Y74983D01*
X307001D01*
Y77982D02*
X306501Y78482D01*
Y79482D01*
X307001Y79981D01*
X307501D01*
X308001Y79482D01*
Y78982D01*
Y79482D01*
X308501Y79981D01*
X309000D01*
X309500Y79482D01*
Y78482D01*
X309000Y77982D01*
X309500Y82980D02*
Y80981D01*
X307501Y82980D01*
X307001D01*
X306501Y82481D01*
Y81481D01*
X307001Y80981D01*
X309500Y85480D02*
X306501D01*
X308001Y83980D01*
Y85979D01*
X296001Y23499D02*
X295501Y22999D01*
Y22000D01*
X296001Y21500D01*
X298001D01*
X298500Y22000D01*
Y22999D01*
X298001Y23499D01*
X295501Y24499D02*
X298500D01*
X297001D01*
X296501Y24999D01*
Y25999D01*
X297001Y26498D01*
X298500D01*
Y28998D02*
Y27998D01*
X298001Y27498D01*
X297001D01*
X296501Y27998D01*
Y28998D01*
X297001Y29497D01*
X297501D01*
Y27498D01*
X298500Y30497D02*
X296501D01*
Y31997D01*
X297001Y32496D01*
X298500D01*
X299500Y34496D02*
Y34996D01*
X299000Y35495D01*
X296501D01*
Y33996D01*
X297001Y33496D01*
X298001D01*
X298500Y33996D01*
Y35495D01*
X296501Y36495D02*
X298001D01*
X298500Y36995D01*
Y38495D01*
X299000D01*
X299500Y37995D01*
Y37495D01*
X298500Y38495D02*
X296501D01*
Y39994D02*
Y40994D01*
X297001Y41493D01*
X298500D01*
Y39994D01*
X298001Y39494D01*
X297501Y39994D01*
Y41493D01*
X298500Y42493D02*
X296501D01*
Y43993D01*
X297001Y44493D01*
X298500D01*
X299500Y46492D02*
Y46992D01*
X299000Y47492D01*
X296501D01*
Y45992D01*
X297001Y45492D01*
X298001D01*
X298500Y45992D01*
Y47492D01*
X295501Y51490D02*
X298500Y53490D01*
X295501D02*
X298500Y51490D01*
Y54489D02*
Y55489D01*
Y54989D01*
X296501D01*
Y54489D01*
X297001Y56989D02*
Y58988D01*
X295501Y59987D02*
X298500D01*
Y61487D01*
X298001Y61987D01*
X297501D01*
X297001Y61487D01*
Y59987D01*
Y61487D01*
X296501Y61987D01*
X296001D01*
X295501Y61487D01*
Y59987D01*
Y62987D02*
Y63986D01*
Y63486D01*
X298500D01*
Y62987D01*
Y63986D01*
Y66985D02*
X295501D01*
X297001Y65486D01*
Y67485D01*
X295501Y68485D02*
X298001D01*
X298500Y68985D01*
Y69984D01*
X298001Y70484D01*
X295501D01*
Y71484D02*
X298001D01*
X298500Y71984D01*
Y72983D01*
X298001Y73483D01*
X295501D01*
X298500Y74483D02*
X295501D01*
X298500Y76482D01*
X295501D01*
D23*
X116831Y228740D02*
D03*
Y224803D02*
D03*
X124114D02*
D03*
Y228740D02*
D03*
D25*
X175886Y93209D02*
D03*
X159547D02*
D03*
Y84744D02*
D03*
X175886D02*
D03*
X212697Y285925D02*
D03*
X229035D02*
D03*
Y294390D02*
D03*
X212697D02*
D03*
D26*
X186221Y137795D02*
D03*
Y131496D02*
D03*
X86614Y137402D02*
D03*
Y131102D02*
D03*
X211024Y156299D02*
D03*
Y150000D02*
D03*
X146850Y196653D02*
D03*
Y202953D02*
D03*
X296457Y212598D02*
D03*
Y206299D02*
D03*
X282283Y189370D02*
D03*
Y195669D02*
D03*
X147872Y120000D02*
D03*
Y126299D02*
D03*
X245866Y180020D02*
D03*
Y173721D02*
D03*
X50394Y94488D02*
D03*
Y88189D02*
D03*
X58268Y88189D02*
D03*
Y94488D02*
D03*
X66929Y94488D02*
D03*
Y88189D02*
D03*
X129134Y244094D02*
D03*
Y237795D02*
D03*
X123228Y273622D02*
D03*
Y267323D02*
D03*
X66929Y139150D02*
D03*
Y132850D02*
D03*
X79528Y137402D02*
D03*
Y131102D02*
D03*
X128093Y106299D02*
D03*
Y100000D02*
D03*
X112598Y99606D02*
D03*
Y105905D02*
D03*
X115748Y244094D02*
D03*
Y237795D02*
D03*
X146850Y188976D02*
D03*
Y182677D02*
D03*
X102857Y116746D02*
D03*
Y123045D02*
D03*
X173622Y137795D02*
D03*
Y131496D02*
D03*
X253000Y197244D02*
D03*
Y203543D02*
D03*
X245866D02*
D03*
Y197244D02*
D03*
X250197Y159055D02*
D03*
Y165354D02*
D03*
X212992Y276772D02*
D03*
Y270472D02*
D03*
X222441Y270866D02*
D03*
Y277165D02*
D03*
X231102Y277165D02*
D03*
Y270866D02*
D03*
X212992Y257874D02*
D03*
Y251575D02*
D03*
X288976Y147244D02*
D03*
Y140945D02*
D03*
X227559Y195260D02*
D03*
Y188961D02*
D03*
X139764Y301969D02*
D03*
Y295669D02*
D03*
X20472Y260236D02*
D03*
Y253937D02*
D03*
X57087Y250000D02*
D03*
Y243701D02*
D03*
X65136Y280228D02*
D03*
Y286528D02*
D03*
X12598Y253937D02*
D03*
Y260236D02*
D03*
X27165Y253937D02*
D03*
Y260236D02*
D03*
X139764Y279472D02*
D03*
Y285771D02*
D03*
X40400Y272328D02*
D03*
Y266028D02*
D03*
X46900D02*
D03*
Y272328D02*
D03*
D27*
X250197Y262047D02*
D03*
D28*
X286181Y233740D02*
D03*
D29*
Y286063D02*
D03*
D30*
X305906Y218981D02*
D03*
X186221Y34646D02*
D03*
Y43701D02*
D03*
Y52756D02*
D03*
X13000Y88189D02*
D03*
X186221Y69685D02*
D03*
X153150Y164218D02*
D03*
X187795Y160614D02*
D03*
X152756Y17323D02*
D03*
Y69685D02*
D03*
X183465Y225590D02*
D03*
X159055D02*
D03*
X152756Y25197D02*
D03*
Y34646D02*
D03*
Y43701D02*
D03*
X57087Y212205D02*
D03*
X175197Y225590D02*
D03*
X35433Y121000D02*
D03*
X152756Y52756D02*
D03*
Y61417D02*
D03*
X166535Y225590D02*
D03*
X150394D02*
D03*
X186221Y61417D02*
D03*
X35433Y218898D02*
D03*
D31*
X238189Y204283D02*
D03*
X231102D02*
D03*
X138457Y144000D02*
D03*
X145543D02*
D03*
X62457Y121000D02*
D03*
X69543D02*
D03*
X13780Y237008D02*
D03*
X6693D02*
D03*
D32*
X48108Y178916D02*
D03*
X56840D02*
D03*
X48108Y170325D02*
D03*
X56840D02*
D03*
X96360Y178105D02*
D03*
X107600D02*
D03*
X96360Y166593D02*
D03*
X107600D02*
D03*
D33*
X127502Y155890D02*
D03*
Y198409D02*
D03*
Y193685D02*
D03*
Y188961D02*
D03*
Y184236D02*
D03*
Y179512D02*
D03*
Y174787D02*
D03*
Y170063D02*
D03*
Y165339D02*
D03*
Y160614D02*
D03*
Y151165D02*
D03*
D34*
X32065Y201181D02*
D03*
X36789D02*
D03*
X41514D02*
D03*
X46238D02*
D03*
X50963D02*
D03*
X55687D02*
D03*
X60411D02*
D03*
X65136D02*
D03*
X69860D02*
D03*
X74585D02*
D03*
X79309D02*
D03*
X84034D02*
D03*
X88758D02*
D03*
X93482D02*
D03*
X98207D02*
D03*
X102931D02*
D03*
X107656D02*
D03*
X112380D02*
D03*
X117104D02*
D03*
X121829D02*
D03*
Y148425D02*
D03*
X117104D02*
D03*
X112380D02*
D03*
X107656D02*
D03*
X102931D02*
D03*
X98207D02*
D03*
X93482D02*
D03*
X88758D02*
D03*
X84034D02*
D03*
X79309D02*
D03*
X74585D02*
D03*
X69860D02*
D03*
X65136D02*
D03*
X60411D02*
D03*
X55687D02*
D03*
X50963D02*
D03*
X46238D02*
D03*
X41514D02*
D03*
X36789D02*
D03*
X32065D02*
D03*
D35*
X101575Y304331D02*
D03*
X95276D02*
D03*
X16142Y267323D02*
D03*
X22441D02*
D03*
X265850Y214231D02*
D03*
X272150D02*
D03*
X109843Y48819D02*
D03*
X116142D02*
D03*
X109843Y40945D02*
D03*
X116142D02*
D03*
X130709Y119291D02*
D03*
X124409D02*
D03*
X111417Y304309D02*
D03*
X117717D02*
D03*
X22441Y290551D02*
D03*
X16142D02*
D03*
X251378Y188961D02*
D03*
X245079D02*
D03*
X112598Y273699D02*
D03*
X106299D02*
D03*
X13780Y226378D02*
D03*
X7480D02*
D03*
X37659Y227559D02*
D03*
X43958D02*
D03*
D36*
X248228Y217000D02*
D03*
X236024D02*
D03*
D37*
X56500Y233268D02*
D03*
Y225000D02*
D03*
X112598Y79921D02*
D03*
Y88189D02*
D03*
D38*
X240354Y152756D02*
D03*
D39*
X227559Y148819D02*
D03*
Y156693D02*
D03*
D40*
X261417Y158268D02*
D03*
Y165354D02*
D03*
X272835Y140551D02*
D03*
Y147638D02*
D03*
D41*
X272441Y188976D02*
D03*
Y196063D02*
D03*
D42*
X261417Y203150D02*
D03*
Y196850D02*
D03*
D43*
X100394Y216142D02*
D03*
X94882D02*
D03*
X83071D02*
D03*
X88583D02*
D03*
D44*
X126083Y92815D02*
D03*
Y76476D02*
D03*
X134547D02*
D03*
Y92815D02*
D03*
D45*
X38840Y294847D02*
D03*
X41399D02*
D03*
X43958D02*
D03*
X46517D02*
D03*
X49076D02*
D03*
D46*
X31754Y296126D02*
D03*
X56163D02*
D03*
D47*
X27817Y305378D02*
D03*
X60100D02*
D03*
D48*
X40612D02*
D03*
X47305D02*
D03*
D49*
X270965Y179429D02*
D03*
Y176870D02*
D03*
Y174311D02*
D03*
Y171752D02*
D03*
X286516D02*
D03*
Y174311D02*
D03*
Y176870D02*
D03*
Y179429D02*
D03*
D50*
X233032Y189370D02*
D03*
X235000D02*
D03*
X236968D02*
D03*
D51*
Y193701D02*
D03*
X235000D02*
D03*
X233032D02*
D03*
D52*
X43485Y255349D02*
D03*
D53*
X48800Y259778D02*
D03*
Y258006D02*
D03*
Y256235D02*
D03*
Y254463D02*
D03*
Y252691D02*
D03*
Y250920D02*
D03*
X38170D02*
D03*
Y252691D02*
D03*
Y254463D02*
D03*
Y256235D02*
D03*
Y258006D02*
D03*
Y259778D02*
D03*
D54*
X13386Y282283D02*
D03*
X23622D02*
D03*
D55*
X157110Y187205D02*
D03*
Y197047D02*
D03*
D56*
X112598Y119095D02*
D03*
Y125000D02*
D03*
D57*
X39451Y278291D02*
D03*
X47325Y285771D02*
D03*
X39451D02*
D03*
D58*
X47325Y279078D02*
D03*
D59*
X186655Y263069D02*
D03*
X163152D02*
D03*
D60*
X149372Y281474D02*
D03*
Y266908D02*
D03*
D61*
X150061Y305195D02*
D03*
D62*
X159746Y305687D02*
D03*
X164077D02*
D03*
X168407D02*
D03*
X172738D02*
D03*
X177069D02*
D03*
X181400D02*
D03*
X185730D02*
D03*
D63*
X189864D02*
D03*
D64*
X194628Y304309D02*
D03*
D67*
X120472Y226772D02*
D03*
D105*
X301378Y178051D02*
D03*
D106*
Y173130D02*
D03*
D107*
X300984Y259055D02*
D03*
D116*
X8000Y104000D02*
D03*
X258500Y304500D02*
D03*
X186221Y12000D02*
D03*
D117*
X238000Y200476D02*
Y204095D01*
X238189Y204283D01*
X95276Y262402D02*
Y270443D01*
X105831Y274168D02*
X106299Y273699D01*
X95276Y270443D02*
X99000Y274168D01*
X105831D01*
X121829Y143877D02*
Y148425D01*
X108000Y143877D02*
Y148081D01*
X107656Y148425D02*
X108000Y148081D01*
X32065Y143935D02*
X32123Y143877D01*
X32065Y143935D02*
Y148425D01*
Y201181D02*
Y205689D01*
X107600Y161400D02*
X108000Y161000D01*
X107600Y161400D02*
Y166593D01*
X57086Y165354D02*
Y170079D01*
X56840Y170325D02*
X57086Y170079D01*
X177000Y198731D02*
X186267D01*
X140775Y96775D02*
X142000Y98000D01*
X136815Y92815D02*
X140775Y96775D01*
X55825Y287578D02*
X56500D01*
X6693Y227165D02*
Y237008D01*
X272150Y196354D02*
Y200679D01*
Y196354D02*
X272441Y196063D01*
X286181Y230383D02*
X288302D01*
X286181Y293890D02*
X286306Y294015D01*
X286181Y286063D02*
Y293890D01*
X299981Y216582D02*
X302332Y214231D01*
X288302Y230383D02*
X291695Y226990D01*
Y224869D02*
Y226990D01*
Y224869D02*
X299981Y216582D01*
X286181Y230383D02*
Y233740D01*
X186854Y225590D02*
X187000Y225736D01*
X183465Y225590D02*
X186854D01*
X266063Y213444D02*
X266850Y214231D01*
X261417D02*
X265850D01*
X251969Y203150D02*
X261417D01*
X245866Y203543D02*
X251575D01*
X245866Y182866D02*
X246000Y183000D01*
X245866Y180020D02*
Y182866D01*
X212992Y248000D02*
Y251575D01*
X146850Y196653D02*
X147244Y197047D01*
X157110D01*
X146835Y188961D02*
X146850Y188976D01*
X155339D02*
X157110Y187205D01*
X146850Y188976D02*
X155339D01*
X161024Y159146D02*
Y162677D01*
X185449Y158268D02*
X187795Y160614D01*
X161902Y158268D02*
X185449D01*
X161024Y159146D02*
X161902Y158268D01*
X127502Y155890D02*
X192520D01*
X153150Y164218D02*
Y170063D01*
X111396Y237795D02*
X115748D01*
X282283Y189370D02*
X287000D01*
X60100Y305378D02*
X65136D01*
X63000Y296126D02*
X66601D01*
X56360D02*
X63000D01*
X65136Y300850D02*
Y305378D01*
X63000Y296126D02*
Y298715D01*
X65136Y300850D01*
X11440Y246063D02*
X13311D01*
X3635D02*
X11440D01*
Y249213D01*
X13311Y246063D02*
X34931D01*
X22441Y290551D02*
X28564D01*
X19594Y286312D02*
X23622Y282283D01*
X22441Y290354D02*
Y290551D01*
X20520Y288433D02*
X22441Y290354D01*
X20449Y288433D02*
X20520D01*
X19594Y287578D02*
X20449Y288433D01*
X19594Y286312D02*
Y287578D01*
X129134Y220866D02*
X140460D01*
X141339Y221745D01*
Y233465D01*
X55328Y296961D02*
X56163Y296126D01*
X56360D02*
X57528Y297294D01*
X125553Y77264D02*
X126083Y76734D01*
X121829Y77264D02*
X125553D01*
X126083Y76476D02*
X126439Y76832D01*
X126083Y92815D02*
X126439Y92459D01*
Y76832D02*
Y92459D01*
X126083Y76476D02*
Y76734D01*
X119171Y79921D02*
X121829Y77264D01*
X112598Y79921D02*
X119171D01*
X36878Y305913D02*
X40077D01*
X29139Y306700D02*
X36091D01*
X36878Y305913D01*
X40077D02*
X40612Y305378D01*
X27817D02*
X29139Y306700D01*
X296457Y212598D02*
X299981Y216123D01*
X60411Y126333D02*
Y148425D01*
X61519Y121938D02*
X62457Y121000D01*
X61519Y121938D02*
Y125226D01*
X60411Y126333D02*
X61519Y125226D01*
X48945Y121000D02*
X62457D01*
X5906Y261115D02*
Y265348D01*
Y261115D02*
X6784Y260236D01*
X5906Y265348D02*
X7881Y267323D01*
X6784Y260236D02*
X12598D01*
X8355Y267798D02*
X15667D01*
X16142Y267323D01*
X7881D02*
X8355Y267798D01*
X123151Y273699D02*
Y278291D01*
X208571Y290720D02*
X209000D01*
X204291Y295000D02*
X208571Y290720D01*
X186000Y295000D02*
X204291D01*
X96360Y166593D02*
Y178105D01*
Y166593D02*
X107600D01*
X96360Y178105D02*
X107600D01*
X140157Y204283D02*
X141488Y202953D01*
X146850D01*
X140775Y182677D02*
X146850D01*
X42488Y246063D02*
X43485Y247060D01*
Y255349D01*
X57087Y243701D02*
X63000D01*
X236055Y265913D02*
X239921Y262047D01*
X231102Y270866D02*
X236055Y265913D01*
X220866Y294390D02*
X229035D01*
X212697D02*
X220866D01*
X167717Y84744D02*
X175886D01*
X159547D02*
X167717D01*
X117572Y290441D02*
X118012Y290880D01*
X117133Y290002D02*
X117572Y290441D01*
X186267Y198731D02*
X195628Y189370D01*
X200787D01*
X119000Y180000D02*
X124652D01*
X125140Y179512D01*
X127502D01*
X182393Y166535D02*
X182450Y166593D01*
X182393Y164846D02*
Y166535D01*
X180224Y162677D02*
X182393Y164846D01*
X186221Y34646D02*
X194000D01*
X155905Y122441D02*
X180000D01*
X155905Y111879D02*
Y122441D01*
X173622Y131496D02*
X177422Y127696D01*
X178528D01*
X195701Y43701D02*
X197000Y45000D01*
X186221Y43701D02*
X195701D01*
X149372Y281474D02*
X164533D01*
X170000Y276007D01*
X180869Y288739D02*
X207087D01*
X180000Y289608D02*
X180869Y288739D01*
X177000Y291616D02*
X177081D01*
X179089Y289608D01*
X180000D01*
X194628Y297450D02*
Y304309D01*
X172000Y281000D02*
X210000D01*
X168407Y284593D02*
X172000Y281000D01*
X168407Y284593D02*
Y292616D01*
X175197Y225590D02*
X175300Y225694D01*
Y233268D01*
X172738Y293926D02*
Y305687D01*
X177000Y291616D02*
Y305618D01*
X185730Y305687D02*
X186000Y305417D01*
Y295000D02*
Y305417D01*
X177000Y305618D02*
X177069Y305687D01*
X98353Y254463D02*
X130709D01*
X52024Y243701D02*
X52105D01*
X31638Y242000D02*
X50323D01*
X52024Y243701D01*
X34931Y230287D02*
Y232799D01*
X94882Y220866D02*
X129134D01*
X98207Y201181D02*
X98353Y201327D01*
Y207000D01*
X88583Y226378D02*
X107181D01*
X107574Y226772D01*
X107656D01*
X142519Y177677D02*
X161024D01*
X143095Y174787D02*
X156852D01*
X158897Y172742D01*
X158978D01*
X195276Y173721D02*
X207087D01*
X180000Y122441D02*
X205512D01*
X147872Y115987D02*
X148788Y115071D01*
X147872Y115987D02*
Y120000D01*
X110517Y112205D02*
X111722Y111000D01*
X155027D02*
X155905Y111879D01*
X111722Y111000D02*
X155027D01*
X149458Y93209D02*
X159547D01*
X161024Y119291D02*
X208000D01*
X181244Y52756D02*
X186221D01*
X180000Y54000D02*
X181244Y52756D01*
X134547Y29000D02*
X138350Y25197D01*
X152756D01*
X160646Y34646D02*
X166945Y40945D01*
X167717D01*
X152756Y34646D02*
X160646D01*
X165000Y47677D02*
Y48819D01*
X161024Y43701D02*
X165000Y47677D01*
X152756Y43701D02*
X161024D01*
X135764Y184236D02*
X136000Y184000D01*
X127502Y184236D02*
X135764D01*
X144000Y47000D02*
X144122D01*
X152336Y52336D02*
X152756Y52756D01*
X149458Y52336D02*
X152336D01*
X144122Y47000D02*
X149458Y52336D01*
X138189Y13000D02*
X142512Y17323D01*
X152756D01*
X58268Y94488D02*
Y103000D01*
X97120Y76811D02*
X104246Y69685D01*
X97120Y76811D02*
Y98000D01*
X104246Y69685D02*
X152756D01*
X152617Y61556D02*
X152756Y61417D01*
X145601Y61556D02*
X152617D01*
X145543Y61613D02*
X145601Y61556D01*
X142309Y64848D02*
X145543Y61613D01*
X69860Y160931D02*
Y201181D01*
X128457Y64848D02*
X142309D01*
X116142Y48819D02*
Y52532D01*
Y40945D02*
Y48819D01*
Y52532D02*
X128457Y64848D01*
X79309Y164218D02*
X79528Y164000D01*
X79309Y164218D02*
Y201181D01*
X74585D02*
Y210630D01*
X90600Y48819D02*
X92815D01*
X66142Y73278D02*
X90600Y48819D01*
X66142Y73278D02*
Y75000D01*
X106000Y52661D02*
Y58000D01*
Y52661D02*
X109843Y48819D01*
X92815Y40945D02*
X109843D01*
X106000Y25197D02*
Y27000D01*
X92815Y33071D02*
X99929D01*
X106000Y27000D01*
X84034Y185553D02*
X84912Y186432D01*
X84034Y157000D02*
Y185553D01*
X84912Y186432D02*
X97120D01*
X102931Y192243D01*
Y201181D01*
X117104Y208049D02*
X118012Y208957D01*
X117104Y201181D02*
Y208049D01*
X121829Y201181D02*
Y207557D01*
X123228Y208957D01*
X35433Y121000D02*
X48945D01*
Y129945D01*
X66929Y94488D02*
X74585D01*
X74585Y94488D01*
X140775Y96775D02*
X142000Y95550D01*
X140000Y100000D02*
X142000Y98000D01*
X127502Y198409D02*
X128093Y199000D01*
X140645D01*
X115713Y211713D02*
X168407D01*
X108283Y201809D02*
Y204283D01*
X107656Y201181D02*
X108283Y201809D01*
Y204283D02*
X115713Y211713D01*
X50394Y75000D02*
Y76606D01*
X44000Y83000D02*
X50394Y76606D01*
X51968Y88189D02*
X58268Y94488D01*
X50394Y88189D02*
X51968D01*
X66142Y87402D02*
X66929Y88189D01*
X66142Y75000D02*
Y87402D01*
X58268Y75000D02*
Y88189D01*
X41000Y102000D02*
X42882D01*
X50394Y94488D01*
X13000Y88189D02*
X50394D01*
X159547Y93209D02*
X175886D01*
X161024Y107572D02*
Y119291D01*
X145543Y144000D02*
Y148837D01*
X147872Y151165D01*
X148000Y126427D02*
Y134000D01*
X147872Y126299D02*
X148000Y126427D01*
X168407Y137795D02*
X173622D01*
X186221D01*
Y131496D02*
X189348D01*
X192520Y134667D01*
X102931D02*
Y148425D01*
Y134667D02*
X112598Y125000D01*
Y119095D02*
X112795Y119291D01*
X124409D01*
X132850D02*
X136000Y122441D01*
X130709Y119291D02*
X132850D01*
X134547Y92815D02*
X136815D01*
X128093Y100000D02*
X140000D01*
X127699Y105905D02*
X128093Y106299D01*
X112598Y105905D02*
X127699D01*
X134547Y76476D02*
Y92815D01*
X112598Y88189D02*
Y99606D01*
X102857Y115647D02*
X112598Y105905D01*
X102857Y115647D02*
Y116746D01*
X98207Y127696D02*
Y148425D01*
Y127696D02*
X102857Y123045D01*
X127502Y151165D02*
X137578D01*
X138457Y150287D01*
Y144000D02*
Y150287D01*
X132000Y136000D02*
Y137543D01*
X138457Y144000D01*
X171653Y162677D02*
X180224D01*
X74585Y148425D02*
Y155890D01*
X69543Y121000D02*
X74585Y126041D01*
Y148425D01*
X79528Y117935D02*
Y131102D01*
X106209Y214280D02*
Y214361D01*
X104528Y216043D02*
X106209Y214361D01*
X104528Y216043D02*
Y216142D01*
X174550Y226237D02*
X175197Y225590D01*
X200787Y116000D02*
X210700D01*
X165000D02*
X200787D01*
Y71000D02*
Y116000D01*
X186221Y69685D02*
X199472D01*
X200787Y71000D01*
X207087Y248000D02*
Y251969D01*
X212992Y257874D01*
X239921Y262047D02*
X250197D01*
X231102Y277165D02*
X231102Y277165D01*
X222441Y277165D02*
X231102D01*
X217913Y270866D02*
X222441D01*
X213386D02*
X217913D01*
X212992Y260992D02*
X217913Y265913D01*
Y270866D01*
X212992Y257874D02*
Y260992D01*
Y270472D02*
X213386Y270866D01*
X212697Y277067D02*
X212992Y276772D01*
X212697Y277067D02*
Y285925D01*
X229035D01*
X227559Y140945D02*
Y148819D01*
X186221Y61417D02*
X221417D01*
X223000Y63000D01*
X213386Y156693D02*
X219783D01*
X212992Y156299D02*
X213386Y156693D01*
X211024Y156299D02*
X212992D01*
X166535Y225590D02*
Y231535D01*
X170000Y235000D01*
X141754Y266908D02*
X149372D01*
X141339Y267323D02*
X141754Y266908D01*
X145805Y305195D02*
X150061D01*
X143000Y308000D02*
X145805Y305195D01*
X181400Y297428D02*
Y305687D01*
X181362Y297390D02*
X181400Y297428D01*
X219783Y156693D02*
X227559D01*
X165000Y104000D02*
Y116000D01*
X138189Y103000D02*
X164000D01*
X165000Y104000D01*
X66929Y103879D02*
Y115071D01*
Y103879D02*
X67808Y103000D01*
X106000D01*
X66929Y128000D02*
Y132850D01*
X65136Y140943D02*
X66929Y139150D01*
X65136Y140943D02*
Y148425D01*
X138189Y106693D02*
X160145D01*
X161024Y107572D01*
X86614Y107087D02*
Y131102D01*
X84034Y139982D02*
Y148425D01*
Y139982D02*
X86614Y137402D01*
X79309Y137620D02*
X79528Y137402D01*
X79309Y137620D02*
Y148425D01*
X168407Y292616D02*
Y305687D01*
X139764Y279472D02*
X147369D01*
X149372Y281474D01*
X98207Y254316D02*
X98353Y254463D01*
X130709Y301969D02*
X139764D01*
Y290720D02*
Y295669D01*
Y285771D02*
Y290720D01*
X135987D02*
X139764D01*
X163198Y297638D02*
X164077Y298517D01*
Y305687D01*
X144095Y297638D02*
X163198D01*
X139764Y301969D02*
X144095Y297638D01*
X100394Y216142D02*
X104528D01*
X77953D02*
X83071D01*
X115748Y244094D02*
Y249213D01*
X129134Y244094D02*
X129134Y244094D01*
X115748Y244094D02*
X129134D01*
X111396Y304331D02*
Y309055D01*
Y304331D02*
X111417Y304309D01*
X141339Y233465D02*
X156299D01*
X159055Y230709D01*
Y225590D02*
Y230709D01*
X94882Y216142D02*
Y220866D01*
X88583Y216142D02*
Y226378D01*
X103150Y262402D02*
X122350D01*
X123228Y263280D01*
Y267323D01*
X102756Y290002D02*
X117133D01*
X118012Y290880D02*
Y304014D01*
X117717Y304309D02*
X118012Y304014D01*
X87008Y290002D02*
X87402Y289608D01*
Y262402D02*
X87598Y262205D01*
X123151Y273699D02*
X123228Y273622D01*
X112598Y273699D02*
X123151D01*
X101575Y304331D02*
X111396D01*
X94882Y290002D02*
X95276Y290395D01*
Y304331D01*
X79134Y262795D02*
X79527Y262402D01*
X79418Y262292D02*
X79527Y262402D01*
X93482Y201181D02*
Y214742D01*
X94882Y216142D01*
X88583D02*
X88758Y215967D01*
Y201181D02*
Y215967D01*
X16142Y290551D02*
Y294654D01*
X17614Y296126D02*
X31754D01*
X16142Y294654D02*
X17614Y296126D01*
X56163D02*
X56360D01*
X56500Y287578D02*
X57550Y286528D01*
X65136D01*
X47325Y279078D02*
X55825Y287578D01*
X47305Y305378D02*
X60100D01*
X40612D02*
X47305D01*
X27817Y304787D02*
Y305378D01*
Y304787D02*
X31754Y300850D01*
Y296126D02*
Y300850D01*
X2756Y246942D02*
X3635Y246063D01*
X2756Y246942D02*
Y266849D01*
X4724Y268818D02*
Y273622D01*
X2756Y266849D02*
X4724Y268818D01*
X6693Y227165D02*
X7480Y226378D01*
X127502Y170063D02*
X153150D01*
X154724D01*
X162793Y182677D02*
X166654D01*
X161024Y180908D02*
X162793Y182677D01*
X161024Y177677D02*
Y180908D01*
Y162677D02*
X166654D01*
X157110Y167677D02*
X166654D01*
X154724Y170063D02*
X157110Y167677D01*
X127502Y174787D02*
X143095D01*
X143110Y165354D02*
X143126Y165339D01*
X127518Y165354D02*
X143110D01*
X127502Y165339D02*
X127518Y165354D01*
X127502Y188961D02*
X146835D01*
X127502Y193685D02*
X140157D01*
X143126Y196653D02*
X146850D01*
X140157Y193685D02*
X143126Y196653D01*
X207087Y173721D02*
X245866D01*
X251575Y179429D01*
X255906D02*
X255906Y179429D01*
X251575Y179429D02*
X255906D01*
X255906Y179429D02*
X270965D01*
X261417Y165354D02*
Y173524D01*
X262205Y174311D02*
X270965D01*
X261417Y173524D02*
X262205Y174311D01*
X288976Y147244D02*
X298819D01*
X298819Y147244D01*
X288583Y140551D02*
X288976Y140945D01*
X272835Y140551D02*
X288583D01*
X270965Y149508D02*
Y171752D01*
Y149508D02*
X272835Y147638D01*
X69860Y201181D02*
Y216142D01*
X250197Y165354D02*
X254331D01*
X261417Y158268D01*
X240354Y152756D02*
X246654Y159055D01*
X250197D01*
X226378Y150000D02*
X227559Y148819D01*
X211024Y150000D02*
X226378D01*
X200787D02*
X211024D01*
X227559Y195260D02*
X227559Y195260D01*
X282283Y195669D02*
X292913Y206299D01*
X296457D01*
X272441Y188976D02*
X272835Y189370D01*
X282283D01*
X65136Y201181D02*
Y212205D01*
X57087D02*
X65136D01*
X56106Y224606D02*
X56500Y225000D01*
X50963Y224606D02*
X56106D01*
X48010Y227559D02*
X50963Y224606D01*
X43958Y227559D02*
X48010D01*
X11440Y249213D02*
X19594D01*
X20472Y250091D02*
Y253937D01*
X19594Y249213D02*
X20472Y250091D01*
X34931Y230287D02*
X37659Y227559D01*
X27873Y218898D02*
X35433D01*
X22164Y224606D02*
X27873Y218898D01*
X15551Y224606D02*
X22164D01*
X13780Y226378D02*
X15551Y224606D01*
X13311Y237476D02*
X13780Y237008D01*
X13311Y237476D02*
Y246063D01*
X13780Y226378D02*
Y237008D01*
X4724Y273622D02*
X13386Y282283D01*
X28564Y290551D02*
X30709Y288406D01*
Y279647D02*
X32065Y278291D01*
X30709Y279647D02*
Y288406D01*
X32065Y278291D02*
X39451D01*
X25584Y267710D02*
X29528Y271654D01*
X39726D02*
X40400Y272328D01*
X29528Y271654D02*
X39726D01*
X22441Y267323D02*
X22828Y267710D01*
X25584D01*
X46900Y272328D02*
X57235D01*
X65136Y280228D01*
D118*
X166654Y182677D02*
D03*
X171653D02*
D03*
Y172677D02*
D03*
Y177677D02*
D03*
X166654Y172677D02*
D03*
Y177677D02*
D03*
Y167677D02*
D03*
Y162677D02*
D03*
X171653Y167677D02*
D03*
D119*
Y162677D02*
D03*
D120*
X92815Y33071D02*
D03*
Y40945D02*
D03*
Y48819D02*
D03*
D121*
X66142Y75000D02*
D03*
X58268D02*
D03*
X50394D02*
D03*
D122*
X95276Y262402D02*
D03*
X87402D02*
D03*
X103150D02*
D03*
X94882Y290002D02*
D03*
X87008D02*
D03*
X102756D02*
D03*
D123*
X79527Y262402D02*
D03*
X79134Y290002D02*
D03*
D124*
X9843Y9843D02*
D03*
X305118D02*
D03*
X9252Y303346D02*
D03*
X304280Y303000D02*
D03*
D125*
X238000Y200476D02*
D03*
X239000Y193772D02*
D03*
X132000Y139982D02*
D03*
X121829Y143877D02*
D03*
X108000D02*
D03*
X32123D02*
D03*
X32065Y205689D02*
D03*
X127502Y228740D02*
D03*
X108000Y161000D02*
D03*
X57086Y165354D02*
D03*
X231210Y199127D02*
D03*
X226378Y204784D02*
D03*
Y199521D02*
D03*
X227059Y208699D02*
D03*
X264875Y232000D02*
D03*
X268787Y232000D02*
D03*
X264875Y235000D02*
D03*
X268787D02*
D03*
Y238000D02*
D03*
X264875D02*
D03*
X272150Y200679D02*
D03*
X282283Y205512D02*
D03*
X278091D02*
D03*
X274721D02*
D03*
X271650D02*
D03*
Y208699D02*
D03*
X274721D02*
D03*
X282283D02*
D03*
X278091D02*
D03*
X282283Y212598D02*
D03*
X278091D02*
D03*
Y216219D02*
D03*
X282283Y216123D02*
D03*
Y219291D02*
D03*
X278091D02*
D03*
X274721D02*
D03*
X286306Y294015D02*
D03*
X187000Y225736D02*
D03*
X246000Y183000D02*
D03*
X212992Y248000D02*
D03*
X111396Y237795D02*
D03*
X287000Y189370D02*
D03*
X37900Y245163D02*
D03*
X40000Y248000D02*
D03*
X34931Y246000D02*
D03*
X10374Y265220D02*
D03*
X123151Y278291D02*
D03*
X209000Y290720D02*
D03*
X34226Y253232D02*
D03*
X33071Y256235D02*
D03*
X140775Y182677D02*
D03*
X140157Y204283D02*
D03*
X42488Y246063D02*
D03*
X63000Y243701D02*
D03*
X294000Y177000D02*
D03*
X119000Y180000D02*
D03*
X182450Y166593D02*
D03*
X194000Y34646D02*
D03*
X180000Y122441D02*
D03*
X178528Y127696D02*
D03*
X197000Y45000D02*
D03*
X170000Y235000D02*
D03*
Y276007D02*
D03*
X194628Y297450D02*
D03*
X207087Y288739D02*
D03*
X175300Y233268D02*
D03*
X210000Y281000D02*
D03*
X172738Y293926D02*
D03*
X177000Y291616D02*
D03*
X186000Y295000D02*
D03*
X130709Y254463D02*
D03*
Y301969D02*
D03*
X52105Y243701D02*
D03*
X49500Y239000D02*
D03*
X40612Y235827D02*
D03*
X31638Y242000D02*
D03*
X49400Y246942D02*
D03*
X34931Y232799D02*
D03*
X111396Y216142D02*
D03*
X111417Y224803D02*
D03*
X98353Y207000D02*
D03*
X98207Y223928D02*
D03*
X98353Y254463D02*
D03*
X153150Y170063D02*
D03*
X142519Y177677D02*
D03*
X158978Y172742D02*
D03*
X200787Y150000D02*
D03*
X195276Y173721D02*
D03*
X180000Y54000D02*
D03*
X148788Y115071D02*
D03*
X149458Y93209D02*
D03*
X134547Y29000D02*
D03*
X167717Y84744D02*
D03*
Y40945D02*
D03*
X165000Y48819D02*
D03*
X136000Y184000D02*
D03*
X144122Y47000D02*
D03*
X138189Y13000D02*
D03*
X58268Y103000D02*
D03*
X97120Y98000D02*
D03*
X69860Y160931D02*
D03*
X145543Y61613D02*
D03*
X79528Y164000D02*
D03*
X74585Y210630D02*
D03*
X106000Y58000D02*
D03*
Y25197D02*
D03*
X84034Y157000D02*
D03*
X118012Y208957D02*
D03*
X123228D02*
D03*
X48945Y129945D02*
D03*
X74585Y94488D02*
D03*
X142000Y95550D02*
D03*
X140645Y199000D02*
D03*
X177000Y198731D02*
D03*
X44000Y83000D02*
D03*
X41000Y102000D02*
D03*
X147872Y151165D02*
D03*
X192520Y134667D02*
D03*
X148000Y134000D02*
D03*
X168407Y137795D02*
D03*
X136000Y122441D02*
D03*
X132000Y136000D02*
D03*
X168407Y211713D02*
D03*
X74585Y155890D02*
D03*
X79528Y117935D02*
D03*
X175886Y174803D02*
D03*
X106209Y214280D02*
D03*
X207087Y248000D02*
D03*
X236055Y265913D02*
D03*
X226772Y277165D02*
D03*
X220866Y294390D02*
D03*
X227559Y140945D02*
D03*
X223000Y63000D02*
D03*
X141339Y267323D02*
D03*
X143000Y308000D02*
D03*
X181362Y297390D02*
D03*
X219783Y156693D02*
D03*
X210700Y116000D02*
D03*
X138189Y103000D02*
D03*
X106000D02*
D03*
X66929Y115071D02*
D03*
Y128000D02*
D03*
X208000Y119291D02*
D03*
X138189Y106693D02*
D03*
X86614Y107087D02*
D03*
X110517Y112205D02*
D03*
X205512Y122441D02*
D03*
X168407Y292616D02*
D03*
X135987Y290720D02*
D03*
X77953Y216142D02*
D03*
X115748Y249213D02*
D03*
X111396Y309055D02*
D03*
X129134Y220866D02*
D03*
X107656Y226772D02*
D03*
X94882Y220866D02*
D03*
X88583Y226378D02*
D03*
X122350Y262402D02*
D03*
X117572Y290441D02*
D03*
X56500Y287992D02*
D03*
X66601Y296126D02*
D03*
X7881Y267323D02*
D03*
X8268Y253937D02*
D03*
X6693Y231102D02*
D03*
X161024Y177677D02*
D03*
Y162677D02*
D03*
X143095Y174787D02*
D03*
X143110Y165354D02*
D03*
X192520Y155890D02*
D03*
X200787Y189370D02*
D03*
X298819Y147244D02*
D03*
X66929Y256235D02*
D03*
X65136Y212205D02*
D03*
X69860Y216142D02*
D03*
X292126Y174311D02*
D03*
X53383Y254463D02*
D03*
X41517Y258892D02*
D03*
Y255349D02*
D03*
Y251805D02*
D03*
X45454D02*
D03*
Y255349D02*
D03*
Y258892D02*
D03*
M02*
