G04*
G04 #@! TF.GenerationSoftware,Altium Limited,Altium Designer,21.1.1 (26)*
G04*
G04 Layer_Color=8388736*
%FSLAX25Y25*%
%MOIN*%
G70*
G04*
G04 #@! TF.SameCoordinates,BA33E46C-C8C0-473A-8748-ADA81A7699FD*
G04*
G04*
G04 #@! TF.FilePolarity,Negative*
G04*
G01*
G75*
%ADD27R,0.15984X0.12992*%
%ADD28R,0.25000X0.15000*%
%ADD29R,0.25000X0.12992*%
%ADD30C,0.05000*%
%ADD49R,0.05315X0.01772*%
%ADD65R,0.02559X0.01378*%
%ADD66R,0.02559X0.01378*%
%ADD67R,0.02756X0.06299*%
%ADD68R,0.04534X0.02959*%
%ADD69R,0.04337X0.03943*%
%ADD70R,0.04928X0.06109*%
%ADD71R,0.08874X0.08874*%
%ADD72R,0.08274X0.08274*%
%ADD73R,0.05124X0.03156*%
%ADD74R,0.03156X0.05124*%
%ADD75R,0.03943X0.04337*%
%ADD76R,0.07290X0.02762*%
%ADD77R,0.05124X0.05124*%
%ADD78C,0.10000*%
%ADD79R,0.06306X0.06699*%
%ADD80R,0.05124X0.05124*%
%ADD81R,0.04731X0.04731*%
%ADD82R,0.06109X0.04928*%
%ADD83R,0.05715X0.04140*%
%ADD84R,0.03156X0.03943*%
%ADD85R,0.02959X0.04534*%
%ADD86R,0.01975X0.05715*%
%ADD87R,0.08668X0.08274*%
%ADD88R,0.06699X0.07880*%
%ADD89R,0.05124X0.07880*%
G04:AMPARAMS|DCode=90|XSize=27.62mil|YSize=13.84mil|CornerRadius=4.46mil|HoleSize=0mil|Usage=FLASHONLY|Rotation=90.000|XOffset=0mil|YOffset=0mil|HoleType=Round|Shape=RoundedRectangle|*
%AMROUNDEDRECTD90*
21,1,0.02762,0.00492,0,0,90.0*
21,1,0.01870,0.01384,0,0,90.0*
1,1,0.00892,0.00246,0.00935*
1,1,0.00892,0.00246,-0.00935*
1,1,0.00892,-0.00246,-0.00935*
1,1,0.00892,-0.00246,0.00935*
%
%ADD90ROUNDEDRECTD90*%
G04:AMPARAMS|DCode=91|XSize=43.37mil|YSize=11.87mil|CornerRadius=3.97mil|HoleSize=0mil|Usage=FLASHONLY|Rotation=90.000|XOffset=0mil|YOffset=0mil|HoleType=Round|Shape=RoundedRectangle|*
%AMROUNDEDRECTD91*
21,1,0.04337,0.00394,0,0,90.0*
21,1,0.03543,0.01187,0,0,90.0*
1,1,0.00794,0.00197,0.01772*
1,1,0.00794,0.00197,-0.01772*
1,1,0.00794,-0.00197,-0.01772*
1,1,0.00794,-0.00197,0.01772*
%
%ADD91ROUNDEDRECTD91*%
%ADD92R,0.07102X0.10646*%
%ADD93R,0.01975X0.01384*%
%ADD94R,0.05912X0.04337*%
%ADD95R,0.07880X0.04731*%
%ADD96R,0.03550X0.03550*%
%ADD97R,0.03156X0.02762*%
%ADD98R,0.03156X0.04337*%
%ADD99R,0.07880X0.05715*%
%ADD100R,0.05124X0.04337*%
%ADD101R,0.06502X0.05715*%
%ADD102R,0.03747X0.04731*%
%ADD103R,0.03353X0.04731*%
%ADD104R,0.05006X0.07487*%
%ADD105R,0.03937X0.03937*%
%ADD106C,0.03937*%
%ADD107C,0.07008*%
%ADD108C,0.04360*%
%ADD109R,0.04360X0.04360*%
%ADD110O,0.10243X0.06306*%
%ADD111O,0.06306X0.10243*%
%ADD112C,0.06306*%
%ADD113R,0.06306X0.06306*%
%ADD114C,0.14573*%
%ADD115C,0.02400*%
D27*
X250197Y262047D02*
D03*
D28*
X286181Y233740D02*
D03*
D29*
Y286063D02*
D03*
D30*
X305906Y218981D02*
D03*
X186221Y34646D02*
D03*
Y43701D02*
D03*
Y52756D02*
D03*
X13000Y88189D02*
D03*
X186221Y69685D02*
D03*
X153150Y164218D02*
D03*
X187795Y160614D02*
D03*
X152756Y17323D02*
D03*
Y69685D02*
D03*
X183465Y225590D02*
D03*
X159055D02*
D03*
X152756Y25197D02*
D03*
Y34646D02*
D03*
Y43701D02*
D03*
X57087Y212205D02*
D03*
X175197Y225590D02*
D03*
X35433Y121000D02*
D03*
X152756Y52756D02*
D03*
Y61417D02*
D03*
X166535Y225590D02*
D03*
X150394D02*
D03*
X186221Y61417D02*
D03*
X35433Y218898D02*
D03*
D49*
X270965Y179429D02*
D03*
Y176870D02*
D03*
Y174311D02*
D03*
Y171752D02*
D03*
X286516D02*
D03*
Y174311D02*
D03*
Y176870D02*
D03*
Y179429D02*
D03*
D65*
X124311Y228740D02*
D03*
D66*
X124311Y224803D02*
D03*
X116634D02*
D03*
Y228740D02*
D03*
D67*
X120472Y226772D02*
D03*
D68*
X175886Y93209D02*
D03*
X159547D02*
D03*
Y84744D02*
D03*
X175886D02*
D03*
X212697Y285925D02*
D03*
X229035D02*
D03*
Y294390D02*
D03*
X212697D02*
D03*
D69*
X186221Y137795D02*
D03*
Y131496D02*
D03*
X86614Y137402D02*
D03*
Y131102D02*
D03*
X211024Y156299D02*
D03*
Y150000D02*
D03*
X146850Y196653D02*
D03*
Y202953D02*
D03*
X296457Y212598D02*
D03*
Y206299D02*
D03*
X282283Y189370D02*
D03*
Y195669D02*
D03*
X147872Y120000D02*
D03*
Y126299D02*
D03*
X245866Y180020D02*
D03*
Y173721D02*
D03*
X50394Y94488D02*
D03*
Y88189D02*
D03*
X58268Y88189D02*
D03*
Y94488D02*
D03*
X66929Y94488D02*
D03*
Y88189D02*
D03*
X129134Y244094D02*
D03*
Y237795D02*
D03*
X123228Y273622D02*
D03*
Y267323D02*
D03*
X66929Y139150D02*
D03*
Y132850D02*
D03*
X79528Y137402D02*
D03*
Y131102D02*
D03*
X128093Y106299D02*
D03*
Y100000D02*
D03*
X112598Y99606D02*
D03*
Y105905D02*
D03*
X115748Y244094D02*
D03*
Y237795D02*
D03*
X146850Y188976D02*
D03*
Y182677D02*
D03*
X102857Y116746D02*
D03*
Y123045D02*
D03*
X173622Y137795D02*
D03*
Y131496D02*
D03*
X253000Y197244D02*
D03*
Y203543D02*
D03*
X245866D02*
D03*
Y197244D02*
D03*
X250197Y159055D02*
D03*
Y165354D02*
D03*
X212992Y276772D02*
D03*
Y270472D02*
D03*
X222441Y270866D02*
D03*
Y277165D02*
D03*
X231102Y277165D02*
D03*
Y270866D02*
D03*
X212992Y257874D02*
D03*
Y251575D02*
D03*
X288976Y147244D02*
D03*
Y140945D02*
D03*
X227559Y195260D02*
D03*
Y188961D02*
D03*
X139764Y301969D02*
D03*
Y295669D02*
D03*
X20472Y260236D02*
D03*
Y253937D02*
D03*
X57087Y250000D02*
D03*
Y243701D02*
D03*
X65136Y280228D02*
D03*
Y286528D02*
D03*
X12598Y253937D02*
D03*
Y260236D02*
D03*
X27165Y253937D02*
D03*
Y260236D02*
D03*
X139764Y279472D02*
D03*
Y285771D02*
D03*
X40400Y272328D02*
D03*
Y266028D02*
D03*
X46900D02*
D03*
Y272328D02*
D03*
D70*
X238189Y204283D02*
D03*
X231102D02*
D03*
X138457Y144000D02*
D03*
X145543D02*
D03*
X62457Y121000D02*
D03*
X69543D02*
D03*
X13780Y237008D02*
D03*
X6693D02*
D03*
D71*
X48108Y178916D02*
D03*
X56840D02*
D03*
X48108Y170325D02*
D03*
X56840D02*
D03*
D72*
X96360Y178105D02*
D03*
X107600D02*
D03*
X96360Y166593D02*
D03*
X107600D02*
D03*
D73*
X127502Y155890D02*
D03*
Y198409D02*
D03*
Y193685D02*
D03*
Y188961D02*
D03*
Y184236D02*
D03*
Y179512D02*
D03*
Y174787D02*
D03*
Y170063D02*
D03*
Y165339D02*
D03*
Y160614D02*
D03*
Y151165D02*
D03*
D74*
X32065Y201181D02*
D03*
X36789D02*
D03*
X41514D02*
D03*
X46238D02*
D03*
X50963D02*
D03*
X55687D02*
D03*
X60411D02*
D03*
X65136D02*
D03*
X69860D02*
D03*
X74585D02*
D03*
X79309D02*
D03*
X84034D02*
D03*
X88758D02*
D03*
X93482D02*
D03*
X98207D02*
D03*
X102931D02*
D03*
X107656D02*
D03*
X112380D02*
D03*
X117104D02*
D03*
X121829D02*
D03*
Y148425D02*
D03*
X117104D02*
D03*
X112380D02*
D03*
X107656D02*
D03*
X102931D02*
D03*
X98207D02*
D03*
X93482D02*
D03*
X88758D02*
D03*
X84034D02*
D03*
X79309D02*
D03*
X74585D02*
D03*
X69860D02*
D03*
X65136D02*
D03*
X60411D02*
D03*
X55687D02*
D03*
X50963D02*
D03*
X46238D02*
D03*
X41514D02*
D03*
X36789D02*
D03*
X32065D02*
D03*
D75*
X101575Y304331D02*
D03*
X95276D02*
D03*
X16142Y267323D02*
D03*
X22441D02*
D03*
X265850Y214231D02*
D03*
X272150D02*
D03*
X109843Y48819D02*
D03*
X116142D02*
D03*
X109843Y40945D02*
D03*
X116142D02*
D03*
X130709Y119291D02*
D03*
X124409D02*
D03*
X111417Y304309D02*
D03*
X117717D02*
D03*
X22441Y290551D02*
D03*
X16142D02*
D03*
X251378Y188961D02*
D03*
X245079D02*
D03*
X112598Y273699D02*
D03*
X106299D02*
D03*
X13780Y226378D02*
D03*
X7480D02*
D03*
X37659Y227559D02*
D03*
X43958D02*
D03*
D76*
X248228Y217000D02*
D03*
X236024D02*
D03*
D77*
X56500Y233268D02*
D03*
Y225000D02*
D03*
X112598Y79921D02*
D03*
Y88189D02*
D03*
D78*
X8000Y104000D02*
D03*
X258500Y304500D02*
D03*
X186221Y12000D02*
D03*
D79*
X240354Y152756D02*
D03*
D80*
X227559Y148819D02*
D03*
Y156693D02*
D03*
D81*
X261417Y158268D02*
D03*
Y165354D02*
D03*
X272835Y140551D02*
D03*
Y147638D02*
D03*
D82*
X272441Y188976D02*
D03*
Y196063D02*
D03*
D83*
X261417Y203150D02*
D03*
Y196850D02*
D03*
D84*
X100394Y216142D02*
D03*
X94882D02*
D03*
X83071D02*
D03*
X88583D02*
D03*
D85*
X126083Y92815D02*
D03*
Y76476D02*
D03*
X134547D02*
D03*
Y92815D02*
D03*
D86*
X38840Y294847D02*
D03*
X41399D02*
D03*
X43958D02*
D03*
X46517D02*
D03*
X49076D02*
D03*
D87*
X31754Y296126D02*
D03*
X56163D02*
D03*
D88*
X27817Y305378D02*
D03*
X60100D02*
D03*
D89*
X40612D02*
D03*
X47305D02*
D03*
D90*
X233032Y189370D02*
D03*
X235000D02*
D03*
X236968D02*
D03*
D91*
Y193701D02*
D03*
X235000D02*
D03*
X233032D02*
D03*
D92*
X43485Y255349D02*
D03*
D93*
X48800Y259778D02*
D03*
Y258006D02*
D03*
Y256235D02*
D03*
Y254463D02*
D03*
Y252691D02*
D03*
Y250920D02*
D03*
X38170D02*
D03*
Y252691D02*
D03*
Y254463D02*
D03*
Y256235D02*
D03*
Y258006D02*
D03*
Y259778D02*
D03*
D94*
X13386Y282283D02*
D03*
X23622D02*
D03*
D95*
X157110Y187205D02*
D03*
Y197047D02*
D03*
D96*
X112598Y119095D02*
D03*
Y125000D02*
D03*
D97*
X39451Y278291D02*
D03*
X47325Y285771D02*
D03*
X39451D02*
D03*
D98*
X47325Y279078D02*
D03*
D99*
X186655Y263069D02*
D03*
X163152D02*
D03*
D100*
X149372Y281474D02*
D03*
Y266908D02*
D03*
D101*
X150061Y305195D02*
D03*
D102*
X159746Y305687D02*
D03*
X164077D02*
D03*
X168407D02*
D03*
X172738D02*
D03*
X177069D02*
D03*
X181400D02*
D03*
X185730D02*
D03*
D103*
X189864D02*
D03*
D104*
X194628Y304309D02*
D03*
D105*
X301378Y178051D02*
D03*
D106*
Y173130D02*
D03*
D107*
X300984Y259055D02*
D03*
D108*
X166654Y182677D02*
D03*
X171653D02*
D03*
Y172677D02*
D03*
Y177677D02*
D03*
X166654Y172677D02*
D03*
Y177677D02*
D03*
Y167677D02*
D03*
Y162677D02*
D03*
X171653Y167677D02*
D03*
D109*
Y162677D02*
D03*
D110*
X92815Y33071D02*
D03*
Y40945D02*
D03*
Y48819D02*
D03*
D111*
X66142Y75000D02*
D03*
X58268D02*
D03*
X50394D02*
D03*
D112*
X95276Y262402D02*
D03*
X87402D02*
D03*
X103150D02*
D03*
X94882Y290002D02*
D03*
X87008D02*
D03*
X102756D02*
D03*
D113*
X79527Y262402D02*
D03*
X79134Y290002D02*
D03*
D114*
X9843Y9843D02*
D03*
X305118D02*
D03*
X9252Y303346D02*
D03*
X304280Y303000D02*
D03*
D115*
X238000Y200476D02*
D03*
X239000Y193772D02*
D03*
X132000Y139982D02*
D03*
X121829Y143877D02*
D03*
X108000D02*
D03*
X32123D02*
D03*
X32065Y205689D02*
D03*
X127502Y228740D02*
D03*
X108000Y161000D02*
D03*
X57086Y165354D02*
D03*
X231210Y199127D02*
D03*
X226378Y204784D02*
D03*
Y199521D02*
D03*
X227059Y208699D02*
D03*
X264875Y232000D02*
D03*
X268787Y232000D02*
D03*
X264875Y235000D02*
D03*
X268787D02*
D03*
Y238000D02*
D03*
X264875D02*
D03*
X272150Y200679D02*
D03*
X282283Y205512D02*
D03*
X278091D02*
D03*
X274721D02*
D03*
X271650D02*
D03*
Y208699D02*
D03*
X274721D02*
D03*
X282283D02*
D03*
X278091D02*
D03*
X282283Y212598D02*
D03*
X278091D02*
D03*
Y216219D02*
D03*
X282283Y216123D02*
D03*
Y219291D02*
D03*
X278091D02*
D03*
X274721D02*
D03*
X286306Y294015D02*
D03*
X187000Y225736D02*
D03*
X246000Y183000D02*
D03*
X212992Y248000D02*
D03*
X111396Y237795D02*
D03*
X287000Y189370D02*
D03*
X37900Y245163D02*
D03*
X40000Y248000D02*
D03*
X34931Y246000D02*
D03*
X10374Y265220D02*
D03*
X123151Y278291D02*
D03*
X209000Y290720D02*
D03*
X34226Y253232D02*
D03*
X33071Y256235D02*
D03*
X140775Y182677D02*
D03*
X140157Y204283D02*
D03*
X42488Y246063D02*
D03*
X63000Y243701D02*
D03*
X294000Y177000D02*
D03*
X119000Y180000D02*
D03*
X182450Y166593D02*
D03*
X194000Y34646D02*
D03*
X180000Y122441D02*
D03*
X178528Y127696D02*
D03*
X197000Y45000D02*
D03*
X170000Y235000D02*
D03*
Y276007D02*
D03*
X194628Y297450D02*
D03*
X207087Y288739D02*
D03*
X175300Y233268D02*
D03*
X210000Y281000D02*
D03*
X172738Y293926D02*
D03*
X177000Y291616D02*
D03*
X186000Y295000D02*
D03*
X130709Y254463D02*
D03*
Y301969D02*
D03*
X52105Y243701D02*
D03*
X49500Y239000D02*
D03*
X40612Y235827D02*
D03*
X31638Y242000D02*
D03*
X49400Y246942D02*
D03*
X34931Y232799D02*
D03*
X111396Y216142D02*
D03*
X111417Y224803D02*
D03*
X98353Y207000D02*
D03*
X98207Y223928D02*
D03*
X98353Y254463D02*
D03*
X153150Y170063D02*
D03*
X142519Y177677D02*
D03*
X158978Y172742D02*
D03*
X200787Y150000D02*
D03*
X195276Y173721D02*
D03*
X180000Y54000D02*
D03*
X148788Y115071D02*
D03*
X149458Y93209D02*
D03*
X134547Y29000D02*
D03*
X167717Y84744D02*
D03*
Y40945D02*
D03*
X165000Y48819D02*
D03*
X136000Y184000D02*
D03*
X144122Y47000D02*
D03*
X138189Y13000D02*
D03*
X58268Y103000D02*
D03*
X97120Y98000D02*
D03*
X69860Y160931D02*
D03*
X145543Y61613D02*
D03*
X79528Y164000D02*
D03*
X74585Y210630D02*
D03*
X106000Y58000D02*
D03*
Y25197D02*
D03*
X84034Y157000D02*
D03*
X118012Y208957D02*
D03*
X123228D02*
D03*
X48945Y129945D02*
D03*
X74585Y94488D02*
D03*
X142000Y95550D02*
D03*
X140645Y199000D02*
D03*
X177000Y198731D02*
D03*
X44000Y83000D02*
D03*
X41000Y102000D02*
D03*
X147872Y151165D02*
D03*
X192520Y134667D02*
D03*
X148000Y134000D02*
D03*
X168407Y137795D02*
D03*
X136000Y122441D02*
D03*
X132000Y136000D02*
D03*
X168407Y211713D02*
D03*
X74585Y155890D02*
D03*
X79528Y117935D02*
D03*
X175886Y174803D02*
D03*
X106209Y214280D02*
D03*
X207087Y248000D02*
D03*
X236055Y265913D02*
D03*
X226772Y277165D02*
D03*
X220866Y294390D02*
D03*
X227559Y140945D02*
D03*
X223000Y63000D02*
D03*
X141339Y267323D02*
D03*
X143000Y308000D02*
D03*
X181362Y297390D02*
D03*
X219783Y156693D02*
D03*
X210700Y116000D02*
D03*
X138189Y103000D02*
D03*
X106000D02*
D03*
X66929Y115071D02*
D03*
Y128000D02*
D03*
X208000Y119291D02*
D03*
X138189Y106693D02*
D03*
X86614Y107087D02*
D03*
X110517Y112205D02*
D03*
X205512Y122441D02*
D03*
X168407Y292616D02*
D03*
X135987Y290720D02*
D03*
X77953Y216142D02*
D03*
X115748Y249213D02*
D03*
X111396Y309055D02*
D03*
X129134Y220866D02*
D03*
X107656Y226772D02*
D03*
X94882Y220866D02*
D03*
X88583Y226378D02*
D03*
X122350Y262402D02*
D03*
X117572Y290441D02*
D03*
X56500Y287992D02*
D03*
X66601Y296126D02*
D03*
X7881Y267323D02*
D03*
X8268Y253937D02*
D03*
X6693Y231102D02*
D03*
X161024Y177677D02*
D03*
Y162677D02*
D03*
X143095Y174787D02*
D03*
X143110Y165354D02*
D03*
X192520Y155890D02*
D03*
X200787Y189370D02*
D03*
X298819Y147244D02*
D03*
X66929Y256235D02*
D03*
X65136Y212205D02*
D03*
X69860Y216142D02*
D03*
X292126Y174311D02*
D03*
X53383Y254463D02*
D03*
X41517Y258892D02*
D03*
Y255349D02*
D03*
Y251805D02*
D03*
X45454D02*
D03*
Y255349D02*
D03*
Y258892D02*
D03*
M02*
